<mxfile host="app.diagrams.net" agent="Mozilla/5.0 (X11; Linux x86_64) AppleWebKit/537.36 (KHTML, like Gecko) Chrome/136.0.0.0 Safari/537.36" version="27.1.6">
  <diagram name="Page-1" id="WgYXGQbqfylHzYrq7FO5">
    <mxGraphModel dx="1358" dy="790" grid="1" gridSize="10" guides="1" tooltips="1" connect="1" arrows="1" fold="1" page="1" pageScale="1" pageWidth="827" pageHeight="1169" background="#FFFFFF" math="0" shadow="0">
      <root>
        <mxCell id="0" />
        <mxCell id="1" parent="0" />
        <mxCell id="otfmwMb7wzkigZNuvZXS-51" style="edgeStyle=orthogonalEdgeStyle;rounded=0;orthogonalLoop=1;jettySize=auto;html=1;entryX=0.5;entryY=0;entryDx=0;entryDy=0;" edge="1" parent="1" target="otfmwMb7wzkigZNuvZXS-103">
          <mxGeometry relative="1" as="geometry">
            <mxPoint x="174.5" y="314.8499999999999" as="sourcePoint" />
            <mxPoint x="174.5" y="364.09000000000003" as="targetPoint" />
          </mxGeometry>
        </mxCell>
        <mxCell id="8h9eHZ5FxwuMSg7X2r9Z-19" value="100 PRs&lt;br&gt;1 Recent Commit" style="rounded=0;whiteSpace=wrap;html=1;fillColor=#CCCCCC;strokeColor=#23445d;container=0;" parent="1" vertex="1">
          <mxGeometry x="330" y="304.59" width="110" height="49.69" as="geometry" />
        </mxCell>
        <mxCell id="8h9eHZ5FxwuMSg7X2r9Z-6" value="GHS List" style="shape=image;verticalLabelPosition=bottom;labelBackgroundColor=default;verticalAlign=top;aspect=fixed;imageAspect=0;image=data:image/png,iVBORw0KGgoAAAANSUhEUgAAAIIAAACsCAYAAAC3pXS7AAAAAXNSR0IB2cksfwAAAARnQU1BAACxjwv8YQUAAAAgY0hSTQAAeiYAAICEAAD6AAAAgOgAAHUwAADqYAAAOpgAABdwnLpRPAAAAAlwSFlzAAAuIwAALiMBeKU/dgAAAAd0SU1FB+kGEQ0IJGZ42DoAABEVSURBVHhe7V0NbBXVEt6tUoUULCig1gYJaTVSg0+IUWMML1YQjAbUogkxPCGgkaBoRKM1CGoxYORhTBVDhFR5JJTIKzHGoJiH5qmJihRT0EjyiPKTYLRUiwr4s2++085l7+1td++9s3v3tLPJZtu7u3PmzHw7Z845c+a4Th/HypUrF+/evfufx48fd/7880/H8zzztOu6aW+VlJSY///666++yFl7j+vHFfDXH39Pmzat5v77799rbQV7Y/y2mbd5gwcP9gYNGuRRRT0ShLnS83pmyKC0tNTI5pFHHvmfzUBI/7SpJuedd573448/mjqdeeaZ5uv/448/zHWgWgRWMNffr/AzzjjDyObUqVPOihUrlj3xxBPLbQREGhBgAX7//feU6YdJRJOAK8w+Ko2jN1OZTVA2CiUbz9zs+evIvwEILCubwWDqXVFRYcw+TB0AQUo3pzYHPZtDlguaBP8JuQ0bNqzLkbLsMBZh3rx53vr1601TAIuALx+WgEDhTJkyxbnyyiu3nDx5sop+77CsfqLskvkfM2LEiKbW1tZlzc3NWZ1mWIlu69Cj2RVlJgpibA0Y6XAOL7roIiuRHYV8stE8++yz06wBO9OwqJDjyJEj7ZMfTFqWJiAumVpZTmazwP9DjgyKUaNG2QOGpUuXNrNvAEuAvydOnGhPBYoEI1Z2Nj8K9/h3Wyxr10hQ9wHfAO1bZWVlkcRrX7HciyAn0Rk+fHiqAuxjHTp0yKmurk78h5UGBIwXwNmh9s8+jRSBY3w43K2uqqpyjh075p5zzjlmvAUfFMYW4HB/8803TtKtbAkxPYhlyADor0PF0ljhMRZcOzs7DfmffvrJHTp0qAEIQAAwYJxh165dzjXXXJNYy5CyCEAxdRHTRhClBdff6PnnHND15oPmaGrwd+ZI7CeffOLceOONiQRDCSF3SH9TULHrgwmo5557rh5NLawCD9XT/I3z3nvvOXV1dYkDg7EImbOJxRZkfyj/8ccfX/Hkk0+2oNnACTCcOHHCoa66s2XLFmfOnDmJAkOas9gfFJCkOjzzzDMzFyxYYEZqedIOVgLHxo0bnQcffPBkUvhVIESsiVdeecWdPXu2GboHGGARcIUz+eKLL5YuW7ZsQ8QshCKvQAglpsIe2rBhgztzxkzjPKIXwU4kQEFA+Mfq1avrCiuh8LcVCIXLMBSFrf/e6t5yyy3GGrBPxnEeDz/8cPOrr75aEYpQRA8pECISbDayb731lnv11Vcbi8AnO+v33nvvoRhZ6VEUBpRKwZQOIuWmBsjM/3WH7XnRWIJ71VVXpQoDHR6DQHhgblzIPa0WQU6WoSl9+umnbk1NjQESx37gZfgPQ4YMKQoYFAih1Sf7YFtbm3vxxRenmgjMTeD89ddfTdyobGnB1BQIwTKK7IkDBw64FPFk6KOJQBcTYPjhhx+c8ePHxwoGBUJkag5HmJTuYgobfgKGo+GrocnYt29frGBQIITTV6RPYcYSvgJ8BLYOGGPYu3evQ45lLJZBgRCpisMTp3kIAwbuTgIUAMNnn33mUJczcjAoEMLrKvIn16xZcx1iQnjkkbv0FDXt3HzzzZGCQYEQuXrDF7Bo0aKPKIZ0mf8NgAKzl++8845z9913RwYGBUJ4PcXyJJbM1dfXv3vWWWelBvnQm4B12Lx5s3PPPfdEAgYFQizqza2QhoaGqbToyAEY4CfgQLcS1qGpqcl59NFH23KjGPy0AiFYRkV54uWXX3bvvPNO0yywdYBlwLFq1arxzz777CpJxhQIktIUpkVfvzt16lQTS4oxBo5jwJWin5a88MILs6WKVCBISTIiOuQkutdff31qjIEjnXClJmLjunXrTi+mKIAHBUIBwovr1Q8//NCAAT4CWwbuTVC4W7sEHwoECSnGQANgmDBhgmkm2HnEFZNU5EMU3JNQIMSgRKki9uzZ49LyOWMZeE4CTQTAUegaSwWClJZiokPL59wLL7zQlMYBLQAD1ljS73lbBgVCTAqULObIkSPuueeea6at+QAY6HfnsssuywsMCgRJDcVIixKemelrNBMcIo/rV1995Vx66aU5g0GBkKfyIPTMANQ8SeX92s8//+yCD053xItn9u/fn/OMpQIhTzWw0P2h6XmSKug1WhNxHQiAHwYmfAdMX9fW1oa2DAqEPNXAAOAYAg4qyZNc3q9hxpJWTP2do6pBCL0I9Cp27NiBrLChwKBAyFMFPBnEgPA7bnmSzPu1Bx54YCfNWu7ExJQ/rB7/Y/o61IwlEfgPcWBy/nCq3SQu285bShG9WFZWZuTlPyMqKjTZhQsXGn6QHI0TpHGWN9zri5BahNBiTn/wkksu6fFmsZe6NzY2unPnzk3FMcA6cMjb2rVrnaeffrqx1+qqRcgPCUjCnWkRKGVOqPY4vxLDvzVr1ixjGTD0zJny2DJQrENDVkoKhPACznwyS9PgxRV1HMT1TTfdZFIlds9DpJKDwgUgy3FFj/cVCEEi7f0+tjNg/wpXPsN66vmXHO5NSp9seII1wJXzP+JKeRuq06goEMIJtbenuheupoTNCc0vv/zyRDQT1157rQEBO4+cKDRzjaU6i4XhAHs0zORV0eiu8bK1r7/+2ikvL/fuuOOOogLi448/dpEDEnwhloHHGzDWQAlCU7ydzglXoEAG6usPPfRQC2VRc+CVcwJOCB3jDB0dHc7WrVvRt/eQe5GmisXFxOMGfjDy37/99puJdzx69Kjhzb+SCoCgBKFmwS2W3TnaNMjohsBg2mD2ztkcwzljc8ztNP6P8uTxIH+5/rL5bzRreJYCXjxtGmRw4CDqmKKLF1Dbm9r1huMLOW6AR/74i43yysvsYQk4x7bfeqDasBgYiv7yyy8dBYIQEEBmyZIl66g5cGfMmGHaYp6YKubwc1/VY2Cg+VAfQRAITKqlpcXs3kLAaHv//ffHf/vtt057e3vR0xP55yHAn3+NpVqECIDAJKmpqKFk3C6cMTLBAEdRT1K8S2shZtHuMikQMCAUCBECIYmkKZXfFo5o8vsoCoQkaitinjKdRhSnQIhY6Ekk70+lyFFNCoQkaqoIPCkQiiD0pBVp9qpMGlPKT3wSSAtri69YLSnJElCLkGTtRMQbmgL/mgyzK11EZSlZyySgQLBMYVGxq0CISrKW0VUgWKawqNhVIEQlWcvoKhAsU1hU7EYSj4Bw7ny2B8qcL4+q0rbS5cDTiooKZ/369SbmQeoQBwLCprHwUo9oJMBb/1RWVnoHDx4UA4No00AhWh5H8HLMnF67tuiROpGJFWBAmhzJLQJFLQIiXzjoIZrvYWBTRdPAFgHNKG0ReFhKIqIWgbKAuqNHj04FbUoxqXS6JACrwsf06dNFxSJqEcAZpXlzkRa2s7OzllB7Ou2XKNsDmxgW1bz99tuiQhAHAribP3/+MbpsEeVUiUUqAdGmIVJOlXikElAgRCpee4grEOzRVaScKhAiFa89xBUI9ugqUk4VCJGK1x7iCgR7dBUppwqESMVrD3EFgj26ipRTBUKk4rWHeCRDzK+99lopZe2qypxroNmzrm1NezkKnZsIoh+klmKXH8QfTUGX0ybi+7qH8IMez+m+OBDGjh3rEaNpiRiYI87Q0QcQcmI+8+Eg+kHEC42QKrT8IP5wn7PC33777c6bb74pFpgiCoT77rvPo2CJ1D7GnESKK+hfjp2t0v5p1jBCyXwmiH4QzWKXH4Y/BP4AsASCoMdzui8KhO+Pfp/apBJfR+ZmFkFfTND9oJrZ/n5Q/fBhIfEVDiTMpExu4ymt396g98LcFwXCtOnTRrRsa2lH2jZOLReGibBNRy608nm2UCDlU2Yu7/Dmn3gHAUBSIAA9USDAiSGU1rzxxhtt2KEU8XX+o9A2OBeh9cdnYRF++eUXh/wwZ/v27WL+gTgQQLAbpaJM9kelFlIn2gS0kNezvqvjCOIitZOgAsFOvYlzrUAQF6mdBBUIdupNnGsFgrhI7SSoQLBTb+JcKxDERWonQQWCnXoT51qBIC5SOwkqEOzUmzjXCgRxkdpJUHTSCSLArnFNTU2Tkz6TZ6O6EC+BmIthw4Y5tK+k6HyOKBBWr15dRzuETIaQdaZRHmr8cSFbCvZ8pmlpMTCIAuGDDz5oBmoRToW5cw6rgkg4eogTQvUlplytSSboco00yoxsKnb5mbLh+iBbCuRKcYvmijwUUvGLokAYN27c9yTEUdjmDszzdnfZrAMLOxswcrUmmYrjcsN+k5nlJaF8v3wYqIjvgFwR+YX7UiCAnESdRWoaRt9www2GWaBXD3kJAACwtEuXLv2XJHVRiwDGduzY0aPdCjK1QfclK5yNli3lM58nTpxwli9fLioWUYsgypkSi1UCCoRYxZ3cwhQIydVNrJwpEGIVd3ILUyAkVzexcqZAiFXcyS1MgZBc3cTKmQIhVnEntzAFQnJ1EytnCoRYxZ3cwhQIydVNrJyJzzWA+8WLF3fSauiyWGsyQArDzOoFF1zwbkNDw1TJKosDobS01FuzZk0aj5iNLPbEjqTQikXLt4PLlEmTJnmff/65WGCKaNMwZ84cs6fT4MGDzTQ0gcJMmeJvqT2NBjIdntrHdffu3Q6SlkmBUtQiYHoUQR0IpEBSB1x5Z3IphgcynSitqigQNm/e7JaVlXnHjx83FqDQ5FYDWem91Z3lOnHiRGfevHmnpGQkCgQwRSBwFy1aZMCQa8iXVKX6Kx2AAPmpqqur1z311FMLJOspDgQw99JLL4k5MZKVVVq9S0DUWVRB2ysBBYK9uhPlXIEgKk57iSkQ7NWdKOcKBFFx2ktMgWCv7kQ5VyCIitNeYgoEe3UnyrkCQVSc9hJTINirO1HOFQii4rSXmPhcA82Kea2trSYGAbEJ/kMnoQoDin82lyb2ROd0RIGAEDWacDK1RTKHTMXrtHRhQECQD0LVEJewdu3awohlvC0KhIMHD5o4RVgDDkzh8vypc0RrMICI4cPCiQgwBAE1NjZesXDhwlYJEYgCYfLkydfR7mP/BWP69UuoJ50Gb5aG/ElDhw51pECAUkSBQO3WR4899ljrpk2broB/kLndn7xoBhZFDgMcPny409bWJhrzIQoEqGXlypV/G1jqib+2hw8fFi9Uu4/iIrWToALBTr2Jc61AEBepnQQVCHbqTZxrBYK4SO0kqECwU2/iXCsQxEVqJ0EFgp16E+dagSAuUjsJKhDs1Js41woEcZHaSVCBYKfexLnuAYQokzGIc68ExSRQQlEvZioLAECqGxy57okkxo0SikUC0C8HuXCBaRbBn/omFo60kKJIgD90viKIKA0IiImDZdDooqLoJ7ZC/QDgFiANCLw72oEDB2JjSguKXwLfffedKZR32MP2geagYFMPJ+4RWjxsLhk/e1piHBKgLQKNnpEPE1ecVVVVXfo+//zzzQ8AAzkR5qysrFQwxKGZGMt4/vnn50PP0C+5AeaDByDuuusuzwRAUpo27/XXX3ewwST7B7yja21trTNhwoSd9PuQIJ6pgPQVLUEv6P3IJUAKP0LpkCft3Llz7K5du9KaBO4pUnQ0Bcl3HyNHjvTa29tTjGUmygyzSinMM5HXXAtI0yH/A91wjkZO5Qsd33rrrc62bdtOAwEvwD/ATV5Rg99451FYi6DdXbW3kSwUYlyIhwSgRx4sZECQb+Ds37/fGIMesfHl5eVeZ2dn6iWOpQ+zza+OSiYHCNk+SuiQ16NSc+/s2bOn77URdXV1HnUpUj0JOBfsYeq1y9O24fT3BuEcgucxY8Z49fX12zMh2yciaNPvui+++KK5o6PDLL7UpiE5X3wYTlhfsOrUC3QotX/J3Llzs/YG/w/6ptp4FEAhaQAAAABJRU5ErkJggg==;container=0;fontSize=17;" parent="1" vertex="1">
          <mxGeometry x="159.5" y="254.74" width="30" height="39.69" as="geometry" />
        </mxCell>
        <mxCell id="otfmwMb7wzkigZNuvZXS-113" style="edgeStyle=orthogonalEdgeStyle;rounded=0;orthogonalLoop=1;jettySize=auto;html=1;entryX=0;entryY=0.5;entryDx=0;entryDy=0;" edge="1" parent="1" source="otfmwMb7wzkigZNuvZXS-5" target="otfmwMb7wzkigZNuvZXS-21">
          <mxGeometry relative="1" as="geometry">
            <Array as="points">
              <mxPoint x="590" y="400" />
              <mxPoint x="590" y="275" />
            </Array>
          </mxGeometry>
        </mxCell>
        <mxCell id="otfmwMb7wzkigZNuvZXS-114" style="edgeStyle=orthogonalEdgeStyle;rounded=0;orthogonalLoop=1;jettySize=auto;html=1;" edge="1" parent="1" source="otfmwMb7wzkigZNuvZXS-5">
          <mxGeometry relative="1" as="geometry">
            <mxPoint x="720" y="520" as="targetPoint" />
            <Array as="points">
              <mxPoint x="590" y="400" />
              <mxPoint x="590" y="520" />
            </Array>
          </mxGeometry>
        </mxCell>
        <mxCell id="otfmwMb7wzkigZNuvZXS-31" style="edgeStyle=orthogonalEdgeStyle;rounded=0;orthogonalLoop=1;jettySize=auto;html=1;entryX=0.5;entryY=1;entryDx=0;entryDy=0;dashed=1;endArrow=blockThin;endFill=0;" edge="1" parent="1" source="otfmwMb7wzkigZNuvZXS-32" target="otfmwMb7wzkigZNuvZXS-33">
          <mxGeometry relative="1" as="geometry" />
        </mxCell>
        <mxCell id="otfmwMb7wzkigZNuvZXS-91" style="edgeStyle=orthogonalEdgeStyle;rounded=0;orthogonalLoop=1;jettySize=auto;html=1;entryX=-0.006;entryY=0.643;entryDx=0;entryDy=0;entryPerimeter=0;" edge="1" parent="1" source="otfmwMb7wzkigZNuvZXS-32" target="otfmwMb7wzkigZNuvZXS-50">
          <mxGeometry relative="1" as="geometry">
            <mxPoint x="1340" y="516.1722488038276" as="targetPoint" />
          </mxGeometry>
        </mxCell>
        <mxCell id="otfmwMb7wzkigZNuvZXS-32" value="&#xa;" style="shape=image;verticalLabelPosition=bottom;labelBackgroundColor=default;verticalAlign=top;aspect=fixed;imageAspect=0;image=https://cdn-icons-png.flaticon.com/512/107/107799.png;container=0;" vertex="1" parent="1">
          <mxGeometry x="1161" y="509.17224880382776" width="24" height="24" as="geometry" />
        </mxCell>
        <mxCell id="otfmwMb7wzkigZNuvZXS-33" value="Manual&lt;br&gt;Selection" style="rounded=0;whiteSpace=wrap;html=1;fillColor=#CCCCCC;strokeColor=#23445d;container=0;" vertex="1" parent="1">
          <mxGeometry x="1118" y="379.84000000000003" width="110" height="49.69" as="geometry" />
        </mxCell>
        <mxCell id="otfmwMb7wzkigZNuvZXS-89" style="edgeStyle=orthogonalEdgeStyle;rounded=0;orthogonalLoop=1;jettySize=auto;html=1;entryX=0;entryY=0.5;entryDx=0;entryDy=0;" edge="1" parent="1" source="otfmwMb7wzkigZNuvZXS-34" target="otfmwMb7wzkigZNuvZXS-35">
          <mxGeometry relative="1" as="geometry" />
        </mxCell>
        <mxCell id="otfmwMb7wzkigZNuvZXS-34" value="Build" style="shape=image;verticalLabelPosition=bottom;labelBackgroundColor=default;verticalAlign=top;aspect=fixed;imageAspect=0;image=data:image/png,iVBORw0KGgoAAAANSUhEUgAAAK8AAADBCAYAAAC5bOBfAAAAAXNSR0IB2cksfwAAAARnQU1BAACxjwv8YQUAAAAgY0hSTQAAeiYAAICEAAD6AAAAgOgAAHUwAADqYAAAOpgAABdwnLpRPAAAAAlwSFlzAAAuIwAALiMBeKU/dgAAAAd0SU1FB+kGERE5HeocDZQAACAASURBVHhe7Z0JmBTV1bBrWGUTEUEjuOCCyKisoogiosFdFhEMGBhlk8UFNSZugCKiiOICyGLA9Uk+TfTP4vfFJL/G32gSY4z7ggZBxR1BQWQR6j/v6Tr9teNMd1V1dXfNTNXz9NOz3Lr33HPPPffcszpO8oTCwKJFizqUl5e7bdq0cRs0aOA2atTIbdiwodukSRO3rKxM/8bv/L1x48buTjvt9J3Prrvu6nbr1s1duHBheSgAkpecsgQHwTFwyCGHuK+++qojhOm0bNnSEeJ0vv76a0eI1alXr56zfft2x3VdR4hYPzz2zd95vv32W22zbt06p3fv3s7f/va3ZC0CLkW9gO3rfHO47Ztvvunss88+zgEHHOBs27bN2bFjhyOc1dltt92USPm9fv36Ssj2MeI1BPI7xC/9QbhO165dU1SdPAkGCoGBiRMnQmDuQQcd5AqhqmggxOk2a9ZM/464wPcee+zhCvHqhzZ8+Jm21gaRol27dtp+r732cnfeeWd38uTJCQEHWLjkqAqArKZNm0Jozttvv63iwvr1650zzzzTOeywwxZOmzZtMl3dcccd/YQbtxNO/FrlrkVMaCRcuSl/v+eee55ctWqVI4Stn7Vr1zpbtmxRCSMASEnTBAO5MXDbbbedyuUMDsllC445atSovDjl4Ycfrpe4tm3buh06dFBufvPNN4/LDU3SIsFAAAxMnTr1CwhNOK578MEHK8EFeL3apvTJRth9993dVq1auRdeeOGOKPqtC30kFzafq/zaa6+1oqkQrfPGG2+otiCKp0WLFs4PfvAD1VSgeRDZeH0U/daFPhLi9bnKaBXQHHz55ZfOLrvs4rRu3drnm9mboXX45ptvnI0bNzqiI3bee+893STJkxsDCfHmxpG24DJlOlq+5fLm883szejHVGv0i744efxhICFef3hyNm3apDpcCIyPXNx8vpm9GVwcro7GgX7RYCSPPwwkxOsPT87mzZuVwHiQd1GVRfGwCRAbzJiB+JA8/jCQEK8/PKnYgEUM7ov5l4tWFE8mB8cq5+l6o+i61veRYiU19Jk/f36v1atX3y/60bt++tOf3lbIaSA22NEepdhgxEufEC8cvtDPT37yk7fkcviSaE7mTpky5blCj5f0n4GBE044wRVZUc2yeHFhfpV/ux07dnSxcBUCWVjXMPvywUsMAohiHDM5i7pMdcieASSKrr/TB8YPdMngqX379qpT5mfG+9GPfhSJzjpyoGtTh5deeukH5huw99576wJgldp3331dUV2p3wAL1L9//8gXg74xTEC8GBamT5/+QBS4ZU5svj333FOJl00SRb+ZfZx++unqmgn8++23n9u8eXMlWn7OJOhbb731rKjHTvoTDFx99dW/h2jguHzgVCw6P8NJWAzx9NIFgaNA0FEhrk+fPton5mE2Cdw+qr69fpSg2JBskvPPPz+y/rt06aKwY37GEYjNx6YHXxAu+OPvjMvfEvN0xCt77bXXLoFgQDa+BSwyhIzYwBHOB47FN0QA4ULIcOV8QZklD5sETzIWnj69DZJv1+n3mQ+cF6JiUzKHKDqnT3ACLhjDuCwEKxdOdZZnMzI/HOPhzhDxLbfcMjKK8et8H9dff/0cOAdI5tjjaDX59qabbrrYENSzZ08lLvxtIV4WAjdEiCEsEk888UQdCwcavnFd5JtTIGyfVb3HOBAS/TNHNiXwDxo0KDTsbHI2OJvN8MYYRx55ZLpPRB/GgajZMOBq//331/FnzJixPMo51rm+rrjiir9CLN27d1eOwGJwDMI1qkLG8OHD08QG10GcsPf8htuI1uLfRErAjXjXI37lvCwsXKxAC6Gw4/QDETNXk+858i+55JJP/Ix7ww03TOc9fIfZzIg6cFr6HjNmTJWww52tLYTLO4zPqeNnzKRNJQyw800OA/kQDpzU88KqFl94ZUHcdgTDqY1bT5gwoVrCO+uss3TRWGQ+iCkQDWPbxcbTahRsrRB9mDNjQsT8znwhZuYDTEOHDq12Dueee65ubAgRbiuRHoYv1zvBqoXdxC/eZTy7AM+cOXNewSZcGzu++OKLN3CcIad5t29FpqfeyTlljnUIlsWGEFgY+qOPY445xkU/TCfIdieffHLaP5ex4NgQK4sIITEm37ybc+AIGkB8Jv+ymbhEMQ/jiPyNI/6II45wly5dqk48F1xwgYvYxCnB+yZ6sAm9DekLMuub9zlhmDvjzp49+0pfHdT1Rt5tVwnOLi8gM+glhoU1DgzX5n1P3NANgfxnXNYueQceeKDevI1TAwPyM5upmOsyevRo5X6MD4zMH07MpkKWNVGIk4j/szEhcogN2CFCZH9vfkFBVzmZzZq5ia+88song3ZUp9ojbyKrsVimwoHI8nH8tngy0xbYRuDvECoLxIfFghgYD0LIdjwXc1EwyHiqOSVMuDJwI8/zO/PgZ/DF/9hscMs89cWKD/DAJoKY2fhR6baLib9ijqUcA84B0uAwUVyQBgwYoFyIBUCOZWH4GSJgwc1CB+eNynIWNdIqKirS1j3g5zSB00K04AqcsfkguF69euUt4jRsWF/63lk2SAv9bt26leCpXt79Ro2XWPSHOgqVDXKuRdWyQFECh9YCIjY1kkX+HnXUUe6NN974kyjHKlRfHN9oQ0xkYA6IF2xG5OCf//znjaIau2EjNDyNhLPvKaffbrIxdtE7Q1T916Z+9PiG03Ls4adQyMndddddHQvZf7H6LqRBYendd3Xs1EnXQQm4XTvVmRd0XYqFt8jGkfDxtJKcIxBZbvHixe0iGyDpKDQGZsyY9hAEu9de7ZT7cidI8ktkoJNLidn2OdI5FkNjO3kxcgwccACqw7ae3Nsg75D/qACMhTM6PqxEJ5izN5EFyRMfDBBXh5M88XasEzF3cXhi4YwuGgDn5Zdf1lguImg/+eQTB7WMOOScEwckBYGBC9Onn356mSz2gXKRehunbzlVnho7dmyNjO+ZPv2aR6+9dqbTrFkTDc+Hwcil+i9BcFLr23J7Rm2FqgddbC4zcKkRcuedd/bBFI27pMGLsYCPpTdFPjStAHKjZcfhYoqG47zzzou1eHTPvXc3b9GimWiB2si88DlOWR1LjXsbPzZ5sciSSNpQ4VKacZGwG76Fi8UGxp/97Gf/+POf/9xLcis4X3zxhYbtEBoEN+I7M7qYo5XfCay0jJGE+nDsEgPHh4fTBo5GtsiBAwdOLXQ4UxDC232P1u4OAdNgZY777XeA8/e//z0WaxILIAyhcCxy3RIOjhwMgYjhwFmxYkVJ4Tz66KNd0pBCfBAqsIkuWgkR4uPvljAPYuWxHL38r3KaUwgbuZ4wd1ELOnLi6GZds2aNIycP6U6dJ554oqRzPvDA/d3V773rNGvaQkW5jz/+WGRdnVpJ4Qqy+YraFr8GlO0cr4gQfGM56tSpU9GPKkJiPEuVHv3onzHDAg/fiArmLIRqDy0JJlkTEzDpIkJYWlMzPZtogXUMax/mXOaMbps5W4wcYgbzXrJkSduiLoIM1r9/P7HetXTbtd9d/Et2F/PwrqppuPvu4sNS7LnnNR5OMBCCOdNgcWMh83HMDgqQOZ9DgBApFj8IFUsWciyExsaCAJFf4cw//vGP3euuu25BtrHwjz3nnHM0xg4ihZCZG2pCfsfCiMxvjvdeJIi6NgadQ9j2mKGBCWtam7atxOLZXn+fPTvx7fWFUy+Gy+3cubNyMr5BIN5WvjoI2cgWzhxgLNYLAjbXTAjs2GOPdbmwhRzmO69dddVVjyPvmz8tBMtmgRtbxLJx+8svv/zVKMasro/LLrtsJXju3LmTbNAm7m5tUk7skydrUu3k8YuBU089VTmSOZzgFQYh+42I8DuOtePI5ojH9RDOBwFDvCYGwP2IpQvab5D2EKcXOJqOVAYWi2yAkDz/jCDdBmnrRYvspRY1kW7d4cPPSgg3CAatLXImiwdhwZEgJs9pJ0x3Vb4DtzFRwAI8IVSLI8uM+YpsUB8dcdoAAxwY0QTxiRMAHHi+yD568d8ELn/ooYeq6IJarEmTxm7Xboml0z8Gq2gJscL9kD89LzM3M/Ayn84J/UHDAUFAsPRvFyaIZc6cOZPy6T/fd4lgsNAk8+HlPmAxad4xn+8wDvcMxBYI12LZlPMmT/4YaN68qcpg3HxZTBT8+fbat+/R6u6HAp6bNH2jhOdorqjIL11/vrBVft+7rCpxQcSIUxbJfMopp+SNC6mpoVze4v68zRH1NOpmf0cddaQSFs7QFmGRDyZ69eqpRHrwwQepbNe4cUPZFMi5LSTpxv+G0+czRtTvzp07t8Kc801V57mNfiecPcy4cFu7X0DAcYkiCTOX2L1z4YVTVA5LOUTvqvJfWCCPOOJwuZiRUWfvdIQAROuphMJ2W7T3EBuQ/8EBG5mLJUSdj5O4iU5sCuTpmuKYHwuvslwrjzVq69aU19nWrVv1E+YZPHig+49//FNrQGAlw2y7du06R4wRkk7/gxphOfrqq6/KsDpiosaUjvULq9zTTz/thNWFY/HDCgh+sRp+/vnnE8PgN3mnCgzgT0ocFYpzbtxhwoOuvlqjXyVC4wC1HuGfyu/DhlWfByHOiwGhWjg8GglTsY0fPz7wqQROuRDTB1oHz0gT5+nXDNgWLpzfi4sVlyoIjqMSLUEI6FXGRTygPwIMayrh2tzPOOOMdJIS8AIRIlIEDXEidwWihyUrCZpmIMRa1I1XevbsrpcpLmvY2MNkrUFWhtvCvXE4QXPRpcuhYTZA7JBu3BLZF3mV76AJBvGfgHvzHtocfsZIFLvJ1kCAxOkF239bQWozN2iB6f7iZFK/fplyXEQG+7kG4qFakM0XgqPfLJJB5V8MIXBuLoSmhqtNOCr6XEZXjFTNAFGrcE9+DuJTMHfunEkQK5Gv6IrZBIgLRZ9IEQbk2MfQgsxqqQOWLVvm+xKKUxGEywZAk8EJl2RMz2Ph8GriuEdsgOj2379DIMLr2vUwFTe46HHp44J26aVTv8gDpNi+Sr4yr7C3cl8sZni7BQGY9Fp4ulkGHr+54YKMUSfazp8vtSXEMQTCg2sGJTwvNZFybOz09IG3VG1GHk5FZn3j8gXOKPjtd864a/IOlz+4sOey6ff1pJ1h4LDDDnF3btlUL1kQIBqCINjB0RvjA7IyG4BFCfJ+TWy7aNGiDsyTtFVc5CDAoFnc8SMxR3u87HD/rIm4KBnMqMe4nOFPCvEhq2IZ8wvQ5Zf/7NVUsCNJMuqrluLkkzXLecke1FFR+CHkmgDEBtEiAsCJIea77767ea737P+kSjVdujnDB5Gd/Y5TK9tRHSd1dO3s7vEDVDeaF9ddtsz/ApSXH6pyH4SP30LTpjuVlHAtVSnzwL2zCAunTjZW3iCII5MnZugGQPa1UKeoPNiinLvv22gUg86bN28QpkcxcQ7A5LthwwZHftZAS3I1UFEdM6UQmxaQ3qlJI+fL9RscyaDjiFnXF6zLl91fNn7C2B0iKoi5s4Gzbt06R7iJ85e//D9f70cxz8w+yCUm5QkeIGCT59133+WroLCQcO/111/XoFACPMGB4NP3mHDf999/X4NLKVMLzFT8JOkIf8M8bX1jmhYCd4RLP0hRQkkF9WLUOCxJf6SSx6GcI5yLhNVYgBNZin4LTLRQFxxvMCKg3uKiFZRrVlSQC6Gech7cHQsh6wYpNkIqK2DgGLd0pJUXI2q/YQopgmMLDOXi5YU4+aYDVGXAjOiADG0OQfRJf1aNySoy2dryHuo2PN5qbFmsAQNOUDUV3mBcnDj+MfHizcUFim9+53+4O+6zz17qU8vfkFFZcPxMg6bs5JgzSxEI9uLffC9atoYkGQEuFszvpmDeiEDMDZ0zFsPMMZDn6Ys5jxtXdcGTMMAj70JkVjsuqCce4VaIDcBGX4RhQcz0A37RZlhJLMunjHHDnNnNib4QBR3D4MP3O55+URcEqxZGBn7WS5h8wxFNfcXvXKw8DivcOSXvDh48OJRsaOWb4OD8TFSvb8CzNPRcDpUDIUuyiGS3zNU38zQLIXMbO/Z/s+Qcemi5zpuNzAdcoJvO1aef/+P/YdERloTaz3uV2wwZMiQduQFBQsgWNmVEa6cKXNnKYSHbWyh/jx49IplTGPgDveOF6OhlCb2q6WgRBTx1ly7YfvvtK3kL9lHDAzlgDz+8h1h0hrsLFoSPyrXLnpk5qyt5FWhC0phFsspEcCMrb0X1nWx9keeLk4fNaBfPzPaeY5DiiBMIQgdviExBYazcnpocnBDGISG4fLK+X3PNNY+iLeHyx4lITgm8+6x4C2NBvHY5ZcPAiS28P2rRKF/8VPk+AMOZIE4Iltv+0KFD8l4MP8DC8dFNYh7F2uQde35erbLNtGmp3LQsipW1sqIsftKwnnTSACVIE4/AR+WB+D8EzuZlLE4hvjmS85UZrWInpxBEdPzxxxd8HWBeeLshWtgpiK65UAXBQy9uNS8q0XAEckyed54msSjKw2KZbR/E9e3bN/TYLDR9We4EiIkFgbOcdtppvvq1Sycmboi0srxrSPnhD5Wo9CSC8+JEZBxMskv6GqsqBFNwEY7IPQBxp5jJSyBgLuPQgtWMLgoRhB2EYwlEpfIekLYpmFUs7Lj2ntVa4yjjmJw6NZwfA5wCxFtVebit1e3NVYwvcw6IR8i7EC+XV8KZqpvjxRenLoNc7ODEyNSEovO3sEQ3bNiw78yj2L4KlgkIXHJ6xbqqPFwC+RDVChoEFiFfgvT7/oIFC7oil5piHfHB77vWzqspnOZWbELkWxY9aGkoiJH5I+vyQXzKBc/SpYvbmWbG6qohArEp4ZxB5UZKuaK64tRgXYrtqwDMRg9sQk8My4WG0vzfLmupMkupAtfFgoQqORCslaoKOjbO13Br47a24PRDDt6g8zjmGH1HxSdEAYjSbx9ENJtlCzjQlRvnDxrZy6ZjI5jqik3uF45825l/MacIaxN1uqpIAzA/++yzC8lJSwp4ghvJpl2sR9KF9mNMLHYEEmIR8vsQs/XYY485ctHUVwjOJDWpzMcZN26c88wzz/i2TtmYzz33nGQQb68Ww48//tSRNE1+wXHef39NmRCpWsaEe2lQJBZJOVWc3/3ud44nTvjqD1zYerA2q1evfsDXixE0wgrH2KRvJchTNtG9EXSb7iJS4o0SsKB9QbT2EF1MZG2uh/AXLhOUFCCi+O2331bCJ7euVxejTFROgQmXcSFaTKlsKB6JUF6RC57M/0s1pDKpkXwEG4jcuMAEEQAfpt8goT7AYnUkpI/yIHDEuW2tIV64FIvEbodochEvERniwP0JXBbuBocgqTV+FnBJ2QChiJbFHjNmDJEI6eIjIu86N91080FBCWHKlCnPySYqE5FBNwGZ4kWj4ohoo33Lk1MUgdvyrmU3z9zkQeGJW/taQ7xwJdLj8+HIN45XHcLFTfCvEBgOMywo3JqFJit5GDEhcxxJe68ckgfnI3PKCbv4H374YZmICo58q8OSnSzAi0oqV7+VOG+u5jXm/7WGeDMxbrUhsq2CeF4pIcCx8ZyyB06c70NCEDYGRLNp0+ZA8m5VY1NQ/KOPPqIKj25ORABOCDaIXMSygstGrq1PrSFeXP84GjlOIRrEgGyPyLtlYuZUDo18yzuID6+88ooex6NGhUu2hy6TDWC1KejsuOOOOzosAeFcLq6kXSFealhs3LhRM+TghkgtC3FcyineWEYcNjV4qi1PrSFeFpRFgoDhTn5kO7molYkVTo92FnXt2rVKEPir3nfffU4YjzQphPIQG8Iq/4iqzJk8+YJnwhAMfgTPP/+8ijNwWGRe5oevrZjC8bPNSbgGBycBD8aCMLDE8Z1aQ7xwTXs4TiFIP4+oyMpEmT8DR3iIn28IHwLmVu/lMPDTlbahHBfES1+cAnDIMA/ahGeffVZVfhAtHJc+uYxK3t7Lf/GLX+QkXBs3k/OK3vefYeCJ4zuREq8g+XV2OgjfsmWbyJTFK8MqJt1hiArGnYLUuhMDx7Xz5t3evnXrNgpzy5atVD0lZmaVLTFeYATxs4AffPCBajo2byYh4LdOnz7H+Hkt3WbkyJHqzM0GQPvBRZT++EbPS0SE1IO72U+nWOzYjESVfPPN1yLKOFJHbd+z/bwbVRsTydCSCE6nRdVv5P2QYdvS7+PLGSY1Uz5AYUPHnGvuh7fcGjzX7vH9CdSsJ1atDmqZwmJn1qlcN3uvZkU6ZxjwBClFhfEBRxrG5WNVkQQnrhQYDHzcX355qkAKnmp+TdT54L/yu1grEb0sDD8ILvzAESnnlUW+g53GsW07zg8QUbVBbuVY5ZGoYeeFF16YF7Tv//vE42XiYLRCLFHK7aQCp1rcxOTt/OlPf3Ig5ur6FKvaOIvzSsHQ0JGsjZ/6gQH/2DfeeEO5LJc93oXz/uc//3HEGejm3/zmN77FBBvvX//6VwdxjkobKIp5WZs5c+Y8RDdwyEUT8UlUfPv6wUUp26ijMvZ4dr0Xfl0UePC+4kKCLwG+Fd26h0+mt2TJ3W05ReCe+BngWWYZxOGOqK8qTwoObUVfOPr9FD+k/rBXZ1n9oDmxwJ05v+eDOFwriV4BH3j4EbmRT39B3mWTcwqaW6R3egXpImfbyKu+S/UcvbRwQ0YD8NZbb2EVwtNMEyFz65Wj5F25zLQRInhWjsb/EcL406RJk17LCW2OBhL056BScpzGOj761rDP+PFj4ZhlOJ2vXLlSOSI6YTgInBj1FalEJ06cmDb7SmS0mpmtPKs49DhvvvlmtSAQnSB1BVW25oEzpsqk7nDQQ+db4xd5lydVcnarGmBeeSVvNGuft98+b5DgY4TgorOcTuXAzWnBNwm8ObmwDHrldx0Jo3KeeuqpsMtRvPfwIIJrdevWzfIUpKNP4cZ8kOfgZnAoizyFwxHvdPrpp4fiELgApqJcd9XQm6bNGknloNlX5jtzT9aVtKhd1K0QjgL39SKDtXshYo2Qxh0U7uvH/ZCMl8i2bG60GsCOE3qQ6OTq5oa8iycbPsV4qZGkMGz51ZEjf6RRMYQrERXC+uFczzcBB4xBche+wT0+zF6mHpX//eAi3zWK7H2LsmVy5s5nEacsFEcKR6XVl+C4hCBs8bwC2u5FF12U3dJQBcQcuxCuht7s0kzSFR0TaiNU7vr2228fAFyWjZy5ZcawUaeYjYg/sdUVzoVQ/J/p0y40nviQ6zVf/+/WrYtGaUNkEFSY0lSjRqVyl1nVJHy0Ce8i0psPF0E+/J1v8E5wLUkNWXfWF5fOIJk9fU2uGI3gJiy2xfbDVaxINMTKotnHfsdvld1qJVtHjBgRiPgI0bb8Zru2JllctA7xYi1T4iSqNhOHnBrAjmzHyeM3Sw39MF/6jXJN4IRsYMt9ESRdFnAQmgS3hXsTAY7sDOclVAkCRXtBVDhj0I6Nws9wX6JGOE39xPlFOefI+4JjcexyccMpmcgAizhld1oOBEuQAYHDvXCi9qxBvnWsAI8cCbdQ5ErVcn6+4orvX64in6iO2UbFJeDOVUS7AOOnuySvrkUtc4RztE+bdvXv/Y45YsTZ6Qhv3odIuQBbegKPIaRzcsDZCV8i6zybhJwdhSqz63cORW1HqDauhBA5uxbuBhHA0YJGAYNw5b67p3JEeMUBCzYfEqNw/FuJVS94smDj5eqY49p0uxzvQaI46NtC9ekDgoQBwFXlEhvp6ZBrHjXy/4TdID8iL3EBAnlVqaaqm9zAgadrzFiTpg0tB4J71VVX/LWQyCABCUTL5USiL0q2yOeff77iC04J4cIlKeHld+5nnaWJVFRGJhEK3LbUGTargz2w4tsvEvJtxxGMSgpfWBxmUPesWbPGN7zcrlvv1sr5ZtMWVdnh/ig113y/ny/8pXqfTY+L58aNX6mT0YoV7wCK73kjImDix8yOqRvH908++cz3+8Wcd6QWtigBl9wI6lyDxQw9qBCuEyTPLHpSLFUsBM7bFAscPjxUCawop1XQvkhthX8HDkFY+rAOnnbaKb7HnD171qw1az5y5ARR3KOTl/B53+8nDTMwgBzJBQ8VGjrUwElE5KKCvIcMbJloajOCLUtQ6q7QSm/9Qebbu/cRqhZDc4DYUei7QhDYqmobW84LsJRVxT0RLsBR+NJLLwWa7xlnnKKcGw7Ch1gy8mwF6qSGNEa1yFzx98VSBweWGhOBoMcaiGspHm1wXzzBkickBkhSgeYB+Reugv50+PDhgYiPCwuXN6sqxGUknxRKIadS0NcoGWDaDgwdqby6mibW90NeNXBjFz3Ua7hU+u4gafh9DKAT5hi0yo78HgRPVDA3ax6LitnS0y0H6Sa2bdEnY/ixTJYYaSDCoACjkrR8bIhpntUvaDdJ+0wMYIGC+4JYzMgQoqTJD6T2QlbG+mWbgIUKs8BxWxmr/gOhMT8roIKnWhBYaQ9++ZhPgpcuNkg3SduqMEAkA6ZmLm1wGfwIgmKKix+c1wrt8btXKTJoV7Fob4SLcw/qMSx74MnTiweCEeKH22IYysg/HKiPpHE1GOjdu7da2iz3lR8/2aq6ykycZ2WailSdJ9K1xRrJyWHpQ7mscTqFdewBF1ZzAiNLVNnkI510FZ3FWttg8IqbZDqylxs1Roswj7xXhr8pfeBbjL8p2gyO3Llz51aE6bPY7+ArQupWjDboc9EMkKYKo4IYdUIZE/B9RidOX/Qp4seMYs+r1o5HWVE88uEQXNiQzcJOljgzLjcQLGozTLrc1PldHOJD9xsWniDvUWcCjotogAhkvtB8e9w4SHfptsw/FYGyh55wUo4q1ngINclSvUR4j2Ulh3jDyLyZsJNqkwXjqMWzDUJAloaQqWFWqnlmGxdHeI52SkTZBraM50Hz9lYeh/64T7CBIWCCCOKIgxoH04QJE5QzIs+Vl5errjdsNpvKk8f7CqLlhm0ebHAxFtKLBC45LhxTFwAAHPRJREFUvrwiKAqn1doAXmTTqOo8UG6KeUPE5m/tN9S/5AiKKwAS3zXLCtZZAGSYjOe5OBocGM5OhIdFQnA8k7c3aB24qHAJN+3Xr1+6WB9wmbGGzZUtijkMDIhl6IgtJIn5xzoNf5hJFusdyU3bC/9YPqhwvCJ4UlloaORHGvnAUKFBHHBgOBvHMwvIB3WUl/W94NMnfg2ZHlGGjYsoA8eFqPiZv0PUUQPiFfVWXTHjgO9S+yVHPcei9Wd+vMhhyKUWfl4oAC655JJPIFS4GkRsViYIGa6M6AJMYeLq/MBMWQE2EBzQQuyZM+PDZSEkjvVCRmhgBDLnHts03gb2M4WkDRigpgUyrl1MTCdbDOwQEQyhckxjRkYWhJBZVBbU6iazoSA4zM9h4IIIBwwYoBuFk8XkTbgtGwiiheMiJiHWVI6ZCzOmn3es9C0biFMI2KKSrf2MH6RNKL1gkAGCtsVoQH4wPKPIeUaCOfIhyFM0WKlOLxGvj1KJHh0omWvQf5L9Be80S3zH716GcnXaRm8si6+w45VlKVdpg2M9mWOYC/kU+B1drZURwO+Yd+gbnSv6Z7IOUbFeMvEUbe7eeiGeKAzkqeAbn+oVK1YUG46g5FO69qjA4HDsdjiS54QTuXznd4aEbFuuBtOFwplMJgU+4LRi0XBMjn2OWjg05loL4+d/vGeBpsZZEYuQY/lYvWS4LXJ4EOd7v3Py0+6yyy5bCbycPKwHJyFz4qTx836da+PFqOlFgSPb0kUV66KUC+Fkb4TAIEiIy0peWXomYIaI+UYvzbcVjobI+Rih8ndLuIJYwod+mbuX8yIXOAX/P3BYOD+wATviy1VXXfV4wQevgQNobi8rPAeBeBal2E0F2z/WOYiVhYXbwqEgSDgWH/vduC1/Q443bgwngyDI7xBXixaZi1LVTFsqF06V5dXayLF4YiHDTJ8+/QFJ1TQSL35kLDIj/vCHJzp/+MN/xwK+XCsFN5K8aAOQkZHXkdORd60eBHIy8jsyMUGRIh48Jxe9I3L1G4f/k3YV3wnWBjkd+VfEqaOlklKobO9xmFOkMAwaNEi5Escy3ChoNvJIgUk6+x4GEHk4XTg9kMtHjx4dC+4bC68yqa2g0a6Ep3OD58aePPHBAFkrWR/LHcwJE4cnFsTLkcrRCpJQF1H1MXnigwFSB5C+FBUeYpFohR6OD3QlhgQvLy5oiAxWZPnss4Ml2CvxFGrt8F4aV9WceN5msRAZQHhsLkSoYeDAOImnqvJscCSFqLN48V2RwnjeeRUuya8Jp+cSIlEIzvLl90Y6RqEp+dZb51ZIiavliFmcUuCLkrMLFy6KdB5Y9R555BE9Da2qESH1OPUXeo41qn+CAFEvofPEKYbLG+qkKPJ+sdh9+x6tCZDpkzSdZDUkNSe/8yHl/YwZ0x6KM9IuueTiDeTHZR4kwwNuUpgyFy/BiHvKKSdFwhlxO7VLGj4PZnwRLUMk/ccZz6FgwzCBbd/CsNGjwpEHDx4cGmGTJ0/URSYTDInjLGskSehIg8rCQ8zkK4AADj74IHfMmHNDjxdq4jleIvkdG43sVeTI5UNeBjLaAL8leCY5HtlumK/naBQKHC8zvToEmZM+TKUQ3myhAIzrS6hlUJsh+6IYZ9ezGEHDuZnfOeeM0EWnoIjlmKXIiKW7twzqEC5E3b79numST2waqTLpEi9WClyRU7hPn9666UjszGYDXrguxMoc2GwkVYGImR9zYINC0OAsM3O73zmQ7ZJ3uX9gRTRLJ5k7/fZRp9uZOyRWLJBoBExUhV/EdO/eVTkVi8pCQ8SdO3fShSE7zJFH9tL/sfiZBG6EgE4TvwSL4iiWWRS/AixZZPkh3xicFOLlG27LN0RK6lFOjP79+ynBkuGGTciH97yw/kBhTccff7zih3fhuOjbmX/Uju9+17DGtisvP1gRCdesX59Ih111wSZMyJ37FgKES/EuRywLys9w3aoQMnToEEv/r8QBl2PB4PxwH0zWiDO4MBYSoTjjMOeUT3FrhQUuC5ECPwTK36vLl2ubkRMEwiMyAriZQy64vdAqfY+5wzDQAHlO+bleT/5fGQNe3TBdQI5CiJDFnTixeg7MgrPILDhEzKLzDnUVcmF40qTzrfBIOksP8jeL6NVXKFieM+9UUaKBgICdzWap9CFI4Ms1BzKZs2ERvxB9LHzIuwBX+fqJJ56oc2SuEDsXZ3DmeZPlGjL5f3UYgAuCSBYTDgx3QRyoivtw1LLYED3yIDdzxIJevXrmXPTM8RcsuLMPR6jVxTC5Dw7mLWwhFkxEmSNV1rd0VKRmRSxYsmRRhyADIjKBM0J6OD3g5Fy4+FvlfpBxEQ0srQC+DBCwqN4C4SwIfHWqrZcnNn2hsqMU7nr66ae65JVlYeC6HodNc9DRo3+c1yLg6YYnGDIgsjiEFXWVG8bAv9f8lxkD1V4+iyxJodP5x+DmVryGyzCBpWTbtE3CfPBLxncZPMY1/D8ffJT03YM6iUO0iANdux3i1qsvl5NdW7iNGtdzd2rSQNL3t3T37dDe3XufPd3d92itP8Nxo9LbcnxyrJqbY7YjOAySTC6FgJAx8QcO00/ld0wUgSDZfFx++ZkTxBKtMDcrjMj/qCQUxdhJH5UwUH5IKn0nNYW5Ue+1N4nzdnLbtG2lsi3Vfyhgh1gRZQEVymPBfa1WXJTh97fccstIjnXMr3hsMU6UC0/+CctJAWc3HTp+xp73nnJoLqVSYjXSsaOcR63oy6rdWMlXEM/FxgvTVufuQlRcNM0DhhO4VpDqRNkQz+WTDWhaEc9yFulaLVmypC3ytCfzplNFQciGRyJFIh006ax6DBBlweXCwsOxCoWN5PWDZ45aPpZPIapwnXPPHa2GB3TRyOyowvzAE6YNuTDAkxVzRJ+LbBymr+SdGoQBjnWIl28uPRUVFZEsOjpmOCJiEKrAMDWCaxAaIwU1Fv68kc6oQJ3hjE1oD4+FpkcxFGE1PJZelHGSxx8GEuL1hyeNJCD/Au6HPLhURvFYP2wI8gYTrZA8/jCQEK8/PCnxGuclEQmJQ6J4CNYUg4oGa7I5KNmVPP4wkBCvPzwp8UJglkWc7DdRPDiU4+xN39u370iINwBSE+L1iSxiuCBcI14CRaN4LD7MwuSJJEkefxhIiNcfnhxxcFHuaPUsCIeJ4qFGBlw9tSnKHFHFrYui37rQR0K8PleZpHckm0PuJdIZWXXhwoXlPl+vstmsWTPnkWgP0QFZd/t2FUu25dNn8m6CgeowoAp+/ASkgTi3d85L14vHHIYJHIzoz/sk2PeJgSQK1CeiaIZz97p161R84KhfvXq1qrZI4YQKDXkVfS0iheumdMLVPatWrZL0SVu1mDfvEwUskSPOs8/+PVkTn2uSIMonoqyZOc5AqFziIGR+Jo9XSu3VQLP+SOxZ1p4Ju0fHK1ELDtXWd+xwpa/4pCIIiJaSNE9k3oBol4yOG0kebUmn+YZoefg7crH4z6oMm+0DdxYRxFm5cqXKutdfP/O2gKDU+eahOC8OMH/84x/noKjnuMPEybEJ1+EjxiJn67bNWUU4OBZHLIvPz7yPlSmVLbyxs8/eHZwjjzzqRcnP2y1uq0TmdKlE+eiaNWtU+wDcEC5ZzdH/YmzIxXlRkTF3cUt03n13dah1KDReKO7y1FNPVUhGdF1j5sX6opc2S2NYGFhn8MXJI7F798hY5wbtKxDSjjvuOPfJJ5/UMUy9w2QgQj48TGrHjm8dcRjP+titnYXnHYiAb/qhz282bZFb+Dc6QckXIOlO/xAI1qCICNP+5ptvHvfBBx/Mf+uttxqRfA5OC/GKU7ks9NasXcJ17733/tjNadmyZWVSvmuHlBLQNWGDkcnIysWyRohL+T5sXtYZOkDkAnd9+/Z1fv3rX/vGia+G06df86hwmkHr138lnKKdJluDeCE0iI8J2s/sTo5E/p7rMaW/cV7a8x4fxoIIOJJRJTFB0j8tX77cF8y5xk7+/30MjB17nnvPPffoerZs2eo7DMlqcUC8qQtpLkVLygekuod7wqeffkquYj292RwQNBtm2rRpD8+Ycd2wXGuUkxDI1vLww7+WCj0dlDNCuNywGYSHiaSSKaOjdIRTNtYdBdfM9tDGzK3GbVMm0u16PInTt/P+++/rNxOlPTd0iSNzXn/99Zxw55p48v/vYoA8FnBbNB9cOJs2ba7fVjAG5gFx8XDZNDm/ejxmJ178m/DpYDxOV+iKwjWIX+SSO+qoo52nn3466zpn/efZZw9z/+u/HnJ69OiuaiEIiw9J8CSPgiNBfY7EW2nGb5GD1siO3Sr/34VP/foNP8xGIALwa7IB2gly2gjRNuQjG6E5N3AQ88QTT+hYcAE4MNyXTQMcjClHdULAEe1Aoo0hGI7uzz5bKyrBAyU7/buKfwiKZISo8eQy+iBrJmvUTzjlmuzD78jq2ymboRVjPvXU09qNpDbQ6kcwSHGSd955Z6Vz9tlnO/ffH0K0QlSQPiXStIcm/CArC0ndCMe+6abZV0aEt6zd4PlvEa0ECpLsjSBFPmeccUauc6sYINb4MYYN04qiusZEcXjO8BrNXKxiNtdcc9XjhHJBW5YViKqjwOXVXg6GZ0srRGyVWYBOOKF/SQhm/PjxGmtllYIs7griDjarpHUVGNDgVWLniLiGeIYMGVSSde7S5VDNzQYMVhHKy07pf+G8uH2dFPFVfE477ZSSTMigRtNB1C4RsFatPaoQcf+YqV0te/bsrnnPCD+C68Kojj/+uJKuM4ySgFRLgkJUMznrfGHeK1ynCT6Iq6IjEr35ernAjcrLy1V0IJLXCltfeumlHxR42FrZ/Y033jCdY5m1JZUWIiHpXeMwWcu1BnxwYHxJrr/++jk5YSM6NpUiKJUDlg7uuOO2U3O+WLwGuisJeYcDk/OgeEPXnpFYW/KakSETWZPo5bjMbu7cOZNILwCDIsLZqt1nhY9idhzNZAmEeJE/4rIbDXAvo4vuxlQq0MaSGqlvbBAfFwLIBsf5549P53KDaPkMHjwwVjjs0aOHMk4So8CsyOpTOcXtd9RN3OKZNPo8vKLQu27Y8HXsVFJwXXwIKDbIw88fffRR7OCMMSFzqqZVYR9++KHo67fFDn84QVELA/UpKjRUafKk4UybwUhzaZaOVGj3Rkcyg8cS/0OHDqUCudrYsY171rxYcY5YIk6AQhUm8q2aeNGbi1+FM2bMmFiCyzoTacL6YszgqS5JSppFw4HR68ZyRh5QqM0svxfwIhsh/4ppMdZFUUqF0xtuuH6OGB88J/pOql3gQl7IDD1RzJUMl9zByIxkudWsX2XBKISpL4udGe8hLCudOnV0nn/+hbKlSxe3GzduQtqaMn/+Hf3Er+F52Q1fZwOuouK8YhA/0QyYi4n9UjMyLoaSwzcVhVuW3UQZBXJj24dbT8U/TLzmQA+sWK9YY7Nmbdq0uaDiwrJldzfHeipaovXQxPLlP2+EBVYuZFkrRQpcnSdNmvQayf/+/e9/61ywtOLJJ4Yr56WXXiormzNnziQp4rdALFg6KXOq+fLL9eqnYP4GfOM8wffmzVvELp3DbcxJJdHgeJKcYlLc5JxhUqEm0sqJXDAXLFigC8Kk8NRiDtu2bXHK6hVj78SWdJ3t37q6gSFe1lQsZuorkulEL/nenDvumB8p8UJPDzzwwILVq99VvwhL1IKZnyfldZjyHsz2bNu2XWkHjzbawlARE/n+/PPPHUl0+EwZiYXFT0CLxCFbMFEcJZCLsC/DxfAr4OFlOsRJw4CpDoA992yvjjRGUPgknHrqqc5jjz0WKbIwYYov6Dxgx3mHHSq3ZwkIIwynegLOBX98ydIPZGVOwwaNucSq3wkEZI4vEC93G2Ekz8yaNTvSSw33pscff1yZyfbt29KeZzA880Kz71z4x3EHosXPBZihSwt8hQ6J5i5Dl/bee++lXRwtpIXBLcUR6GIwCMN2QC4Ufvzxp44YFdSRBiBkkziwf4kD4ztSAgYWqYfron3giGRnS9LprCD6cdnMNcc4/1+cVJVoWWgL0+fSw9H73HPPR45/rLJ4pXGks+Z4jJl7K3gyAs50g82Gv61bv9V3YKRoG7hcQnuc/gRBSNJDp2zRokUdrrzyypXsTCbKhOGu+eYlYGAxK8sRvl1k6V3UjY5BOcbgwI888n8iRyDImD179pUvvPDCrPXrS1I+LTb0DOeyBCl4hglR3SDluK4qBIAiEroiKujpDXeEgRhzME4LQ8l0gc1FX9X5etvpP3PmzBMLMZd0n5RNpWYEG49iJ9itrcjJmWeGr2pZUKCTzgNhwCuvq8VbMBph9cRwhAgBIwnUWRwb441Gqn0IF3MkRIyzj1daNY4gJzD5wIDn1aclr6zGBYzKK//qo4ca0gS/YLgvTiBU90HHSOzltGlX/76GTCEBMwMDS5cubQWhoodFB4uuHT17rS06aAWqTTlulcvvvPP2AQll1BwMUGAGXwPKY+FbjaiAQ5dX661oEynIpSkb9HjMc3tEILegOxTm33yzpeiwFA3LtWwgfEtQYaG54ALO+qGZksjpoq5h7hDfiBH/3nsflHHTNGU1KhBuoV6Z1YhHS7qLGgNwWQjXdLCWMajYhBv1vAL1h5M7XJiSrBaxgX9poE6SxkXFABVA8fSC8+KmSIEZggPI9VBUQEo92KJFC8upD4wHvxEyF4Aoi/+Veo61aXyyBNkFDYcoChMi7956661n1aZ5+p4LemA0EFzguLwRS1XqGCrfwNexhieddJJyWUKxiCuDA4eK7K1NeINY4byIDkRvUBS7Ns2vtszFiihaHebevXuXfJ2KfmGrvJhimZHb6uZ0kj3PW762rHmtmQdmXzy8yMWG+4D4kmRPxlaEmZeceHHWady4kapc8H/AESN54ocBPMUgXHwWIGLxHsuegLgIUygp8Y4adY774osv6jRxHlm16j31Pkue+GEAf2B8pfE6REePIxe5NOIHaREguuiiCzTkGl8HLm0dOx6Q1GQoAt7zGQIdL1Xv+UbjgPbhoosuiqYsUj6AFfNdEl7gqEO2FgiY1FKozPr1S0LYi7kOQccSV1b1XyBrEXpecXRXAq5TiV+8kGbdxahd8EgioiMoMpP2xccAFZDQ77J25M6wvHH4hRcfmiKPKBcyjQbFkQO9Ibs4yXpT5EXIczjjuKwl4gMZJeHAeXYb+PWiXtjQFWILT9WtqKfaBbJji628bpkXAy9TvF6QmMGDRGxIJxnPiI8rOgEXBTMI+XjaIzLwDbfl58WLF7crCgDJIIXAgObLwDUSEQIRsNb58yLP2uTIg2YVJK+44oq/FgKjSZ9FxYA6oyNKWALEfCuD+oVej2uq2oiR4HASQ4irYjOxcnXJlVQk1wDCVT+UPjb98pe/nERSECJXCaFHXCDIc+TIkY4I+Ym4kAuRMf8/cWrChGYRio51dO3ataoLFg9Bp3v37qQ+eIwpQA/iv70KOhN/7hOkzUvZplavXoPPoEFqMUOT8mkKPVEOQmLk3hENx4NlcL+77rqrDxYukoSQqIIoX6I083msYgwWM2pIkCiChHjUIZg4caIjyUIKQrijRo1yX375RWfzlk2luEPkg7II3y1zdkjaCtelknw9NQCRckCyabYYO3ZsquJhhA/12mbNmlVBxiVoh+8vvvhcZWLSJZD3jocCUfgBW5R6NhC+/TYVbcxjUceWm4M+hIZWlHXq1ElTPUFYEDDVdwAg3yJxeNbb4ERO8LvULHMk2tSR+KdICVfKbA249957H5eQd52seKg5O9xvsxJvrqQXEa5tCbqSKJWGFDT8Si/HlnaAZDGSOtSReh5Lp0+fPj5KwEaMGOH+6le/0vB31luSVmv30BERMxCsZe+BFnKFvjdu3ERPaHI18GTW+ePvWoCyZ8+eLrVvcbawWHkGggvzzU0SwmYwMrCQE8yqN2abPJ0DLP3SB49YY7YKoeXH0isNSs6Ahx56SGGFy2PCJE9ELuKNcuHi11eZs2UzlTkbKE5YO9YWooGwWBcyMD744IORMhFqhyxZskTFBiqAZnJMy+OQGUFjOdQoX2Uc1tqR78Oqo0L8rCvZf4Cfn0lPVkYafxl0A/+wWCSrfJgqAL2TJpFg99Ixu5cPR0K2h7a8ByeXbCpO//79TxTi/WOUC02i6UceeSS9QNjfyf6j1Sc1yV7t1NzkxqHQpCTak3Ji6aw1MBEIxypakopL0oU6svEjJWBgI/T9n//8R7qmXuYpbgUjoTHjyMDE73yM4MmYA9dlwyGG8DP56MSbTTL+POdI2P0RCjiZ+J555hmVjSBKiE6cj52HH3448onlRry/FpYgkJOAnQuCSJIMQuC8nQ7u6K+jWtqqXlkD0Z9TDLCp5Jx7R/PGwaAgYmLQIBIYzIUXXnibRANPjSsahOmpWEt5XB4IHNHn+eczUlaRzt8cLviOO9siPy/5Wj2zssLr1e6K6zqUHC6q6mDOJYQH3BGL5qktSw5bdQBYSn/sAqwvtoHvta2oqJCIhqZquoUw+HnAgAGxPHe92gQul02sdugZOT1iuwIxAgx9LPgCbxAG6ywaiFjiTjLzq98L8OJGAIOqLjM6OjltgAXM7NVxDLAD4YSj2IQ4NWJEH7EHBS6Gbwl+CbbmcQSaJCZsMmBlzT2fiqpBFfXJAzTGzGcJ07zJxWZuXNJsNzIhjr4hQ4YkxBtghVBrZTpIgc8zzzwzVjiEYK1YpAV8cs/JOk1UZ8gV2KwhZLgaiv8AuCl0Uy21ZSZJCLjQA9bG/jm5WGNyMZBvLE53nGuvnf4AmSYhWpgTHNirR+FrKdLOM3TCx9dbBW7EKcAFgwuHiQxSkuDVAg9bK7v3imLrcQzxwqSQgeMwWWBiffEZRrTxfIb9gXbuuecqtSMb0YF5gPl7uzCtyBfAJmIynAgcdVLrIhbILsyMC9+rVVaHq0EsMAY8xAo/cvUjoBFBaUAiPzzUgKlbt25VwpRNjwvhql4Q3Rp1DPB7EGtZ0XW/ktXbxbRsdnMLvxZHn6LDUsqFLcTYMAR0wVjFsFJaAj1xpio6buH8WGMxjKG/R7cL7YmFMBQsyuHgwuLYod8cL5hkC4HIyn2SdduryqliDDAgm3ESTJ06tW7n7Y9oAby1VNkSXHNEc6vn6PZK5UY0UvXdHHvssWn9Myc9pwDyOGt94403/qS6N7NS9JQpU1wxH+suoBIhOxSfBaIfeOSI0covVmwFLo2Fi4eCGtke/COsToEV3sDhwlJmrly5Srk+bpQkJqEMExYiiqZQginO1r+Cr3bEA6DnZZ1F9lUOjIkdvBs3xrmHAib4uFiBFv6Xz8N68jHaga5w6jHLHyeteDw+Iy6X1VYsysmOyUcl/r4dAZxJcGRDzBzhEFeqLttm9QAyX10cQST7Y9a5MXmr00VDI2Aj6J133kU3CWMxBm1xqxSPKOe3v/1tTrjzQWxdfBeN0n333Zd2vMLkDs5hMnzbg/8L62tMKiyuYIQWBobvAg99w6BwFPPjxOWbCFBb4M3DpPiYLIxMwsNkIG6IDyeKXJyXd8zDyFwn2X1GxFIBUScDZ4fb0kY80iJ37gmL/Nr4HqVvr7vuurNgVFZrz+INjanAdFh/ZON8HrzDuENBwJzq0A/yLr41fu9VvokXQFFLSRHAciIjmBQsHyI2Dmw7NPV7yg+zusd8MjP9NA1BKcJ2VITguBo0aJCzfPnyQLDmg9i6/i53DTndlEBZJy5QrBMEDWNifXNVsMyFQ5zAqNfGg7jAOg8cOHDNLbfc0j7Xu/b/0ATBBLkNIpvAkSFm5CE4J0SobolZHiN+48BwVhDCDuTTsWMnXCnbix9Duu6x30kl7aLDgNT/dd944w0N7+GUZd1YHwg5n4d+KAsgKtDQPt7/HyeUIQAgMf4UAAAAAElFTkSuQmCC;fontSize=17;" vertex="1" parent="1">
          <mxGeometry x="720" y="475" width="83.73205741626795" height="92.34449760765551" as="geometry" />
        </mxCell>
        <mxCell id="otfmwMb7wzkigZNuvZXS-90" style="edgeStyle=orthogonalEdgeStyle;rounded=0;orthogonalLoop=1;jettySize=auto;html=1;entryX=0;entryY=0.5;entryDx=0;entryDy=0;" edge="1" parent="1" source="otfmwMb7wzkigZNuvZXS-35" target="otfmwMb7wzkigZNuvZXS-32">
          <mxGeometry relative="1" as="geometry" />
        </mxCell>
        <mxCell id="otfmwMb7wzkigZNuvZXS-35" value="Test" style="shape=image;verticalLabelPosition=bottom;labelBackgroundColor=default;verticalAlign=top;aspect=fixed;imageAspect=0;image=data:image/png,iVBORw0KGgoAAAANSUhEUgAAAL4AAADBCAYAAABxAAqJAAAAAXNSR0IB2cksfwAAAARnQU1BAACxjwv8YQUAAAAgY0hSTQAAeiYAAICEAAD6AAAAgOgAAHUwAADqYAAAOpgAABdwnLpRPAAAAAlwSFlzAAAuIwAALiMBeKU/dgAAAAd0SU1FB+kGERE5Nkag9NQAACAASURBVHhe7Z0HnBRV8sd7yEjOShQkKaAIgvLHU4KiGJETUAEBBVQUFSWIKIggKkFEkgIKZ7oz3ImKOcApGFDPBCoZAyqC5CAg9L++b6bG2WV3prunZ3dn6f585jMbul+/V69evXpVv6oKWZmuESNGvPHJJ590eP/9960//vjDCoVC5lOqVClrx44d5ufgyr8UKFq0qLVnzx6rcOHC1p9//mmVLVvWqlKlitW0aVPrX//6V76Z/AwDadSokb1mzRrD8DA6A965c6f5lC5d2oIo+/bty7+zHozMMLtt29bBgwet4sWLm++tW7dahw4dMouhd+/e1sMPP5z2CyA6gJIlS9owdcOGDa1NmzZZBQsWNIPmU65cOfPN34866qiAPfIxBWD6EiVKWNu2bTOCDunPYjj22GONANy+fbvVvXt3a8aMGWnN/KbzJ510kv3tt9+awW3cuNEMDonPoGF4FkGhQoWMmnPgwIF8PO3B0JhvJDvzXKxYMbMIEIj8jW92/l9//RVCpTfjT5gwod+QIUNmnXjiidbq1avN6mawLVq0sNq1azf0tttum8AoJ0+e3Gn//v3HyoJ4K2CP/EuBvXv3Nr311lufYoT33XffkK+//nr84sWLre+//x4BaW3evNkMXjQEa8WKFenL/Oj1NWrUsGUl2xUrVrRlTDaLIf9ObTAyLxRo1qyZ4Q0599m1a9e2Zffn9/S9KlSoEGX6unXr2ueee256Dyh9pyJP93z69OlN4RWEZIECBeyjjz7aHjBgQNrySoHff//dHF7LlCljbdiwwTrttNPm5ekZCDqXKxS4/vrrv8Cyg+5fp04do+eL6psrffHjpQX0BM/BhUFVqlRpih8NB23kPwqUK1dGTN17xJ+DxaewtWVLWN9Px6tAOnY66HNAgWQpEDB+shQMnk9LCgSMn5bTFnQ6WQoEjJ8sBYPn05ICAeOn5bQFnU6WAgHjJ0vB4Pm0pEAhv3v92GOPpdSNfdVVV9mPPPJINcGUlBX80CaxLZcoUqTIev7u91iC9vIxBcSOb4vzyq5evbotjGTjoXM73GnTprUUIJstDGgLlscWOKtpS0BOxivM36RNW5CdNvfF+/Ac/8c7yDe/84m4yE3btMWnatWq0Z+5d+rUqa3d9j243zkF6tQ51i5btrRduXJFW+z4dufOndJW2Pgi8Z9//vmPQfUJI1q7du0ycFaQfaA5hYGjCE/+BtIz3sUzQGP5cPE8F7/jOQREBzRacEXWL7/8YlCkDRo0sECXCqhqsdya0h3HOZsEd+ZlCvjC+F9++aWBPMCkMCWBLDAqmG4YHYYH1sqCYGEkYnwYnI9Gf9GuLgYYH2QgLvOIp9ni/fydwIngCijghAK+MD5YfRgephZYq2F8ATFFmZzfYVIgrdzrlPFV4seGO7KAfv75Z9MEmBFtu0mTJtZvv/1mHXfccfZFF120VWDU5Z0QILjnyKSAL1YdGFMlNAugVatWMCcqh/kIDigk/w899NBD5WUBhOJ9BPgUEult7ufDz7H3S3CMaXP48OGzAdixmAQmawlu3ATOEDopTF9Odpe01T+PTFbM2VH7IvFRZZDoqCRI3TPOOCPLUQwcOHCrX8N7/fXX+7G7CEzWWrt2rYkeQ62iD+j97CzSFzuyUPx6bdBOPqGALxJfrDlG4vPh0u9U0UgQpPby5cuNrs9CE4uUCYhG2qMKETqJ2sUO0KdPn0Dyp2oi0rhdXxiftCNgs5GyfFKZiYFgGRiag+zu3bvN948//kgcgdWpUydjQWIhon7VqlXLevrpp9N4eoKup4oCvjA+qo5eWFdKly6Zkv4ef3wDe926NVb58mWFsW2xJJUyEv/CC8+33njjjdD8+fNDPXr0MIuQPrELEG8QXAEFMlPAF8aPbZR8U0hdN9fIkXeMSnT/0UdXlkwQK7DaiITfYKxI6PhXXHGZ9fLLr0Rt96TAwPQJ8/MJTJyJKHtk/t93xi9YsICjFCQwe8WK5Y3ndebMmXfxXb16VbtFi+aH6eTHHlvTxnpTqVIFk82NHeXnn3+1/va3v4kq81d2r0GDbtryzjvvmEXBAhC1yOwIwRVQIAckfiihxO/Zs7s9ZszYuziAivvbOL+qVTvG6ObffPMNfYwyf4MG9Ww8tORzQY3i4Mo54rTTWlqvvvp6VNLPmDGt0ZQpU8pt2bLFmDhJl7Js2TKrY8eOwawHFDiMAr5LfMO1EbhBVvSeNGlC0xdeeEEcXFUMM8Psq1evNYfRtWvXG50c3R1MSOPGJ9jr1683ZkoWB4daLEannHKK9dFHS6NM/9BDD7YZMOCGZeXLlzfPI+k/+ugjA2t46aWXAghDwPipZ3yYPl5i2Xnz5n2+a9cewdlsNKZHVBIOq6QnFNUniu8B3rB8+TeWpLQwnaZdFsDpp59uvfnm2xmY+cYbb17IzoE1icWB1OcSyR8wfcD0WVIgJRI/Hq2XLVsu6UzKmA8LBIm/Zcu20D333NMH8+Rvv22ShVDeMDG7AveQ/mT9+h+MufKddxZmZma7fv26UTAbiwmMkFwB0wdMny0FfGf8RGnEixULIzdh+J9++tm6//77TR8GDx46b+/efSH+jxkyNk/nhg2/WFdf3SfDQXbYsCGfsxE0bFjf5APiGXYEsDvAHOLN+aRJk7qTDYzngU4DzQbiAOQZ6HQqP/oe3tmrV6/AuZZLi9MXyEJs31FJ0N2zuzB1ouaIBUdUnYKWqD64e6OMKpj6UjfffPNOGBjP7ObNW8T72st69NG50XvGjr17vECQm5YseZRJcosVB92fXUJMnAklvWB5nuSQXLNmTbNoSIeueYVYkKm8MMGixkGjf/zjH6l8VdB2HAr4LvEVN5/dO5n04sWLGt0ehn3vvcVWt25dopKvb9/+YuzZE+JgCuOLiXLr3Ln/iFkYU1rfccfIIQDT2BVgYPA5WHxQc5xc3IdFiW8wPjAhP+sCUvhFKr7ZlXRxYZ2aM2dOarx9TghxJN/jRwSWSE5b9HCTT7FQoQJ2166XZruFDx06+FliTapWPVpUimJ2zZrVjcrRq1fPhNv+o4/OFp4pFH2mSpVK8s7Kkuw27A/As+tkLq+77jpbzhEmyovniO4igosxJIoQS/b/0Ejf2bz54T4LJ/3PrXuCCKw4lEeixTNnjh8/sWuTJo3sr79eLqpGdeNdrVWrhmz7T1j9+l1tz579aJaqyuTJkzpdc801L9A+HyxA2OsBqLF7cFh2mstRHGYhYoPXrVv3H4Yi/S0si2CPfHbLzlEplYwlO94qccKdV61atVtEpXslle8K2s6eAr7r+KgdidCZwvShE05oaH/zzXcCQahtTJlYZkTfty644Dx7wYJXMzD//fffe/OgQbdOZqGg0mhpGlQGdGYu1AasQk6vSHD6JU7v9/m+QT63FzTnkgK+6/iJmF77J0wfEskvUOJ1JKoVC89P4sWtbL311ltWy5anRFWWcePGjnrggQcmN216oom8gum1MgcFydDV0dH5ThTd5ZI2we35mAK+S3wtHeSEZkh+dH0sKzA/FhqYGNjCySefJDr78daIEXfIwbOQgUHwP4JMuF9MoSFxZtkffvixWTAchIMyRU6oHtwDBXyX+Oj3biSvgM1CFJwDcYmFBWkOolLKzGC3l7ja2saBpXWYvv/+R1F3DhlVSCw/6zCJIu2x7sTCo4PpDSgQjwK+MD7qjaYRUVOhG7J/8cVXIXT9lStXG3wNh1T0d6AMqDeKr9+4cRPNRvV/QV7WZifA5h+UInVD8eBeXxg/lox//LHfk8ohun5IIMkCTfg+WlyYxQRWZ+vW7UaViWV6fuEwyz0UIcYG79SOH0x7QAHfGV/s7AmtOtmR/ZNPPgs98MCkBkh9JD7fqD033DBALI/fH2bmBNMjao858Goiq2BKAwo4oYDvh9tkpa6YLVeqZBfwmhnDqlUzshwL0p6SNJwBAKaRbiS4Ago4oYDvEn/37r05FueKTZ/zBQdqrD1g9oMroIATCvgu8QWG4OS9vtyDGsQHSc9O48aa5EsHgkbSlgK+Mz6Sd+nSpRa4GeJjYUxUEgJENAcmaEiYFYsM/weCgFUGCILa63mWjyaHUkuPBrpwBsDTi5Tn4EvbiSDRsbPUvn17G5Mp79M2BWdkFSsOOtMR5CcPTrocg2w28ew3ciLUunXrNkIy0Y3LgwPIsS75zvia0VhOo+aAiv0dhlRoAUwG02tEFQwP8+F8wg6P1KZ8PBIcpsZUiY1ezw4sBs2YxqLhgIvji+fiwaFjKSql6W2C0uvVq2dy8nCRg2f9+rXWUSXYsfIv469atQp63SODDBg/2WUG0yKRYULqoMLUmfVtzW+TlVSGqWOdT/osC4L/xR6YaYfDLIsBcyYLClOmOricjIXMC1iMOCOwYGiPBQDgbdfuHWnN+Lbx7WUv8QUcZzzfR/rli8S/+OKLrWeeecZIaqws8S436khW7eAnUKmvMAUcW5wtkOCrVq1JOKdkXSPgHdVKHW4sHPpfsBCMk74SP2RRfyB7xmcHPeuss6y33347IZ3y8w2+MP6sWbNCt9xyy0ZRYSrv2RM//32yxGRXgfGR+KhSWmxCcuw0vvbaAcudtC9MHxo8ePBa6W9tVC1UJaQ/fS9foayTJvLsPYkYH1yTVLBJGKWWZwfoU8d8YXz6IgjKKj71yVMzTz31T1fPTZw4sY6rB4Kb8xUFfLfj5yvqBIPJtxQIGD/fTm0wsHgUCBg/4I8jkgIB4x+R0x4MOmD8gAeOSAoEjH9ETnswaF8YX9IA3qz5YiR3veSnKWNyx5QqVcJ8k2uHb/2Z371+ChaUUijSliSlkqrpJU2FbX6vXbtWunqdAi7MBQr4YsdfsGDBZAouk93sxx+/j6T/LmQCyMHVaLVyvKROc99kRwvgBTicFPymCWYlUIVc+/ZvvwUZknOBj9Lulb4wPlkRwMuAnQFnA/4FjyjucUBrMD/fYG+4L5lL42sJNyQdOFmUyad/zDFVTAiiMH4yzQfPHiEU8IXxQUUiiQF/HTr0pwkDBExGoihNBb57N7BkqqX4o5EAc+adkp4kiu4EayM4FLt169ZPjR49uscRMofBMD1QwBfG14zF4YSohawGDRpYV1555amS2u8sYc5/CqZmvTBqi5tuGrR05szplT30M/qIoDGb3nLL4DcHDBjwkwDjqhFviwrFQmNXodatALC6S8qS7t99990Rj0lJhtb5+VlfGB+Jr6kD0fUpygaTC+H46GV+vu6665OtxvYm7UjakWqkG5dEpiZ3JtBoMjLwfhbeypUrZTeoast9AfPnZw72ODZfrDoZc1j60mTc4UgxCPvVV181VRCR+Mccc4zJo88ZA9WKYnGNGjUyOXnIjOyRNsFj+ZgCvnNpvEzJftCxTZszbA61vIddBmn/1VfLrLZtzzTMjsrD/5D87ABvvmk2iOAKKJCBAr4z/qFDtue8Oonm5swz/2YvWvRe1GoEhp7dpkePK6yFC/8bWrLkw9D5559v3o/1h+gspH5wBRTITAHfGT9Opc9sqT9t2kP1E01No0bH2//97/smp77mydyyZaupgvjkk09H9XgJKVypZlPUHoLVgyugQMoZ3w2JqbAhNnj77rvvXiHPmcomSPXMbcD0pBGX2rfGZIrTCnWnVavTDiv9+eKLL9bHj4CFCbUn1TWt3Iw3uDfvUMB3iS9CNuHVpcvfpQyPZWs2BaQyFU64KMxcokTxKPOfckoze+3atcY5hWpDqCFMf+aZZ1offPDRYaU/aRMnGXo+i6RFixYJ+xPccORRwHfGx0nFoTPeNX/+fAM5IP89lhgCvYE38BymUbKxsRuQI3/ZsmWGkXFY4RXevn2HdeKJJ1pvvPFWBqanNhY7Au0g5dHxyd9DfO2RN63BiBNRwHfGT5RFgfpXdApmVscXTP3ttytMYij0cwG3GT0e9YbdAAcVTIyZsm3bNpYUgzhM0muFQqw8SHsC0m+44YYHExEg+P+RSQHfGf/gQcrWZn/B7OS0QdKjsgiq05owYUKB224bumTt2vVWQZH6xQTns192gUKipxcQ3YnPd99+a7Vv1856991FUaafM/uRIkcJSrOoeItLyEIqFVk4mDLHjBlz15133hnUmkqSr6Wwtn3JJRfbZ5/d3tbSquyonJ+WL19ude7cyeZz4403pJW/xBfPbSxtserEq4MFiIxzQNWqxxjml+re/a++uh9EO33ixPHdx44Z8yTtgcPBG8tuIHVvrfPP72gteOW1DJK+X79r9lE8gp2CtqS6iqQHqWCNHTv2kkGDBs2PN+eSg8embdCiTOhxxx1nbP/Seyk9EX/xZttugvR9PAd4T8F83bt3/0Ig3ScnyZspeVwqUdoIqX//+9+SiZokW5YxLqBCarpGdmDwWJy9woWrC9untWpp/XfRkjyvXvou8SFQIidWrVo1jY4PQQXZOUtnbvDgoU/dcccdPbZv32lUHpiS74suuuAwpidLJJXNmQR2DgjPAVkYfkIippezhU0qPdQhnuXswCRyvuB9B/+0vX14NsGHfiIY+JaSo01TwrXJN2qTdh11lDmoUaOa+TA2LGrQPDalI/cBSYd+H374odXtsr/neenvO+NLoEjcwy3wYaQElhrK/8yb97h17bX9o4QaPGTYU/JLCIIjkcnS9uJLCzJIEJgeJof4SCAYF6mD5UcWztBE846Ex6tLciU+qF4gSmmLbTyVH5hDq6lDh6lTp7ZO1N+c/D8VJytUKBexnm0D72RqD2Ahg75ARBAWzA90Zzycq9gtWcxUonzmmX9LnqWJvXOy367f5XdlcyKkOnW6KNsVL9VN9rEpUNWcwBEqk0sBN7t//76OpERZsfuXkGcric2/jERgVT2mivmuXKmCXbNGNUdt9O9vFpr5iHnUfMtCiP5N/5eKb62iznsbN27sqL+uJzW5B0wEHRXnUXegQbNmTe3q1auyw9r4VERgmbmjYqXUJ47OIZa1atWrmA/3JdeN1D7tu44P3j6ejj9t2oyiUuvK/uqrr4ykQGpgm587d651/fXX2dOnz8xWP0TSI1WQ1qgp6Pb8znmAaohCbKFW4oSopDwcP378AJFSo4BMi0RrKd+2SPxQotyfiacj/iYqgmapqIJFZLfaIGeRCxK3l3N3jBo16smpU6eY3U9300GDbto/efKUotqL5cu/zbJDV13V237iiSeMpa5mzZpipcv6vpwbTYI3+S3x5eBqU5080QBV0ovqw9ZqPLjsAu3btcny2YLi8CovkgjJXkukEZK+pDi6kPKFJYa3uUgldoNE7w3+nz0FevbsaSQ8PhS+kfBO6TVhwv0380zVapXtIkWjMdZOH8/x+3zX8YsVK5rwcMsof/31t1Dz5s3lULnR6NRaHELMlVb3Ky7LQHAYG6nOPUiiH374ycCPgSNzDuD7f//7wiIFdnB5p0DYYmNFzk1h/4nTa8iQYQ9SWIOzVv36YejVo4/OLuf0+Zy+z3fG5+TvtNDyRx8tDRFIAsGx8oS9rZVMCu9L/36JffNNA7cg2alsqAdY7uHaIIWhO3ToIAetrUa1EpiDsToEl3cKIEQQQhxmUSOx4Li5mCfa+OGHcBy0HIJ7uXk+J+9NCePH0/EzD06cViGsBeiGClvgHgGbWXPmzCkHM7M4+KZd4A33339vH+4JpwovbGzj7AbJZnDIScLnxXfhKdcwzg0bfjE7qZurWLEiRr8Pz81ON4/m+L2+Mz4qSCLYQuZRUsMW6YJ5jwuYQo0aNYxXl60TUxpOHxhc8trPGDps+Dzu43DM7qKRV4n8BzlO3RS/cMaMGY0EhGcsUvgmBMMk1rG/TMNuX49wwUaPEMEs7UbV4V3cv2LFykhamZAU6Vg12W0f9P4uXbqINamZ5E0qKhaiRuI9vsTxecPRO/0+3JIoChe3o5dnuqlx4xNsLDfVxExWUQ68pSUh1dFVKpm/ofKMGnlH1NnFo926XmoXE28h91Wvdow59Hp5bzo+c/bZZxumEJXExkTKtzCeLUxry1nHEx1OOOEEk6QLUyXmzFatTnXVDqja4+rWskNiiOBgfPnl3Vw9zzw8/PCs2iIEo6Zl2UHMz5qwzK9QUt8lPlgdN6pOLNMtW/aNVCq55Qsk+++/bzWQBdrq2bO79fMvG0Oj7x7bP/b+cO2rA0YfRdocKRJfjAL2W2+9FaUzheugBQYATesiTjnXTEe0GhIfPZ9dFm+smwuVde3a70U1rWV27Y8//tjN47KbD1177bXXrmXH0TExp5z/2NXpz6OPPmpdffXVrseWuSO+M36hQgWTqjc7YeIDJ68V1Qfv7d4/9od+2/R76PEnnsrSto++TzoTFgqTdiQEnZxyyik2FSVhMhCrMBjnI847MD9/J8sEggDpP3LkyGcTcd/tt9++UArfmfKs6rWm1tjTT//LFebm//7v/0QIFTcLEnUX0GHTpic6YtJOF19qS5Wa2qi3BBJhxGARAyVhTBg3tJ6xQD1A3jpqN7ux+874buvNJpqUeP9nR2CiwrieP12fLZJ5d248i6776aefmnFCZ8aPBUYWg3XVVVdJVrn1Bk5AZjt17AkIrotgl7Zk1d9zzjlHAoIK2HJWaAMN1WTMIhJvreshPvfcv6VrIVNBEkMDkBQsPHLoteWgbLPAsmq0VavW9uuvv26qTrJgOethHeIjZxazk8P0CpHg/Cd1vKy+fZ15+7MciN86PvrYhReen9RqdErxXlf2MPp/7WNrGv2es4HTZ9PtPuAN6PAy6TY6MIyERL/ooozwEKAQOAdlNzD6umBpBJZRxJZcR4Y2YikredJJTYzeTOJd2TGMTi9SVZ6pZJ7lf17p83cxQ6PfA3HAKUkfBNUp7zJRdabvnE9of8qUqR2OP76R3FNW/l5RfDUV5Jkypi8RCEm0G6LmmDYYFzSQRWra69q1q6e+hmB8tha2TIBGU6ZMOfn666//ws3A6aiaFEkhSHtI4sh2a5pi1erHTduZ76VtJIFCkRUjTttYeH76yVkCKRgBwBUXUpLxM4Z9+/amFJasibfq1q1rvfLKK45UidatW9mEZCIR2fr5XrduvdWhw9mHRaLNmDGt5bh7x3686bffrXLly0hcw59W4SIFrd279lp/7NtjFS0i/o5DslMWLmaVKl1C4h8KW3v27rL+PHDIzBv5ie6666558jEmYy+XAAttzNGA/xgvljmNoqM99HXdrZkz1RLQ7TlbiDVHHJL/O4w2LArmXp2d6P6oeTfffPPWyZMnu3I6+ML4nLwZCAOC8RmIftj6NDqK70RhiYkIraoN7WjF83Bh6T8iW+LWhMwkdW4NI7F46B+TQv8PHjwQYXpPQkS6zv6D9hhfg0SlQC2JFFuO218sXej0oCDpI/ouBZpbthTc+3/fz/bZkqWKCZP8IWpQM8k79JVZ1DwL43BpIl9wOfv27ZeFX9KqXOloyUC3OiH9Es0R/580aVJ3CQR6EpULFYXzmM4Tc8gi037oYuCM0bFjR0tCU7PtAxYrFgf+Auaf9uG7oUOHLhf8VWMnfeMeX3R8PYxw6oaJWIkQmr/rAoDQ/J7sR7Mv0144SL2imUSkCgzl5CJyiElAcnKAYlLYMf7qY2Hpp5ePs/HxHiaO73gXUU3At6EpOjgMtHr1WqudRKLFY3ra3LXzj1Czk5tZSz/+n3V8w0bWUcVLWhUrVJaotiJmF9jy+zZrx/Zd1tFVqlq9e/Wxtm3dFfKL6Xn/rbfe+pQsspDQNcShl0VLQW14A4Zll+Vv7LoIAejPffGYnnZl0YcQAuRI5VK9/8EHH2zkZO6j9/ih41966aVG3xKmtoGm6ge4sf5MdA4f9M1kPrQB9BlAG/BZSSMYtfmec05Yd0x09ejRI/oMOjF2cHTHaL+KF7KLef1Ie7SZ3Qc9HZpDL5nouP1FV0YPB/6rujdhfonGF/v/u+++ay66tkKMmRPaJXvFmDGjM/hF3LTr5d7zzjtPxlLV6OrQB9UFX4TEJ9hSJ7mLmzax6zNvEjln43+AnmTKdtqGL6oOLxP7q5FOO3duz2BPVwuEF49uVoNgtSMx2LKR/qx4JOLJJ5+8dNy4+051OnAJ+7OxFOhWye6xZctmo1J4Dj3k5XZ8pLfa2dFjZ8+eHVet4GCIKsJOypgl/blAOV72rIrMmTOrstCsRP/+165zSqdU3ScS+nzpy1G33HLLc17fgYqN9YgdGzoRPuo4Q7YfEt9rx4PnsqeAxB8PYBkR0EGwB5I6oFdGCtx3331DoBGWIiAbWLkc0yhgfMekyo0bjYkR9Q51pU+fXs4nNjd6m8PvxBSL6oTzDenvxlvty+E2h8d7xLyOAG8OgRzgObg//vjj1jXXmIwUR/yFdQcVB6MGKi+OspNOOskxXQLGd0yqnL8R682BAwfNmQlzLQsA5h858o4FOd+bvPNGPM5YgzDPYj3kvIc/4J133nF+/glUnbwzoVn1BOcVljEsO6g9fCSXkOBazBngiLtuvPHGQ8As0OuxCmEhwjt9xRVXuNsJA8bP+7xDBRhimY8VaAbwAsyRkfq+eb/zPvZQsmpPx/ypkA0QAywC2RndMb30KVB1fJyYVDX13XcrQ0cdRQKubcbpA4IROLbmIU3VewW+0oEAEOzk6NSSg8hge5CyMBwfDpRiZrUHDhxoY6JMVV9oV2AJA3CAofLh0MNELhnxJK3ku85VHO2gHxIf4BMp+UjRQTVz/SCZYj/8nWCFZD5IvUgacQOA0irqEeBVKume623jtMOhxZhReaRDdiS7gW99E+bqBNaGwBbax+GmagXzy9/CQLijjTUFMBlSmL/zAUwmVWlcS+BEA1AnqeD0jaMUkBoLMdFz2f3fFwcWHjMpsWkcCDiB9FKnlYKQFLfjtbM8B56DgwwfnFe0TawojgwcPStWrHK/+pPpUA4+O2XK5E6SDPeFcBxCGAQI3khgDL6MuW7d+oKD+TUKPpGhHwAAIABJREFUIMOpx8E6jME6ZGhOTiMO2vxNY5wV6sFccOjESYdzELi0wKh96Rv6fDiF/G5DcWggP3tu2xdVRzHiWsyZCVGcDn+LRWbGAti8/EzwBcRnIvAUg1YkzR24m/xe70pKqM5v0qRJJJV6KePNxaqR7HXG39oJvLuwAX+xoFhMeMOhMaoVl1qWxDMqyNB1BkVJzLMyv8bqYmnhIoLqyy+/NI+OGDHijWT7qIBEhB0mXom9fiqZNn3JpIZkIAclAQTkZYFg2Ff5aHYEJZ7bQPSsBkcaC9KJADRj5YNWRPdDIrRocaot22JjKQC9PBnC5NVngTN/8MEHhtbQXaHVXvo7fvzEAdOnzZz+4UdLTIB4SPJAga5FgqtUZwGgR1PEQ+Z4nQiYgcLku4Xu9UTQ3C8Z08pRU5iFEE7cW9F0BckM+pQd+p577ukABl/CJT1LaPwYjJUFyOKSuX/cy5ij2ogfeHy8Zqz+cArsnUYCS3RMFXEqPMaLZIv8hm8hzEnCoF9S5RziycS9DV5DVvPFYEjk+kAWSyWthC67xiY+MhHbhLCDRa8cTTvC4K8JDnv4s88+20kSU5kcLrqgiMRi4cEgUk3FM6GTIWoqn8XCg8RFnUDakoCWWGW375RUji0HDrz+4zJlyolzjLA+7OKlDeYF6UqU0+WXX77k3nvvPd1p29dcc429ePF7kjf/W5MfSdOHhyvZbDeCiURiTtvLdB+AtGjSWgnAsV566SWvbVkQ0NhDOahwaJg+fbrrmDMYn8MGBx6ibbxE17slBpkcqKMFjoU0hKAPwbNg0xXpZSwPktHL8+HHbX9y4v7hw4d9zuEWGmPXZ7yXXtrZ9RhFAt+DRQZkI3MHypH5Ry3hbw8//LC7KPNMgx879u7pQCwwudatW8eYYEHRkiqSjxdaSfyB4VMOtMAUIodvL02Fn/Gb8SFevGzJ3nv615OR9s3kw/xq2QkzRBi7ETkM2aLyeCK0H/30u43mzU820GmYCCcWtPb4DgPDRjgw/zARAkNSrPvqEW7fvq2xQqkFit2K9DMsBrf9lthhk5uTftapY563JVLQdTvR9/rN+Kz0yy7zFgfphBjnnXeuGfQZZ5xupAemTcqEsghIX40kA9+NyQ1TG/GZTtpNh3sw3zJOJCjj9mLHhy4K6sImzy7PIkjV+Kl9gBmbPjNftWvXMvPXoEE91++kn5hW0Swwayazo/ti1Ykl2o4dO6PhbX4TE2Z/7bXXTTjde+8tNs1TIRF9XsoAhdasWReSDFzRWrjo+hx888PVrVsXg81nTOq86devn6s046gLHFxxhGnUGlYyOS9515UTEFcSREmupMFPab85AEtQjTFB9+59pSvmb9++fTR6C3wOh2r8Dp7m12+JT3QUk+SpM3EeOvXUFkZSIDnQ65Ec6LiZHVdyGOvHfaTi0Mgcv/uSG+2pnqyQhWqSOc5NP6gHAF2Q9jickPxkanDTRjL3Sr7T23k//UY1jexWrt+PqoOTDF0fqS/1jl23YcbhN+NzoHGq6lAgAmLwDAdUdHTJmnbYQJD0eC05wKLWqH572mktD7sXYqCzMi4xxdkNGzb0RphkZtmHZ6VAQ4d7773nHlQFdPsw01Y1dAK05haezIEfFQFPLDADfr/tttvcpTpLclxSwM/MHQKLsxlpCiNjc9yyRNqZueWjVWxOP/10W3aVtePGjRsFioBPwgb9Znx0z0SWBgmifoGdAd8WkxnO61LaEIIJZmK142eeafLBGKbXYhLouiyGzIPjOaxLHHAjeqsNhDUhEXLxBnJBRs4helg1B0LGzIeDrFpH9FDLAddNl0m5xzxzKEQYQBsgJm7a8OtezoCcxZhvJD8LwE3bM2fOrE+klWSLMwKOBcwuEBagRTUKKwKfCeOKGGskWuuvV/nN+DB0x44JmU0mu5qpvAHz83OYactEDz+oMEgI/T8HJKQdA8RakAWxjPUAxueDVMNM54aoOX0vk6KYGBgSNYQxcAiEMfjmMAt99FDL+KdPd1cwjkMsiwvVBhUnGYxLsjRiJ2MMSH4EHos8ItwcN92tWzdzKGc8GnnFmJhz+JnFAD1Bb5KIS5Prxgaj+364Ba4QL4fliSc2RnKbQydOjUqVKkrKuQ3mwIZTBg8gkUfff/+9RVo56uHiNidXO95K0Q0l4GBhhsMYklBUIfN/2sBRgpdPYKx5trI5jMi4oBceTtKN4C3ld9z/OAPxzCr+BbrgBRUcvljxBi5xzCVyI+3i4cbJxzcFNXLrGjjwpjeZQ+abAypz9fnnn7vqzjPPPBO67LLLDFxF8/ZoykQ8+NANjzPj5RCN15ffyaUUybCRGh2/S5fs65yC1kRyo7awZaPCzJr1cEgKv5lqiBpogbTjf0g+Fgv/yyo1oapJ7Ba0q6nlHOl5rsjt382RVNcG6ouEUrVM1Ru+2TnRhdnxGFe/ft4yBCMd2fnQh5GQEYSlf4Px0JJkxN7I2Jj/yCHdHj/eBI67vjBgsIvF0jCy0xupDy2hMxatSPp0owX4gtWJ7e3+/QfiZktjlQMyQ/KQkXfYsGFVJN0FnSk6ZMitiydMmNSaauW445GI3PvVV8ssYXrr5ZczptzjPKEFIzQ7WcGChTFxXSKQiV3xqChgLyNxwX0gTcGAhLP8JqcdFSlSzCRGmjdvXrYmQgmRM1JJC1gj3UmOKl7TQbLwp9Dv3r2vsrW0EXXCZs9+1DVT8MAnn3xidmAN0QsjWFd4asuvhyZOfKAKxgp2N0y0zLekFB8v7U9w+w5JkGvorCWi+PmRRx6pLL+fIPQ9VgpOzxVog3mP0rN3796271YdVlhXKdiQ3QD0QIM0R/pfkanQm0gDLA1RKwb3ZOUJRkdUbLqayJAguOMTEU/swaZ9JILuEEgDfo6NJ8jq58wxBpl/x2qCxImHSAQWwPvDCVsrezfJJRqo/J+DH04fnHroxX7klnfw2oS3cIYLJ7XlgFrBmKgTPuTxBuiNvs/hnp2BvKm+6/hUvotXhA0dHAQfqaTRayUHu0BMDbObS6TBqWLG6y8EIQGsiZyfP/8wMJJJHgo+HEmG5AYGTXvCcCMS0QcpCGwWxCFSHmSppunjO94HHTLeR8xtZvcQIFm2ijT6KNBfLWOEAy4V10MPPdQGoBiSlTnhI4UVUuascjMG4NU7d+4yOj5nPZK/pupC10fiA2fmnAQP+s74vCReEba2bduKarHZMN7q1asFXVgTZm8pJs7oyIcPHzF7x45dTFBoyZIPM08U7npDMBiMwcCImovRCfFIuAp2n0OV1tHSfOxMwvYdW7P9bNu+xcr2Ix7RpUuXGjVGFlW2B2sYXxOooqrJTrPOSb/d3iMHu2nMBXPC+OhXXrlE+r4i02fmEAEATVJ1sfDhEQwFvMfkb/X7ZUgVDV7Iqu0npLoJZkyqZYj31Vh3RO0hnV7l6667xp4585FsJRIHvTJlwgyvqaaJP+V9LASn5T4lWix000037ZPFIupvEWNBgji0tWePHA1Ch7IlS9x3RDIlP//88yHJFJxtG/RVq3twxpBFmBQaMrsXCY0aIfG50IG1Irzfc+6lPenLHDngno/1DavWqlXhJLCpuJgzeIZvFj+QDd8ZH+nC6op3UeIT5sccxWrXZ6hv1K/vVfbsOY8dxvzlxLoDs2/ftkOiraoaic17DsrEbpEwNxMmJ2qL00sCqZMPXXL6skz3se0idVCz2GESZU32+BoTKaVZqzU4yGtbfj9HNBltMoe6OOfOfbRInz5X7/f7XUh6mB6Bg8RH6Piu6jjtNMy/d+8+w/hII3RebPVz5861hg0dvDC2nZriwEE3QzIo0xPcgASDgfhZCwY4fX9u38cEsMvAmH6ED2Y1HmjKjoa6w7fXonypohUlRTWkkbNhKpievmtMsKqzBErlGuNHiBlCirMaMSnSMdCCUgSszcUXXWBPfmBimxJi9vrppw2G6VmpLAAEu2TZbStROG/+8MNPRndj0WjRg1RNlF/tqoOPsWPWld0qXJrF5wtsDoyFREXA5KUC2GSHQGjpmVALRfhMAtMcjM/Owjf0Rr3MbcYHVhyCoc1JWxgY7ysScNGiRcLcgxfCJOj1dJhLDr3WuHFjT77jzlGLZEIrIzWYVIoLIPnT4YIRWahMBhMvvzuraOFycGLC7IZaxYSzu8Taul025fvtFH/WLBx+pZDPrpOaSlxVKmiS64xPZ/EbIa3Z/jEtakVtDVyn4/xv587d1p13jugz/PY7TI0uqdnV9NChv2prpYvEp59qAEDSsYul4tLc8wgSJD90TCpqycdOUplRayfQbKrUPdrW3QQzNe/hQJ0nGJ/Oib4fQnJv2PCLwVbwMzZxdgImjU7L9ljl7jH3zFP6C97FmMQ4IJJeJF0Yn4M41iytByuFznxkqYxNsQvqwZYdNZLyI2Xvc9owO7SmJEEIkMkhVRdWHOUNaIEpOc8wPoMW+37o9ttvG8SWhK3/s88+N4cyKoH8unFTaPCQYb/FEkcIVk28foaAWHkwR6bDdcYZZ5husgBY4F9//TVZDYxnsWnTpoJNOtE+9dRTBZt0oeDur7E9RxnJOwSdaCadcxSqFVFLuX3NnDm9KWc65o3dnf6Jf8ezL0MqNM4l0xoZ3KTSjIEsQ0twPGCU8PEgODVBlpQkaus7ZAFwFRkQcoK4113b/3PqDFYVEFcFgTDUEGx/TrzXp3cYHLlmDgDmwAdoLVAG/V+kyoeBFZ97rok3dnX16dMnmgaQw648bEuUGtFQuXZFsnAYuILGYHjpDDk7GQ/wbg1KUXrxN+DJ/J8FADQEmkaw+/5IfKQJFgpWL3obW0tOXKKz1uI9SE22y1TqiX6PB1Aauj0mR6AWHHbJkcNWjHTiQjcllwz/h6YC5MLj7Yr5xTxsVEh2TgwE/Cz+koR4Jr/HG9vec889J2e5imacHLhxZLq9EBJk0kOKow6HjSBljMUGVABnRS6+1XQMjwjNjY/IF1UnktnKTJriyN0OxMv9JJuSABYzMAaVLjo+Y501a1ZIgsWNwCAFI6oaC4HtH9wKmc04jIIn54zDxMIonA1I6uqGXjCCJvyiDc5EOR12qP0999wO7GrRgy0qrRRovsTNeAjYQUjgAEXY8kEw8M1CwBNPhRRUO2iIIw8z+YQJE6LFAX1JGss2gl6OhNq+fauZpBYtWkSTjfJ3VqWa1uINMhGCSr2dSEqYAMbhZyaWQ/G69T8kasK8nkICwHM5F1DRXT2pLKRkLiqYtGrVar8bzzBhcZKKbzwMie7LmBiP1t9lUbAQwpnqdmvaQEfjjBmLBHg3MUyBlI0EpbhtIxnSEEQzQHL3TIc/YEoWYdg3Y3BZji4gxQL5tuQsZPhJc3iyK2KtYT7JAgcvaG1gKehdR6pyZjxD+BF6CKQXHSucx6aagRsTS0nyID7Ah4m1lJGZ4Ip4nyLUxk3wKSxtlhQsfmkJR+S7qIQt4uiq5zBREeFobJVAVekTsF1UCAIaEvUv0f9pFx2dA5ejmXRwE7gidH/CFIEXM2fEEzh4NHoLgRjAroFNk6WA9iLwaDfNJHUvMG8CjDTHDvEUo0bd+YKbRpkn5g8dnjMLZyQvu1dy4i3SY6QlWwqrbMeObVH8DSoQ0kUtCmpPTkbi0x6YC3YY3qlOIKQjEtPJhSkNpw7eYOO+llWKtQN9cN++5FCClSsfLbkjl1tffPFFb+lLHyf9SXQPuwflLJH8SDX6iSXIzSWoUaQqwsnsJujDVAcnGP+NN95wLHHdvDP2XgLMgaLDA/AJyFzoP3r0GMdqzsiRI5+VcFIDJ6cdVEKJZrNkx3Rc3zjaJz8kPtYGDffS9B9IerIDEESOlCTihk+iqubFJZgk3qes7BzsCFhzkPaVJYhBd4B2bZ3lWCEQIcIEJhSPD9Ifi0Ci/iX6P5KItpHSXpkkq+cmTZrUnR0JSc2HXSoaP+rwReLQ2kgb9I82yD5A5rmIdcRhK+5vo5gHkp6MGlqhHYuO25bY5QgeQrNg/IzDbRt6vy86Po117drVZPE9cCBcghGJyqFMc9lzcENaJ8KEJxI9tI1058yAnsrBFl2PIgTPPPt8osejdOrYsaPNAQipowcjpMiuXcl5UcnWLCmxV8pBqoHXScnuuUhsqdGLoSv9ll3O8ZhpV/BNpOs2Ox3GAKQm4xaTn/hNPnPVVqLxgbaUfDf7OJ+wo3LIZv44lMoiXCdpyuskaiP2/wgmdnt4i7MODk5Jme6tz35IfDedD+71ToHu3bsb3Rb7NFKPncpJqGXmN0ayj5nga9pC96ddwvKSzZSs7yKklHMeaVHw7SDpkfrs+t27X+5aUhM0j4RHp0fqs1MlVXMrYHzvjJgbTzLxzBmWNHYAsSC5ZiL6HXnOqDy0hYkQiYrKKsHyEhA0s76X8eEcw/MMk9JPknup8QNm7dzZfVpz+sHBniwRqDgc0JPOkBcwvpfpzb1ngDEg6UmkBDMkwwBico5mGqNNsg+zsGAsfsftj6RNVDOBQ2ebNm3MIoLhdSFhNeJDezCtmBQ9LVKozQ7HOQxLDu0PGjRoS1KzEDB+UuTL8YelSkmUuVBPks2KNnbsWNJ6GDOpZn1A5UH9gflhWs2fj4qBKRELExAK7meX4D6gADA+WBlMjjC6ZrCAWSNJaz3TC5WMftA3+uS5IX0wYPykSZijDWj1GdQHGM6v/P+oPsrsfMO4MBvMDcPxN5iOd7Lg+DtSmIXHt1qzUG20LCgLxa/SnzA7uweLCxXPq8qkk+ULZCFHZ/4IfhnqBJYoXP4aUaVIz2TJIomXQoIEXQpmCPgHHlEsMEB4sfmrBQ2rCu/Gd6PVLLGyaAFAfA3cIyZurEahV17JmATMaz+xQtEvvPRAE958801r1KhRT3ptzxd0pueXBw86psCVV5oiCkbH1aLKkcLKjttwcyPmaVSWiFoRPaxqim6kOQmq6BMfdgTJD2TSdbt5j9N7I9Bsc1hmd1GkJf4Np23E3uebHV/wEDboQRLCpvLCbo8NX8PIkALYsyVHOlVSvNl0U9lhH9rm8Ci6eBfs4Xg9wRgh+WQxWHLwzJExC5Bsp0jzkniOkfDgbNgNhBGfE29qVx+GmbAJrE0E0jD/+IWgBT4BuVzTwBfIAtYBMtHiSk91QDPwBwgPPIHtl62Zvy1evFgcGifZn3/+pWsiJKR4Lt4A5gemB/6B446gCn4WnTzHmJ7hi80817NR4axC4uN4Q93DiYUwEF6whe9czbsvOj6rDk+i6nyKn4FBmSSkMqtU0+ZBSFCW/B+kHt8ajaOZtTRFtiLsTAFiYXTa0DQZ6J7olKpjAuHNb5cwfm8WNzo1tELS4QF99dVXXU10fqGLzHcIAQDzs+tDE3jHbZyCLzo+zg/0TqwA4DK03Au6Hwg88DqRKicGC6O/K5YHz56mxeZvWr6T54nQAdUX1m8rR3VKPIC0Q8JY3sEzeAaJOMovk9y8eXNjIcFygv6Mvo01Jb+Mz+s4IodaY9GCPpx7cLy5se37ourEDgDsB9hoSdy/TlCAtUUX3ErVctmKimjFPZXySG4+rFg+XJquW//GM3KI2yV/LyKYnCLsAOiXrPZ//vOfBreCFQHEIbsEKaFpRsxoll8WBa8TlOxzX331lcGXg0ViN0OnTmWFwmT7m1PPjx49usfUqVNnDhw4cDEqj2K33nvvPedpWvyw48dKfFCZmVN/p4IgkSIRpmgCOww7BbgQXNqc+vFAgkFPxbtzok1wKFhNNCYX27Xkfa+WE+9Ol3cQTASN1KMbcZg56r4vOn7sm/78M5wPMpXXWWe1sykTJBWyjUWH8wVnAKl1a3Q+DtmEmpG52M+AkFSOKWjbPQU482kKdI0AdNyK3xIf3fviiy9MmaSNlAM10p2oLvR7IryI+tLaqXg1kfpIgEitW8f0yEs3otOjxzKOmHI3rrsIghPnF1AD6BFBOrpux48HxPQ5neAXMEZ8vFalVKgF9MGzDK0o++m4j34zfli/7ui8A457allS2xVgkhz06pjUFDA+C61pU4MGNJfkTJnFgQdMCW73iCvdxVvyzq1ZHW4j6TMcdZLdTgprRA0CMH1saVEWQlLeT0e9CN+EA07RnzjeOKQDgtP+UL/WaXNDhgyhlpEB6jHXGFU43EpZKedV5PxmfKKtLrjgPMeDcDrYW28dRGymKQjHNxYedHvSjWduQ+NT0f3SmfEj4zLMgWWHD9It4jGNS7qIhcPsFPXqHWegwWGalTeWMqxElOCBGflmF/AKRc6uI3hbAa0BR4YxOa8AhgPzozEFzBV9YRE4AZ8NHz58MfOvhfN0NwRZ6pSXzH1+ML4CpzArEXzgVNU577xzzWTEqipjx4w+zAV96d8vMWGG5cVkWQxzp+TKLyAZputKHGfmwSr+W+vGagIhV0TJQzdL5ujeWr9JA83ZyeIxSddunU2Qf53jappK8EWLFTRqYCiSAKBGzWNMdcmSpYoZ83PpMtSELW1Myq1be8P3ZyYZi4k+qKmZfmBy5j18EJAEnfN3zNWSW8fs4uwG2QWYSLGNF1j0zDG8BtMzv/Cf6ylLBePD0A46YvRyiI3KwsBZycTSnnZqi+jzPXtcYWJqNWMaC+Ao0elZBJnfwf+00rXqfl4DNRz0P8dukQRQRXRrV9UA6RmJc87QD4prFz+qsF2iZFG7YqWydoWKZexq1aUwtgiKHj0vs5s1F7VQfuZTt96xdr36tc091WsII5UvZXbRBg2Sq3qukVYwOh8YWhmeOWdBnH12ezlvNDR/Z+6pdsO3QpmHDh26LHZgqtPjqNIsEZoZztNE+M34OJWcVDZntSMVWPEEIXNYRfJXk2/ShtSX7bl3r56G4auLk6qBVMUrIwTkdz6ZB1tLtm92Aw1U0DLvnoiSBx/igKp4eSZfocMsiMjCAL5hmIoUL9AW5x7fSPfYIc2b91gIczBMrmojKiT0hxH5m9c0kGGpXTgaZki7/E7bWfHG3XffNRenJn1G8qPKsaBRwfQQHgG+2Zx5UJOQ+nwnpcb6zfgMMKtCzEr4U05pZojLQPmgGvEMxKbk49EySeTAJE8ODH6MqEJ883fy57AAMvMlmRdgenYBdEbNmThmzJjJeZCHPXdJD3XQCuZny494cqOIRWiLlD3++AZmR414u7N956BBN+1DDWLBNGxY39zPHPEOtx0dNmzICpiXxYbUR5jRDuew6dOnto7XHnzAc/CjFqLWwzCLPBJpZsbMPZFsEW67+Nf9fjM+BOzcuVO2REMKod4wSCQBEp/eyC4xFwsNTK9SvorsCiSEPVakBn/Liun176hD6P7oiEiCzFuldwrlrSdxYjE+GB/dHwmJAxEG4/CLdGcH5feWLU9xzLz9+/c1zyCEdMfoK/XI3IyeCvQ8D/OzAPl59GjnmHnuhx8ZG/OouxpMzt+w/Kgq5KZfWd3rO2QBBxaOhewuHE7AEHA4ADHYvHmLufm1197oI9vrN/NfeHG8SAqDuATcBtoTRKJIDWvFytUZGmZRAG0glSDfOK42iBNLXNlLJOj59HjEwX5M4icFOQF+E8JbO3Ymm/BWeSUTDSIlhUlXSLlRGa8nkJkEi2wQrWeclPO9XevtEhhCfQCu/fv/MFVlxHtODWHH75g1a04I9ZM2Nm/ebMCAbmvPcj/zoKkBGzVqJMEio3s4ZVJqJNSrV9Mm2RRQBMYHhAWoBqkP+eCYlMvxuLJ9t98Sn0NKPImPVCGrFlshP4tUOQxfgRRH8qO6lJLtGn0/8wBQb5DydeRAVEh2EFQivsknn4jQpNfQRFIqPfVMwKGwRMkiPnxoJ+YjB28sHHq4c21+y2JQ+CpUrdPQP6xZ999//82JaJDV/8nJzwETPwlz49BIEW2KMwOSnl2cnb9fv6sTzkVW/SApLuPQlN+YQzFfkhPIy7hyROIXL17MrNLsLqoWEswQLnpWQqqWz8cplWEFy2Io9cwzz+xE4gPSWrlqTYb/szA0GAVItNiAjXQiWaioAgmlwfvvv2+CGIA6kOhI4dGihlkHDx1gzn2gb9YSn4aR0H4UaFi2bJl5CYEqIqEXiXo3A7iuOHI89R96A4YDZCjnBKk9u8pVO5rAl3Zi0527akRufvHFF8248CvIDjmSrNhiyhzEzu7X5buqo0XasuugRGpZCxYsMKoMWxi4HnQ7tjl9RurcSpXl8GKQ7McZmiJlIH9ggiEuqgoITcWrOyFMly5dLFlYRo0ilpOcjixWJnvPXl7tnfEVZXrYbhxRdejn1q3bqQBiLVy40El3E97jVwQUgoBszzAwVzyVNatO7dt3QObyoBEqtCF6+rqEnY9zg+TFpHyLY1XJzbt8Z/xEL3/++f+EONwisYESI9FhBpHcUsB5b1xpjeoTDjXcIQUTapv0gTBvuHbWzwnTE2rfhOml5NDtCyVqqw36LPpxOAX3TqtkKYoyeGf8v2rJZi3xeR9M/5//zE+4MyWipd//J2hITIvmbIVgoq9uL+YCpmcXFY9se7fP59T9Oc74DOzgQTu0c+cu0fPLG5UH5oVh0A+FqbNkCCQ9kp0DDxU0yDbAgmHXYAFVrFjBTJbTa9y4cW2d3uv3fd99l/t1qLIak9aIYj6grcY1Oxn/nDmzKt94441GGLEL799/wOrfP1NOeicN5dA9vsOSnfZbNIsQBP7ll40mPJFgEhiXTMiZ2+DgimWHXYL7kChMTDitdzgMjb/HO1s47deRfJ8w/n7UFS6tBu6UHhIA/789e8IFJ7AIxTHsOW0ypfflisTXEVEJg0ASzG9EGZnq5bK9/rl9hy3la43kx7qDRFfpTswpOrIUFBgkUn/y448/bkxfmAnRLYPLOwWkWmAzYfhlqCswMMLmnHPOxmO6lAg4wQdtkP9vk3PZxSKEPhBBVVZ24C9l7s587bXXqgn+xggjcvKgwhIfkWcvv82ZHqseRmNzcVphlsRLi/UGXA6AtMaNjjd58/nbXaNBXYSPAAAGXElEQVTuNOa6vlf3Mb/XFqAVpk0cXXmW0GnSMRxE6vHF/CrdjsZAAyzD6cjf8LTyrT9joAijPsOm0IsuuiBPz0WuSvwYXgiJRMELaSQ7uiaqC6oQak3jxnUtKmGTVUFsudZdo8c8yLNIeUJ12RF4NriSp4CkIhfH15NGvw9ntthsHFKcwVAl2QlQTVE7+Ts7MHPE2QuVEwclhoeXXlqQ5w7vsdTJNR0/8xSJfhiCgGyPEFELoGFTlsJoRueUEpkzYos/iGq0S+bD6PlMlJvDWPIskj9bmDZtWkjSfJsiHhgTYHgEkJZx0lA/7P3Y1VUNZSGIF948J/M0Iq9TxzfGRxIgrcViIwwo3OjhkoNV6NyOHcWAXNDa/PtWa9fuvdaateuthsc3siZMfKDAvfeNvz622d17/ihZUN5ZoGBhq2ChIlaRosU9vDV4JDMFFi16LyS+gT6YeZHqmzb9bqAISHwEEJdWJGfeN27cZCS9nAdkkfwZGjZs+Lg8T1U/dHwFTAGSAjLqV4bcRMTr1auX0Se1EjjIvUTPBP/3TgHAb4q8BMWZAJri/UU58KSvOj7bIuoG0iAnLhwtXGzDSCKsEcGVOgpAZ+z0zDFWuJya51SMyBdVB4bXVA8wn5akT0WHY9uUA/A6TJg4TJiIVKc1SfV48nr7qLLMM/o8c55OleQz09YXiY/kVf0P4ixZssQieoZDJ1JCS6vjoEJaQDzFgfA3XTjokYIX+U0OVZUhKgTmWe7RZLEwuJa4l0xpEaxPcaODYm3gQObkIqJJnC63o5vSFxYPB+pkK5s7eXf8e+LLojDWZ6sZK7TRQ71g1YEqp/RQybs1Rz30covlSZ42/rXgC+NDAFVzmBCY89133zW4cK5Y97eWAeVbf1ZrDL8Lg1fWFIOKx4fRaUMPVorlp21MnGEX+X7HnlsycEnqDTOJ9B0G4qL9vXvDAK3cu+IzPvQFQ4NAUVwQ4xBE4+0yrtuffvrplJkRsdiop1xwVcaCk66XL4yPZEb3gyiK1WBi8OIp4zNJMCl2X2V0dEQYj99jdwx+1ntoB/WJtjGd8XfdIZRhaUN3AScTQUpxmEUw8aZtGJ4gB96B7Tp3r/iMz9jJnozfgt0KrBI0osbw5587TyvjZYwIF+YMWuM/SeczlS+Mj8OJSUACQBh1PKF+QByYlf/D9Nyr6D9Ve2IZP5bpYUiYnftpl8nmZ/7OOzRKC2cX70pUPFonG6nJeQCVAdUI9zrtKrLQC1P490x8xmecinen/wga6IFqCOQDn0eqLgQc6iB94J1/IVFT9cbUtesL44ukCVF8+OWXXza6Z1YXRNMrmcMv0h1GRzqj4qAC4UwB579o0SJH27xkIZYsAxfa5NZkV2InYtGgokmWgNRR21HL8RlfiyIgZMiTj7SnRoCkCLTefvttR+N31I0sblIUbVjiFzD0T9vLDzt+2g4+6LgrCpAtAeg4sblgdtLZju+LOdMV9YKbAwrkAQoEjJ8HJiHoQs5TIGD8nKd58MY8QIGA8fPAJARdyHkKBIyf8zQP3pgHKBAwfh6YhKALOU+BAloxTr1y4hwJCozl/DykxRuJdSYYnZiLQhL/IDHTadHvrDpZABc93j8cT3hCJTvXgrQdTdDxlFMAhx+OPgQlmevS9SoAjADvJ94/vKufffZZuo4l6HcKKdC3b18bmAdZ54B4ACGRCi2zU/jK1DZNAlUip7SSiLxNSvlcHEQypZbsadW6JN8aRe0sEu1SiYXSOxRmSKtBZOqsYjsorxJNx7dmzRqTo+a4446LgqAI+gYUpYjI7AftLd42nYmYn/pO7kwAhQACweOQI4esdajD8ACqzqeffmp17txZ0iD+J6XYoFTS1XS8Z8+e9hNPPGESMwE8AgAFYhI9DgKgDmmWssTBBwHjp3LCUt12QQncB3XJeQ8VmAtQIcBA+EKzUstiSFumZ0zRznfo0MH+5JNPDONr1BR5azTVB3+DAIlTeASMn2rmTGX7JOTlrIe0ZwHozwg/4NAYQSR2Ia2ZPgPj8wtFeD/44AOLihQKL0bSQwBWPHlUgPDGvwLGTyVjprptTJVg7WF8rDfs+Ji8kfbt2rVLOfQ51ePT9rNcuaNHj54l2PZ+hLjFRkixGwQSP6emJnfeU7hwUfNihJ0G5zRp0sSSHKVpL+VjKfr/cPkZrp9Bg54AAAAASUVORK5CYII=;fontSize=17;" vertex="1" parent="1">
          <mxGeometry x="910" y="475" width="90.90909090909092" height="92.34449760765551" as="geometry" />
        </mxCell>
        <mxCell id="otfmwMb7wzkigZNuvZXS-37" value="" style="shape=image;verticalLabelPosition=bottom;labelBackgroundColor=default;verticalAlign=top;aspect=fixed;imageAspect=0;image=https://cdn-icons-png.flaticon.com/512/107/107799.png;container=0;" vertex="1" parent="1">
          <mxGeometry x="1161" y="262.5899999999999" width="24" height="24" as="geometry" />
        </mxCell>
        <mxCell id="otfmwMb7wzkigZNuvZXS-39" style="edgeStyle=orthogonalEdgeStyle;rounded=0;orthogonalLoop=1;jettySize=auto;html=1;entryX=0.5;entryY=0;entryDx=0;entryDy=0;dashed=1;endArrow=blockThin;endFill=0;exitX=0.5;exitY=1;exitDx=0;exitDy=0;" edge="1" parent="1" source="otfmwMb7wzkigZNuvZXS-37" target="otfmwMb7wzkigZNuvZXS-33">
          <mxGeometry relative="1" as="geometry">
            <mxPoint x="1168" y="418" as="sourcePoint" />
            <mxPoint x="1168" y="360" as="targetPoint" />
          </mxGeometry>
        </mxCell>
        <mxCell id="otfmwMb7wzkigZNuvZXS-43" value="894 entries" style="group;labelPosition=center;verticalLabelPosition=bottom;align=center;verticalAlign=top;fontSize=17;" vertex="1" connectable="0" parent="1">
          <mxGeometry x="1234" y="231.5099999999999" width="200" height="86.17" as="geometry" />
        </mxCell>
        <mxCell id="otfmwMb7wzkigZNuvZXS-44" value="" style="rounded=0;whiteSpace=wrap;html=1;fillColor=light-dark(#333333, #ededed);fontColor=#E6E6E6;" vertex="1" parent="otfmwMb7wzkigZNuvZXS-43">
          <mxGeometry x="10" y="14.361666666666668" width="190" height="71.80833333333334" as="geometry" />
        </mxCell>
        <mxCell id="otfmwMb7wzkigZNuvZXS-45" value="" style="rounded=0;whiteSpace=wrap;html=1;fillColor=light-dark(#333333, #ededed);fontColor=#E6E6E6;" vertex="1" parent="otfmwMb7wzkigZNuvZXS-43">
          <mxGeometry x="5" y="6.735621666666663" width="190" height="71.80833333333334" as="geometry" />
        </mxCell>
        <mxCell id="otfmwMb7wzkigZNuvZXS-46" value="&lt;font style=&quot;color: rgb(230, 230, 230); font-size: 18px;&quot;&gt;Comment Generation&lt;br&gt;Benchmark&lt;/font&gt;" style="rounded=0;whiteSpace=wrap;html=1;fillColor=light-dark(#333333, #ededed);fontColor=#E6E6E6;" vertex="1" parent="otfmwMb7wzkigZNuvZXS-43">
          <mxGeometry width="190" height="71.80833333333334" as="geometry" />
        </mxCell>
        <mxCell id="otfmwMb7wzkigZNuvZXS-47" value="57 entries" style="group;labelPosition=center;verticalLabelPosition=bottom;align=center;verticalAlign=top;fontSize=17;" vertex="1" connectable="0" parent="1">
          <mxGeometry x="1234" y="475" width="200" height="86.17" as="geometry" />
        </mxCell>
        <mxCell id="otfmwMb7wzkigZNuvZXS-48" value="" style="rounded=0;whiteSpace=wrap;html=1;fillColor=light-dark(#333333, #ededed);fontColor=#E6E6E6;" vertex="1" parent="otfmwMb7wzkigZNuvZXS-47">
          <mxGeometry x="10" y="14.361666666666666" width="190" height="71.80833333333332" as="geometry" />
        </mxCell>
        <mxCell id="otfmwMb7wzkigZNuvZXS-49" value="" style="rounded=0;whiteSpace=wrap;html=1;fillColor=light-dark(#333333, #ededed);fontColor=#E6E6E6;" vertex="1" parent="otfmwMb7wzkigZNuvZXS-47">
          <mxGeometry x="5" y="6.735621666666663" width="190" height="71.80833333333332" as="geometry" />
        </mxCell>
        <mxCell id="otfmwMb7wzkigZNuvZXS-50" value="&lt;font style=&quot;color: rgb(230, 230, 230); font-size: 18px;&quot;&gt;Code Refinement&lt;br&gt;Benchmark&lt;/font&gt;" style="rounded=0;whiteSpace=wrap;html=1;fillColor=light-dark(#333333, #ededed);fontColor=#E6E6E6;" vertex="1" parent="otfmwMb7wzkigZNuvZXS-47">
          <mxGeometry width="190" height="71.80833333333332" as="geometry" />
        </mxCell>
        <mxCell id="otfmwMb7wzkigZNuvZXS-18" value="ChatGPT" style="shape=image;verticalLabelPosition=bottom;labelBackgroundColor=default;verticalAlign=top;aspect=fixed;imageAspect=0;image=https://chatgptaihub.com/wp-content/uploads/2023/06/ChatGpt-Logo-with-Black-Background.png;fontSize=17;" vertex="1" parent="1">
          <mxGeometry x="820" y="244.58999999999992" width="60" height="60" as="geometry" />
        </mxCell>
        <mxCell id="otfmwMb7wzkigZNuvZXS-93" style="edgeStyle=orthogonalEdgeStyle;rounded=0;orthogonalLoop=1;jettySize=auto;html=1;entryX=0;entryY=0.5;entryDx=0;entryDy=0;" edge="1" parent="1" source="otfmwMb7wzkigZNuvZXS-21" target="otfmwMb7wzkigZNuvZXS-18">
          <mxGeometry relative="1" as="geometry" />
        </mxCell>
        <mxCell id="otfmwMb7wzkigZNuvZXS-99" style="edgeStyle=orthogonalEdgeStyle;rounded=0;orthogonalLoop=1;jettySize=auto;html=1;exitX=0.5;exitY=0;exitDx=0;exitDy=0;entryX=0;entryY=0.5;entryDx=0;entryDy=0;" edge="1" parent="1" source="otfmwMb7wzkigZNuvZXS-21" target="otfmwMb7wzkigZNuvZXS-37">
          <mxGeometry relative="1" as="geometry">
            <mxPoint x="1160" y="274.5899999999998" as="targetPoint" />
            <Array as="points">
              <mxPoint x="701" y="237" />
              <mxPoint x="1130" y="237" />
              <mxPoint x="1130" y="275" />
            </Array>
          </mxGeometry>
        </mxCell>
        <mxCell id="otfmwMb7wzkigZNuvZXS-21" value="Comment" style="shape=image;verticalLabelPosition=bottom;labelBackgroundColor=default;verticalAlign=top;aspect=fixed;imageAspect=0;image=data:image/png,iVBORw0KGgoAAAANSUhEUgAAAjIAAAB4CAYAAADokBh6AAAAAXNSR0IB2cksfwAAAARnQU1BAACxjwv8YQUAAAAgY0hSTQAAeiYAAICEAAD6AAAAgOgAAHUwAADqYAAAOpgAABdwnLpRPAAAAAlwSFlzAAAuIwAALiMBeKU/dgAAAAd0SU1FB+kGERESC2i4RawAACAASURBVHhe7Z3X9xVFEscHFHMOmLNizgkDCiZUJKgrD549+7D/jH+BL/vinn1wjyy6KKAIKCiYBcWcMWfF7Coq62d261q/+s1M94R7fzP3Vp9zDz/unemu/nZ1dXVVdfWkKVOmbNu6dWvixRFwBBwBR8ARcAQcgS4hMGnSpGTS7wRv6xLRTqsj4Ag4Ao6AI+AIOAKCwGSHwhFwBBwBR8ARcAQcga4isL0mfPLkycmCBQu62hen2xFwBBwBR8ARcASGHIE1a9YkW7Zs6fVynCIze/bsIYfAu+cIOAKOgCPgCDgCXUVg48aNYxQZdy11dSSdbkfAEXAEHAFHwBFIXJFxJnAEHAFHwBFwBByBziLgikxnh84JdwQcAUfAEXAEHAFXZJwHHAFHwBFwBBwBR6CzCLgi09mhc8IdAUfAEXAEHAFHwBUZ5wFHwBFwBBwBR8AR6CwCrsh0duiccEfAEXAEHAFHwBFwRcZ5wBFwBBwBR8ARcAQ6i4ArMp0dOifcEXAEHAFHwBFwBFyRcR5wBBwBR8ARcAQcgc4i4IpMZ4fOCXcEHAFHwBFwBBwBV2ScBxwBR8ARcAQcAUegswi4ItPZoXPCHQFHwBFwBBwBR8AVGecBR8ARcAQcAUfAEegsAq7IdHbonHBHwBFwBBwBR8AR2H7QEBx00EHJwQcfXKrZbdu2JT///HPyn//8J/n888+Tr776Kur9U045Jdlxxx3TZ7ds2ZK89dZbUe/5Q46ARmCHHXZITj311N5X7777bvLZZ581CtK+++6bHHnkkb06X3zxxZTfvTgCFoHtt98+Of3003tfv//++8knn3wykkB1Zd50bS2qQu9hhx2WHHXUUcnee++dTJkyJV2zP/roo+Spp57qO28OXJFBiTn77LNrdez7779Pnn/++eSll15Kfvnll9y6WHx233339HeUGFdkasE+si+jyGieRcHohyKj24BXXZEZWZYr7DiKjOaVrVu3jrQi04V507W1qAy98ONVV12VHHrooeP4dtdddx1ORaYJ0QQ406dPT6ZNm5bcf//9ybfffttEtV6HI+AIOAITgsB5552XTJ06NW0befbQQw9NCB3eqCNQFoGLL744U4kpW0+d5wdukbHE/vDDD4U7z8mTJ6fuoZ133nlcP/fZZ5/kmmuuSZYsWZKasbw4Ao6AI9BFBJBl4nL/8ssvu9gFp3kEEdhpp52S4447rtdzrIMvvPBCGgJCyVq3+wHThCsyzz33XMInVDDvY7rCN7z//vv3Ht9rr72Sc845J3n00UdDVfjvjoAj4Ag4AkOEABtYrfj9+uuvrezd119/nbDIUwiNaHuJpRcr4qRJk3rdefLJJxPi+wZdJlyRie0wDEvcwObNm5NLL700dStJOeGEE5INGzYkP/30U2x1/pwj4Ag4Ao5AxxF4++23Ez5tL/fee2/bSRxDXyy9cphGXv70008npJ+dO37NCaZ169Yl3333XQ8wgo04DeXFEXAEHAFHwBFwBAaDgLbG0GLR4Zt+UtQ5RQYwMB++8cYbY3CRQLl+guV1OwKOgCPgCDgCjkC7EOiMa8nC9sUXX4z5iqCjpsouu+ySnodHOeJvLD64rchF89577yUffvhh6aao4/DDD0/r3HPPPdMAZrRZjthS9zfffJN88MEHpY9RUh+xQ+RTILCKOvHF4ofFdwy9sXl3dKeoByvXEUcckR5hp24USCxhmA9x8f3444+lcSjzgtAAHeQmYIxlLMAMWsifQR9/++23MlWnz4IduVv22GOPdJzZTRB8zjhQZ93jz9ttt106NuRXoH4wlLEm9wft9NOnTyyZBNvBE+R0oIDrAQcc0Btb3XeC9HDhgkOVwjjRX4JXOV1IPgnapt/USf3vvPNO0A1MHbLbY67ruALqPeaYY3rz89lnn03I7ZNVaJ+6DjnkkJQeeAh6iAFgHvNeaBcJPvvtt1+vet0WsXvHHntsGrdH/fAnfMPc47k8UzvPMmel6KBI6kRW6AKtITp5Hp6jr/SZeYucAXtOQsFzVedK0zIRupAtzEHmH31mLkArY/Pxxx+n8yPUZ4sjPC6xKFn8IPiITIEOyVMGRvAn49a0bCOQG96gyDyw9EET/EoBAz5SwOnoo49Ox5SxoI/UA1/gWmv6sEsRvZo3NQ9DK32QlCf8HzyrypIy8qezioxlcGGSMp23z8IgHIPU8Tf6GQaQYGMGZ82aNaliEyrQdcYZZySnnXZaj5Hz3iFomfwka9euDdaNsLrgggvSBaOo8AwC7JFHHhkzMYreYZE4//zzk9122y3zMfChXhaQjRs3poKg6UIk/LnnnptLg26PibJ+/fpoXzmTlCODBIpnFfqHUH355ZcTgtfKFhbgE088MaXf+pClLhJOseA9/fTTaT6kfhTya4jQYWFdvHhxqsAQY1bUd8b2zTffTAPoY5U5BC3vUX+oMHfhnWeeeSaXd6644oqeUGc+vPbaa6liQ5+YgyxIUrI2MfzOc8y9LNnA/DnppJNSIcvcQDHPK/Tpyiuv7P38t7/9Lf2buqFH0yIPoSCfddZZ6dyDfivMaX/mzJmZTTLvrr766jG/3X777WPc6VkvMm8vuuiiVFnLKieffHK6qeFod2wCvaZlIgs184L5kYWb0M3YodQgX8gZllcsjv/6179yZSf9Z0xCJ2nYFL3yyivJE088UagUhfhc/86c0znNVq9ePe51xk7kOTGffNj0Xn755WMUaf0isgqcoBWamypF9Fre1G0iV3VZtWpV4dxqit5OupboPBNMl7qBvmiSCxcuzFVidFvszq6//vrUalNUWMSuu+66dPLEKlrs7BYsWJC70NAeAvjaa68NKjFCG1YB6tS7yiy6OerOpOGTp8TIewghhDjH39lNNVlmzJiRzJo1K0iDtAkvkJBJHwPMowdlkTHJW8h1/1A25s+fHxR8ui3GGUyY0HlKjDzPgsNz9NX6mpvEU+pC6M+bNy/Yd2jBysB8CPEMdSNMqTdGieF5MGIcGOfYAk2XXXZZOpeKFkDqY5fO/KSN0LyDd1BS2MCUKShavBOihbkHNiFeKNN21rMokczbkGUavp8zZ04vZ01Ru03LRGhjPjGvQrhBF5jRL+ZH3QLvoCiElBjaQQ4iY6G1adlWph/MJ/g4NAfB6ZJLLklxHdXSWYuMveZAB/+WHUzqYvHRkwtzNiY7zI0IUUzmmPZkgUdAIjiWLl2au7thx6Vjd7BcSDpxTOVo/kwsFhg+TCAKuxYWuGXLlo3rCvUxIfXCJ2Zs3FPsdhHOBx54YLoblzphduhlV57lzqC+2bNnpyZpKdTFTpXdG6ZLoVWb/RHUCBoSEzZRsFyxW9OFscDcC2bQQV/AAdO0FjTgAr155mgWQT66sFPG+sBOVbCDH+gXmGA6zds52/4KhoylLowPdAkvwUPQLgIKBSwkrOpiyyKiFSYsLfQbqyJmasaWPkO78BbvsOjdc889ubtcxgEhKnwGnYwT/YUfaQd+ZgFF8dcKMqcNsbTgRgiVM888M3UnZRVtEaQfLEC6HcYYdxnjAO+zM8ZiojHHugKtMakgsBYgCyi8g6sMKy2bKXgTDPV1E7hOUHo4pCDFHhuGJnErQKN2K/BOketUXEnyHHMFTOk3Mo0xgsdEqeNfeHrRokW5sPdDJtKmtiAz36AV+YIrh/6DlbhQhDhox4Xy6quvhtgk83fGC8VcF+rDdSUuS/hFXP/yHLQiU7C+D7qIvBb5Ji501jn4nfnEBgKlXQpWdHix3wli9XF36NQ0yBokNBW5+ZrEtJOKDAxmrSHi/y8LDsIabV2UGCbXww8/PC6YmHpxMyBQJSU2wpvd3B133DHOBIkgYLGSgq8cc2KWwoXwZMGcO3dub2HmfRQSa5JG4GolhnssMNHbQp1MTpQT8WNipkTAsoDZQr1aicGXjgnato+Zl/rADOWOQj9RQGIWgaLxQZDZqwBWrlyZudCRq4CxQwGVvEJMemjJ6h/P2KsxNm3alKbPtosE39M3Fn4WO+lniLdI662VGCYxi5cNTKcezMbQigmXfsS2EaIh73dtwcSV9fjjj49T+Bg/5hZjKwsOgooFiKSTWS5EhKcoMfyOiw8Td9aztIkVBgVGL1IhRQahDX9JYYPBGPMeC6AeP2vJw4UF1lZ5x2WBDAF/WSzoC3WGjpCK9YZ+0icbnwBvsihiJRRsWIwfe+yxHub22DDmenEDosSw4YgtMm+h+8EHH0wVSF1QAOBpLJGi4IEpFpcsudkPmQg/6dgKNg4rVqwYRyt04ybBunDhhRf2uoEyUkWRAX/NO8h33B3IN1vgCTBh3MSChgKE3B907hfcYMh5+PuBBx7IjMuEt1l/5GoA1jCUG/i9n0XzJu3pjR4b2piQi6bp65xriYWFSa93gEyKqnffsLiJkEf4MrmyFh6AR2DCJAhrKbyrLxTUAlr+5r08JUaewepgFRIdNCXPaQsP/c5SYuRZlCYYSwt6rVzJc2jUepHHagQOeUFa0MouXe8aUfDqmmFRsmRXCm3EaBQtcuyGiW/QhR1dVsFErRVAcENg5u10mYxYxGxQed4EpO+4MqTAS4x5Hi/xHLsn2mg6UK9ISKCIwr95Vit2W9CkA8RRAo8//vhx1bIo6rQHLOzEFeXFTPE946XdwFk8bhtiUWO+M97wHcotioxYNeV5dvL6vhfij1iE8gKqsRotX768hwX8QfxGqPAciyobnryxw9KgFXusIDqRZ6iNsr8Lv1olRurhe20R4vu8lBX9kInW7YgczaMV2sgOCy9JQfFiI1a2yEEFee/111/PVGLkdxQ7LVMYaxt4XZaGKs/TLnMUi3/e4RI2Siiuei6PahqSCVdkWHgAP+/DDld2/Oy+8Rna+A0EVpWAU8zQWkCzU405kcRzmCWloMhoxYrvtQmVnVKM68vuBLP86toHHtNn2qVPMD2frNgXTT9CH0tMqG4WI30fDLTqnXaVyasj4FEwigIwpX4UWE1rFmZYO3C1SUEBi9m1sEgRqBnCgnq16Z7/4zLJ2vVZXFAcBnE7LO3Sb5S3UEFhYJHWhZgBW2ygeZYlzL4Df2nlMCZ2BCUAfiBJV5Fii1VRCrgWKfmaf9jZSkHehNx88EVMJnGLRyguKzQuRb+jpIRO+MCPWonMsgL2Syba2J2YOcUmQOQW/+ZtUopwqdIubkjGWNqOUbbrjF3eu/Bl6MQpc5WNp5R+8lg/+thUnRPuWkJAZgnJ2A5ixq16qzUWAB0MyC4gtrCzFTcCwpiFUitB0KWP0sXUGyPUMTWKTxJBxALKLqOohLI0av8xykOsGZVFBUVCdpoonHXcS0xI8e8ilGOOJoNxKFDWuiEZ59jj2iy6LAChXZltowwO7Dyx5sSMfwwf5T0DTbH9ZmzZncoOj8WdHbG2wjFWevcq96uEaNT9DI2d1MXmoah+BLhWQBjjmMWS+nmW2CnZjCAXitqSBTbUTxur0K/xZbELueeEVjY2QkeWBbVfMtEeZ0bpZL4XWSPhv9tuuy0Ec+Hvtl1kHbxUdJ8Vc+Tvf/97rXabeFlbpIrq05vkfvFYE/3pZx0TbpGp2jmYDbOxdS2UqU/HM8AMNsCuqC4sMlpQ2ivM2ZGjzPDRGnNenew2YszadpdPTAAnKIipsVahGCxQhnT8hLY0xbyv6UGZC50SKaoTnASzGH84gphA01CxyRJx6ZQpIcsQi7F2G2AyL+MnhpfL0lSGfnk21A9bp90gWPcAfZTx4t+QiwyciHWwuSdi+hI6WmqD/2Msq9IudGtrqJ3Llr5YpcEqjTEndWKwsM+UiQ/UNGXR0y+ZyNzW8hKl86abbkpjYXSwaJX+F73DXNQuLGQGJziJhwqlrmialjL1sRbF5rIJjWmZdrv67IRbZMoAxy6dnRKLLdpq3UQ7WqAyqYlQL1OwGMjCXcakx2Tiefmw0LLzjdmd4hIhuE9PfmID+CCQJakegplPaAduFxV7miOEhzZPQz+79ti4klDd+nfGh7rFV47iwIITozhpGiWRXpm2Q/FXkvhN6qzSf/g6L39RGVrznkVRj80JI3VYVyeLDwp6TIEXMMkLj7NoMF42bUJMXczz0I3Qlo8J8Iy1yECDPpYbmssxbuKYfjX1TKwFNaa9fslEMCOYVsfiMW8I6OUD/6OQwXOc0GkSY2LCdFwlMgOFmg/taJkZ4rMYDJt4pskxbYKettcx4YpMTEIwBBL+ytCiXBZs7T9FkBEpXrUU+W8RjCgfWCzY1VYR5kIXDM4JEqwwdoeMgoSLQ9wcYCbZS/HXZ+2YrQ85Kxi4DCYsXlUWctsG4wEt9BHcwDdG0cuiVZtbqwjI0DvWnBt6PovGKu+UGZcq9VthWpSjBEUTHkchZ7xYEKtYCLP6FLO4WNrquKuZR5IRN4ueGJdnmbGp+2woNqZM/f2UiXKxL6e+7AYEJVm7BnGXYe3FjRfaSIT6hzUI9zqna2yMIP8nTlJiJVGaeR7rJQHbZZThEB1lfm9yTMu029VnJ1yRYcDK7hSbAlufkKlbZ5aZll0ouw1r9rZtoWBIvIk9IpxFFwvM3XffnR6lJsCWnW7WokH/UAb4YEolqNResd4kBtAaYyEpwhpBCq3E/hQthBI0igsqlFhN01Qlr0HoHYth6Pms/ld5pwzPVqnfCtOsmAo53krMQ9GpNRYEzOUsECg8oYBa3bcYE3vTfFzkBpqoxa3MeFd9tkkcszAkHgmXJS4l4lXyEm+KJY+DCFhMCD6vkx+FDR1pMshRhWzJO0HGJhPLKB9cUrRbxk1ZFXd/rx4CE67I1CO/3tsoUGIdQTmIOXWR16JVxlBeMGfahR0TKhMDoc5EYechO9+QwmPbllwUCB+xXDBB+dsuKvwf1xkWE3JfSLF0I2Sq7N6lvlCUfdGIMRbk0rHHLOUeKuoWzPhXFpSQIoOiKDvNKopWSLhbS1c/2qjH6f9Lsli22HdsP7GQkcfCWvHgKRYfLHOMk9wbI4qRPkEWQ1OMEmb5uEywdRYNo7oj7qdMFJyxehDfyAeFBX7Avc4nK26FuB3iWti8FR3ZDvESmx8UKT6SNBRZicykbbtxwgpMBnXSKCBrvbQXgZFWZJhQosjwt17g6wwZSgNJxeyJKI6Dxuwuy7aNoMccKkHFEnzKjgeTqV6QiB0gsFQCBG2cETEQeRfwlaWr7PMkJ9NKDIshx1zLBM5mtYlwFkUmdPVC1vuh45d2Ea3SRpV3yuBbpX7bb3sNCLyklRgWGeIRbCB8GTqzno2xgNh5hct6VJWROnj3Sybm0cTmhI8EczNPxdKsg/RxNRPYn5XtvEp/JduzBLQjq9lIYomRrM3Ui3KDS4q7rkLB7FXo8HeaQaCzp5aa6L6O5QgtVmXaI5W6joPhqDYLcj+UmDzBT9AcbWJOtaZRnTvHxrM0iUMZzCSOSN6B/vvuu6+2EkN9uo8IyrJ9DCUyQyhqhdCekorBIdRGTB1Fz6DIxNwzo+uwAbQ6VgVlWd/tgjJN8i57OqUu3bHvWz6uknMktq1hfq5fMjEWMzYFKDXEAXI1gI6LRNEoO3dj25XrErC+3HXXXWNSULAx1VdOxNbpzw0OgZG2yBAdL4s6Cxx++9hcGGjqZIuVgpVDLCLWdB6bnyZ0DBEzqM5XwimA0C6BBZbsj3/+8597tOpTGbiRcG1J28Tb2DiaInZkgsuRTYQOadirFIsZp9JigrtjLA3EH+l7evhbJ0EL0RsjxOAlGRtoYqxibxiGl0J5akI0xvzOTrPM2FqXkT7FxIKi+bVM/qEQn8f0xT5jj0TDkzFBwlIPJ1iEl7AA9utG8ip9G+Q7/ZKJxP6JZRg+isn9RX4s5IK+ew2LbZlYGeJhRCFHSYqZ96wBJI7Eqi4ldJJtkGPkbY1HYKQtMigferHMumogj2kIWOSUk3z0SQa78409Jh66vZl6MefLJ3YXT/vazG4VBC1UWFDLTFoSiQkGVfKDCL721Ens8UN7GVzWeLHI6j5jSYi9TgHlVt9BlccP9ioCrmyILZywGUQiK/gmNpeJHJeWPhDnonfrVXkcBa8f1hLcWpo+eDK2r/AeOZyEj8tarmLHuQvP9UsmshkQuVXmlmab2yvGzahxRkZKuyhTsfFrZS7t7MK4DjuNI63I4OrRAb4oEnk37GpGQEDqe3Wwaujdtw1OjFEM2HXYRFz2uLE1n8cqXrSvJ7AN5tW7T9okyV5McChY6dMndYKlbTxDDGa0bW+zzjqijSKnk8Hh9gsFCDPeKDv4x2OOfbMAaOULhTDmCDDKX0wixCYEEVaUmFxJ8ArxSrrYLKNVeBxlLSaBYdW+amsTypK2mBbVyVzWgZ51+Lgq7XqBjl1sq7ZV9F6/ZKKWXRLcG0O/3ayVscZQv7awI7djU2zYU3V1DkDE9NOfqYfASCsyQMeRZO2ewZzI4pi3m2O3xu2o2vpgU7/b4FR9w64dLhbL6dOnZy6s1mrAJNZZPFksWRiK8ntgxkcx0cWaddl9EMcjBeExb968wiOyKDF6sWMRj02WlsWy1g3A4pJn4UGx4Ng5J5ys0M+ztGAq1osv9HPiJg87FCnqj83+icXH3r+D0sAuMO8YOeM3Z86cKKWx3jT/421wIwdRXr/hF05q6AWEYEzrksICoq2Q7LizLpaUlskvwz1p9n6fWMtYTP/hP51zBEWSvublbWJcyGmiFU4U3jon72LozHpGK/K4uKrEWVVt277XD5loZQMyNJRBmXHRgbdyCq5MPxlPjS2bBixCRdY6FC29uRhU5u0y/fJnxyIw0jEyQIGmzYVrKDAskHxYRGF2dtkoJSg6CFyEO3EDevEkkNYKedwMuBZkJ492f/PNN6fJnVAamFjsTvmeySzCnN2D3gmICwTBKlcHEIPCUURZHFmYiLTnpBHKgLixULiYkHz0pCWWICsdPkchWWykfZSIG264Ic1vQx+pl10ju3oWYL3A8z2XK9ZJFIaCxlhInAKYsPBBKz51TsxIRmQwk+fwe4On/J/xATeUFn3NAXVzokZbWIhpwW1EGwhJ2gA33B+0IeNH+zELC0KTQEW5PJP3UWSwtnF8k7EHI5QFMNSKWmwbVQWY8AWLOosD7cMz8Bz9lhgx8NOKF9hmjS3f01/t2kOxpe8kMmNnD98xLsSrSF/hFfhU/o/lhPkGLjGXPBb1nwWHANH58+f3XHXSV+LXUHKELhQqlC+t5PCbvtm+KtZV3tPHisGfOQ494AJm3Pod626t0r5+px8yERnCHJB4M3BHYabf8CFtipxlEwHP6MBeMEBGlS3IAd4jnxcFbPmbeQk9tA/OyHR4lYBia41hozqogxpl++fP/w+BkVdkAAFTMhMFy4Us+gj2oh0m7zE5V65cOS77I4oHWSy1+4lFuMjVgMKwYsWKZOHChT3hiuLEh7pEkWHhQVizIAutTE4ERCgolXdXrVqVma0SgcnRRnZKOp+NKEN5E4b3oKfsHU22PvDnNm1uOJeFlH91pmL7Dovz8uXLU6VRFlTGDUGFYmTvayJ4EOUCt5JghwDDOpPnUsQKhqJ74403RskMEmixoOqxRmgXjb3kA4pRlqKIyHgIhY9+gC+8SL/laou8OllY4El7VYE8T7oClF8dvIsSaDNOy/OiaNC+du2Je7CuIkM7zD0WfRZJoYu+huYHSgLZXydqwUIGkVRQuzF1rE6Me7Mqb2S917RMpA0U4tmzZ/cuIuU7FNlQzIxYO2Nuk8/qC4ctUIq0K56NZEi+UxeWpEHdTt/k+I1aXa7I/H/Ecbew0JNVFqFXJDhYQDdt2pQmVsoLPuNEETtdTJRF5nMEJ8/KKR3+DWX3RchgKcIsjkUhJORYxHAdsbMospqwcKEYMMFRwkJXKbCTYjFryhSPMsRiwiJnk+LpiUkfiOsRjLGCxAT9imBiYUbZCZm2EWJYwGLihTR97Oqx8hCjURTrg1WDPjAusfTXEVDEcd15550pXUVKLwsHPMbYFi3szAOUBtyb+rLBLBrBA/cevCLBtUUu0Tr9ZG4sWrQodRETE1EUc8IYoPBad0qd9qu8i5WK04W4mftxqqsKTU3LRJEvKC6cEosJqsaSxtjUvaaAeczmBrkW4y6Gh5ibExEvVWWsRv2dSb8DsE1AYMLfeuutfcUE8502GWLa65fJlB2u7LxZzGMTqyFgxX3C3ygiTEJ25ywGWGJijgYDJJiibEALfYceaKHP1EN9ti6CjuXaAdwRCNq8IDeUDRYRJicCkPaojzbANvbySDvoklRPLvpD6KC0Ua9c3Fk28C6WsWhb7uxBoUGRAH8WTvqDwmODTbEcgRvjBbYI4dAtxYwHCzq7QnCkf3JBIUqaLOKMmbaWMCaxJ9Hk1BNjA4bQTb3QRj/Ef89vWulBcNdN6EZmaTnWzUK5ePHi3hDQX/gSix+YwTPSd5QOm/wuNHa4aqiPPlCfXD2Cy46dtMUL7FnQkAW0xVzQJ78YT1HQGc+qGV0l0RlWIjAW2qAHjKEtlMKAd3RsD/wfk20Y+nVaAeZLTNAo2DA+2iUM38smBEultnqVkaHwoyjm9Dv2XrQmZSK8JNjAf/AMMpZ+gSvjjaxmfoTmWZV5w1giX/iXfoEz/Mq8ZG6j8MSuFaF5Ib/HrEVgIUo3cyI2fQDySyu/ZW5Dz6M/hl7erYJ/LGZFz91yyy1jsi0PXJFpohNehyPgCIQRKFJkwm/7E46AI+AItBMBq8iM/Kmldg6TU+UIOAKOgCPgCDgCMQi4IhODkj/jCDgCjoAj4Ag4Aq1EwBWZVg6LE+UIOAKOgCPgCDgCMQi4IhODkj/jCDgCjoAj4Ag4Aq1EwBWZVg6LE+UIOAKOgCPgCDgCMQi4IhODkj/jCDgCjoAj4Ag4Aq1EwBPitXJYnChHoD4CJAokPwuF/D9eHAFHwBEYRgRckRnGUfU+OQK/I8DVB14cAUfAERh2BNy1NOwj7P1zBBwBR8ARcASGGAFXLJmTqAAAG2NJREFUZIZ4cL1rjoAj4Ag4Ao7AsCPgisywj7D3zxFwBBwBR8ARGGIEXJEZ4sH1rjkCjoAj4Ag4AsOOgCsywz7C3j9HwBFwBBwBR2CIEXBFZogH17vmCDgCjoAj4AgMOwKuyAz7CHv/HAFHwBFwBByBIUbAFZkhHlzvmiPgCDgCjoAjMOwIuCIz7CPs/XMEHAFHwBFwBIYYAVdkhnhwvWuOgCPgCDgCjsCwI+CKzLCPsPfPEXAEHAFHwBEYYgT8rqUhHlzv2vAhMHXq1GS77bZLO8ZFkFu2bBm+Tna4R/vvv3+y/fZ/iNVPP/00+fXXXxvtEeMPH0j5+uuvkx9++KHRNryyPxDYY489kl133TX9Ytu2bcnHH388MvDstddeyc4775z297fffks++eSTVvbdFZlWDosT5QhkI3D55Zcnu+++e/rjW2+9laxevdqhahECl156abLPPvv0KLr99tuT7777rlEKWVjmzp3bq/ORRx5JXnzxxUbb8Mr+QODUU09NTj755PSLrVu3JrfddtvIwHPGGWck06ZNS/vLxukf//hHK/s+corMAQcckBx66KG9wdi0aVPyyy+/TNjgwCiyw2b39t57700YLd5wfQTaxl/1ezS6NfhYDufY77LLLsmJJ57Y69ybb76ZfPXVV8PZ2RHp1UgqMmeffXZveNnJTKQic+aZZyZTpkxJ6YEWV2S6PfNY/NrEX91Gc2Kp97GcWPz71TqKjJ6jX375pSsy/QJ7QPV6sO+AgPZmHAFHwBFwBBwBR6B5BEbOItM8hF6jIzA4BO66665k0qRJaYNNB5EOrhfekiPgCDgCzSHgikxzWHpNjkDfEfjpp5/63oY34Ag4Ao5AlxBw11KXRstpdQQcAUfAEXAEHIExCHTGIrPvvvsm++23X3qenzwNBOj++OOPaZBWKFeDzusgJ4QEBX7Tv3NWnk9R2XPPPRPoIb8AgbrkFuBoGh8Cx8jtwXdZhfbFNcDv+u/JkyePoYXfYwKRof+QQw5Jj+VyNBOXw/fff5+e+Y+Nxi/CwNZPP8ld8f777+diteOOO/Zo4u+ff/45pYUcDLxfpTTdT3DS4wR2Bx98cMpj0Iz149tvv00+/PDD9O+80jR/FWGj24L2LPdSaCzpI7xC0CPHSclB8tFHH6V9HUSh3QMPPDBhHjF/4Afahp+gR89N+TtmXsqzzCnq33vvvdM+UpAVX3zxRTon8uYmzw1yLC3WyAY9NjKP4b+mj3DbtpE9fChZfHXQQQcl5BRhbiCTZLzy5gV1IZMYY8ZA3gH/b775phKbNTWueoxlzGPmVR7R5PThyP1uu+2WykP4mTXp888/r9RPoQnMRaYzJvAwuDNX67qVWbsIZmdsdthhh7Ru1i7kc2j9q9ypPr7YakWGic35/VNOOSVlkrzCJHn99deTDRs2jEsMxXs333xz7rv2t7Vr1yavvfbauOeZRMcff3xy2mmnpRO6qCB0nnnmmeTll18e99iMGTN65/LtjxwJ1McCYdp//vOfuU3B5Oeee25y5JFHjlOA5CUm0+OPP54uxkVlwYIFvfwX4MiHyX3eeeel9MLstjBhn3/++eTZZ5/tLQ4oA9OnT0+OPvro3rFy/R6ThOOO0MTkiSlN9XOnnXZK/vKXv/SaXLp0aSoU4JELLrggOeKII3rCXNOFEHn11VeTJ598cpwS1hR/xeDAMzfddFMwj0zWWDKX4JUTTjghcyypGx557LHH0gW/HwXFAt447LDDMqtnHr/yyispzvyd1Y8iulCKSGdAHyWJl30epW3jxo3JSy+9NK6qQY+lEABfMjbHHHNM7tgwj6H77bff7sfQpPwvuVLgg2XLlqXt8N3pp5+eKX9ZTJnL8IwoNCgwnMTkPfqVVVgsyX0Ty2d1x9XOG0vTrFmzEj5SkP+sA6FShA3vorA98cQTyebNm0NV9X5H8TvnnHNSWWQVLnkIZZ86n3766dIKLmvFWWedlRoFsgp1s5ZSd9UNZ3RnG3ywtYoMmuLs2bMTMmWGCgOOAnDUUUclK1asSLXhJgu786uuuipBQ44pCEQUFjTemAkRU6d95qSTTkqFj7Uw2edg2Dlz5qSMiXIVW9DYr7nmmnRHlVdEADNWCCb6e+WVV/Z2wVnvIeiOO+649Nl77rknmJG03/1k587Y5gld+oASy+LI+KP8dC2LKuPDWGJFLCpYA+bPn5/OoZDiG8tH8hxCHyWmiF+Zx2xa2MnLQhrbTgzvURdYXHzxxWkbzE1tAYptq8nnDj/88HQRRcYUFeYxfIqix8ah34VxYi5DX17hGTY5WCOWLFmS9uHqq68OymzmHHx23333pRuJotLGcYVP6SfzpaggQ8EQZYZ8ZaGCEo4SI5axvOdR7MCdzSIbwiyl3L4LzfAZa2RRoW5kLs/df//9IZJb83srFRkGEgawSgyuCcxfaP8sPEwgvdDyHZN98eLFjWmTLGJZSgzWEujBhcOExuTKBNVMCLN98MEHqYbbZEGjhuF1wQqEAocLh90oi65YUegDOz7oRKEJFd5jogq2aObiEgJjJrC20LBI0c9LLrmkpxBgbcGMzL9MDgSSZKSlfSY5C9uDDz6YS06/+8mYXXjhhT2a4Sv6Cc1gBf9p6xt40EcW+q4Uxv6KK67oKTHsohkX+AXrGFYSxkYKAu+yyy5LFi1alPJSEwXlBJx1gQ6whg6wBmfZJULTzJkzx7hdi+ggwSVzVO9goZ36UTrhP8z/mv8Q1Cy8y5cvL3Q1NdH/vDpQEqDbLlxYX3DdomSJG07mGwp1SOmpSzM8Q4ZiUWIYKxQOxgqMkXPaQs64kf0WK4LIbCxqMr70jzHV8px6GGP4LM9N0tZxhZe1EsN4sRYwXuCC7NW8iFUb/Io22NTJPNEFS7C44hgT5ojFEKUcfijapDK/MAqgvOti5wjyTeYgawibn1irWV2eq/t+KxUZzF9auDKpH3jggUyfI5OKwZS04Ex8FlZcIxQUDZ1WGW1TKwF33HHHmPgHu0PDnaQtMTAtptSsnQQMxeLMO1KgRSsyWC7QoqXg2hKmF7O6/Jbly0e4aPoRLtT5zjvvjOEFhAdWqvPPP79XP4oBk+ndd98t5Bto5n2EEbsJXGTab0o/SZWvMySjeDLZwA966LOlH7cc+EhhR7F+/frMBXMQ/RQlBkWNMX3jjTfG0XzsscemQl0sCdCFQJHYo7r8VXcCh96H31E+GQuEHTtDy+MIL8ZPFnrmEP2O2emF2mfuaCUGOnBH4iaxihIWIxY3/s1zP9n2WDjgRZlDLIpPPfVUmlzSLpDUedFFF6VKNIXFCAUfV1YTsiKEhf4djFEYtRLDorVu3bp0s6aLWD6Yyyg0oV11GTqynkX2Cl3wAHjqWBjZGGFBkMJiLfF+8Bi8ZscXvFlQJQEo/MbimiWPmhxXaNRpC+AvrNRSHnrooTHysyj+BNpFvuPeQZbb2DKUAKwfIh/BBUWPNSyrUJ9VYnBvwZfW+isbQNZIKfAwCkeeXCf5n1Zi6B91I9dtDCayjfkK7cj5kNWpLq819X4rTy1Zc+aqVatyA6fQ+jFDa38evmYpOhCXZ+zAMUElUJd/LROzA5LCTp0dXJ45lLoefvjhMYKInYguLCK6Pb3Y07b+zQbSIaxZVKXgg8Wka5UYfkfxQJjjvtELF4qEDjDOYiSEGO9jeaAOG/wFXVhSNJbUyXOYi5mEWUrYc889N8bHTzv68juhZVD9ZIGnL2CUpXhBD8oNypwumj/r8ldTEzmvHnGZIUSxxmW5UlDOV65cOWbMilwKsTTDE7g/dWGhRvhnWXsQxnfffXepIEnZkdIG84f5CZ9lLUZkzf73v/89Zn6iXIsCN8ixZB5qqya04ba0Soz0i0UHbAZx/F6UGBY7Nhq2TXDiN21hEJnCXOGTNb64K1GKdNEbVv19k+NKvVrO2/5Aq5a7IXcjfUUusi5lBcizTjCfdIB23nxC6bHWSuYHbs8sFzYyn7rhcV1YF7JialBMiHGSIjKazUTWQRI2aPfee28jm5hYOdHEc61UZOSkgXQwdJoCJmTBkYKJLBQ7EgMeE1qb8ghsCwkSJrnWjNHg84K2YmjQz9ggRpSJULwGixQWEikwtlb08mhgR1UUJwHm9ncsSqGbYbnoUJes2JRB9hNLTOhkF4uIXhj1pYBlx3AinkextLhbOlAitIJuFfAqdLOb00GF0ACPFBWE65o1a6LcPeys9QKBFTbEf8xfFiBRzpnj2rJQpZ9l32HxwhophYWUuRw6LcJpSDZKgyjwQigWx/IU9IViQew7WUHZbR9XPATIjRAfc0BACutA1oEVrOZioeJZ1hirpGS1Yw9wgCNWVFuwyOqNK2MaE/9WJhh7EPwYaqOViozViLMGyHaMhRfzIR92XUVHLEOgyO/smDglgAmRT+w9SFYghSwgsfToE03EpMQGNWNt0MqgFqJZbUP/Cy+8ECTLHgllEoaKfScrsG1Q/UQJ1ApwHu0oMfrIaFFgcKj/E/F7jGCELhYiKU300SrMuJNiCnTEnM7RfIIyEMOztM9CpMcdV01TczSmf+Ci+R66QxskqRc5VOdYbwx9PBNSSHimyvxnzmn5GJr/bRxXxiukdNr5xP/zNm0yJmLpih0jHaLAO9p7IHXotZNNQqwsgBZrPYulayKea6Uig69YF8yMmGKtpUY/gzmPCS6fGEYLAY7Vgd2bfGIUmTzNONRW6Hf6rnfJWe6kvDpgSv08/tKiyHgwjBGs9nheyLIBfaEjfYPsJzuTWD7RZtimLGyhMW/idxaOLHdFVt3a6qR3iVXp0P51FMFYOmgvRpHRfn/GMibnkvRF188CE3M6sioO9j3rTglZy+z7Mcp3XVpjdu1V5j90hWRL28eVfEcxxfKjnVNYaLSVhs1pyPug20VO62BcrJ9aNmF918oTdJcJ4Of50FjF4DCIZ1oZ7Iv5meAoTpVQ2C3hy+a7zz77LHXdYELm75A/s98gohAQgIWSQWAjR4v7carAxpKw4JcJ+tOTiL+JC2BnmlVCyoa8Y61eZRaSvHEZZD+rJubqN081WX/eGDfZRlZdWDMlqJbfmatlSuh55pg+sYiMKDMf9Akm6MKdEWvhLNOPrGf1MXjmTBkFj/rsRq8uPfZ9aIqZy1Xnf5G1vAvj2pTcsMpzjPJox4p3hJ9Yi1BmxL1q0y2U5W82ecxDfaijaV5rqr5WKjJojQRgcvxLH39FWLHQyWLHhEArRXPEWhLyj9cFDW2XtjkpJUdzEYihc/912+V9a42q69dnEWh6kWvCnTfIfpbZnTQxhhNRx0Qp+rIJkT5zuqtMCT1vYys4+sunatFKV9U6Yt/Tu+QyO3Cpv+l5a+luYh7HYmGfa/u4ouA1hY/taxUFyb6j67SurCr1w2uuyFTl5t/fY4KTD0Yy+9odFFWj2KBQ8CGbJKDj1ytrqg2RifmPI2z4tkNuBZgFcz7KTpOlaStPVqbeJumtWteo9LMqPl15z/JXzA5f9y2Ugr3LfKKxqaJMV3mnK3zT9nFtSolhPGxfq4yrdf3oOu0crFJ/lXcmgtdaaZERIDBtcUyMD8oKvlOxhmRFu2NlIPkXz4eiymPBtrkP5D12uliDUFz4EKDIB2UKpadpRcYyFO3UYbI678ZiV+W5UelnFWy69I6NPQptAGzfQoq2tTSxeQhZcYrwq/Nu2XFBqdPJKsu+PwgLcFmamnq+y+NaFgOrrFcZV3s6V9dpNw9VAtqbOP1bFpcqz7dakdEdwlen/eaYglEyOIGDgqMHSWJp6gbFYYkh86Y9Hsdx3EFfrmXvJeJ4XGzQWRXGmKh3RqWfE4XvoNq1O0XragrREXL12LQDkkAsVG8bfgcbUWSKDjDk0VrlnTb0O4aGLo9rTP/0MzYWMe9+sKJ67Tt63tk5WKX+rvBaK08txTAEVhCCgknegwvKxscQHFy3UIfeGZJQjMRiZU671KVB3rcngrrCYGX7Pyr9LItL157naG6d3DtZiRLtIqAXgi7NB33Mnc1SWXdK6M6srvHKsIxrWdxtzEqVk3N2nuj4Kc1n0JZ3UWQR3V3JmdU6RQbrB0mu5BMjoBgwMsrq3TyTvYopTQ+qTpOO0AwliJJ3ywqmmAlAH7XbpazrilNVnOqQT0ybE/HMqPRzIrAdZJu4lnS+E/iv6AZ7S5tOwZ5Htz69U3Y+EAip50MTeXNi8bWnR8oGKTeRdTmW1ol4rqvjWhYrPAxa2Wdcy6xZuGt1igPWP63IcDRb11+Wz5ivrsiUHdX/P48iw4WF8olJhser+Fa16wmGqOvf0+ZwtOeYnCO0G3tPTBmICDLTeWxwqYXiCHT95OHhPh0+3LnU1jIq/Wwr/k3SZXMd2ftk8tpiZxpzx4ueD+JqjqWf+21kPhBXN8hic+TgCo9dwNjYhRJaDrIv/Wirq+NaFguUDB0egOIQk3Vd2iEhpF4D7HxjvdJZ5jkwE7NBkPpj52vZfvfj+dZZZPCRassDikzsJNc7PvyDMScligKsdIR67I4NoaTzW5QZtFCwl77EDwbmAryYgnVKH6Erk0wvpv6mnxmmfobGtGns2lQfrl+9I+QEYsh8zkZG3ydW1B8yVmtZQeLMmER+PAMtUuRm9xB2TY0leWO01YH5GesKZ87H9DHUlzb/3tVxrYKpzUbN3WQxXgjSkujLg2k7K7M18Zy6yEW5IVqZp67IhFAK/K6PT+PXY/KGhAjpmbUZjCyJWcVGiheZznSOB3Z8WSmgpQ2ULXK7cEOtLUUnNsrEEXD/idbgSb6Xd1mY0ADdcjM139EeF561uXS5n2X4q81j0ARtuGO5OkQKFlIsrfo2ed0OGxFuJZY5GbKAYoXVqfQR7rxf5MJiLnJbtn4mL217P8fSXkSK3ChaOMCOuV4m6V8TYzgRdQx6XCcy5oh1SltNCMidN2/emCzudgyIi7nuuuvGKLQEu2clVmS90GshfH/ttdf2LkrNGl/ctMzT0Jo7EbyR12YrTy0hnLDEiALAxVf4D9HUWeSw2iBksJLAhPj+tDsHAZgnnOwxSxZ5gnclwltffIgJWCs6M2bMSI9VcxpK6oHx+G7atGm9TKbsErXJj77QBu/YSHW+E2sPqcv/9Kc/pQxJH3jW3qfBlfM8I3E4mMjpOxeU0QbYYEmCYcEM5UsrUghQezKoTQwptHS1n2X4q424N00TcWVYAyWGhfkyd+7clFf5wIvwMjtA5rEIT4R7jI+e+uFzSfuPkF+4cGEqK3BRsBlhYWSXiwKFOV4rMczxPAtlP8cSKxBpIrDgSmG3jKxgLhPfgEwCL/oG3XKSizkes2tveiwHWd8gx5XboeEbxhvZydiELjdtEgtk3Y033tgbU8aZ/7POwJ/EvbBRRlHHrWhdi/yuLwa2tHHR6A033NBbMzAOsIag/DDPCMxn3uF6wrVF/eIF6QqvtVKRYWAY3FmzZvUEG8KHpHd8igqM+Oijj+amG4dJcTnJ4o6ZVgdBIVzlBBTKEAqKCD4Gl//zySuYjLniHmEtBXMhZdmyZeNuHkVj1jsCFCdRnhDCVpFhsi1dujTVqkWY8W8MNpgeYy/Wa3KiVqmrq/0sw19VcOnaOyjkBOLPnj17TNwLMTB5cTDEozH/9RzK6zfznfrZQYqyxNxm4deXSma9z1itXbs2F9J+jyW5rpA/2tKrM5dnEYbsYmGiv8Nc+jmubDQJuJYTP8h1y4uDVGRQ5slkj0wXZRXFIrTWMP4ovPB/UQZv1pHly5en9cumWdyr2sVq+QlFh1K03rWFB1sXIyPAcJMy4Je5h4SjuwyqjrGwQGPlWL9+/Rjffd5gwPAoHzE0YCFiFwHNKDOx6aAxvZe9OwV6uOE7Nk8OfUZgo+B1qXSxn2X4q0tjUYdWhCzzgl1j0T1eKD1YUpYsWZJaarRVs0hQM0+pf8OGDVFxcbTDXCV1Q1FiyEGMJUoJczPmcj42eNAcI4/qjFdb3u3XuNK/devWpdbrthTWC2R67M3ast6gAMX0gxOEd955Z671UeOAEom1kHWyK2XS74RuE2LZydx6662toh1tGZMwVhMsF2isEuwGo6Ntyn1L+AJjU0ijmaKFY22h32JKw5SnbxQFDLmQjohvaJDEQghbGBCryubNm8cwFFYV/N6Y8WA66kSQY8bLKuwOqBszu5y2QriFLCiYG6GLpICcsqJfYIAQpk1oI+YoFPiM+076hcCMUZIYF72TQSkLxTVAn94FZOGdhU8T/WScMSNLAZtYJZJds5xig+dkt5I3WcrwV5kJRxyFuBU5qp51HUeVsYQGXED6ZmYUg6YLO014Bt7BkoiygvWNTQh9EUWH5/7617/2LLJYaHC5hAo8jKzA3YSsYByYT8wl8MI1jbJUxr1aZiw19tDKghCTRRscoJu5zGEB+sE8hk7mMS4AXGDIEp7VLil+C12yGcIN97RYKGSRDL2D7MS1LQWZEXMPFIHNIsPpW8xN5/0YV/gCPkS2gKmsAZamKtiACeOoT93Cv3nyX2MNrhIuwd/CC8wNZA8uUzCLUWCyxpA1CfcRFkzmIPKE+QFtrKGsZZLPS9Y86mEN0TFpIf7o5++33HLLGL5pvSLTTzC8bkfAEWgnAghb/PpSsEQMYybrdqLvVDkC7UbAKjKtjJFpN4ROnSPgCMQgwK5bJ4dkBxmy2Em9Nt+FTSIX074/4wg4AqOBgCsyozHO3ktHYOAI4O7krjIpWcHuWUSh/OCikYLbJMY9M/AOeoOOgCPQCgRaG+zbCnScCEfAEaiMALFrOmaNBF6hZG7ExsycObN3uoLGi4L3KxPnLzoCjsDQIOCKzNAMpXfEEWgXAgQPEjgoheDC66+/Pg0qzkq2RbA7ib50OgRO6MQEnrer506NI+AIDBIBdy0NEm1vyxEYMQQ4wkngruTH4IQI+Sw4gYGSwqkcTpNxwoPfdOEZbpu3GXZHDELvriPgCAQQcEXGWcQRcAT6hgDKCHlhcBfpW5vlSHNew7ilVq9eHZ2PqW8d8IodAUeg9Qi4ItP6IXICHYFuI4Ays2LFijRHDXlHCAImHbotnGoim66kTu92r516R8ARGBQCrsgMCmlvxxEYcQRIPigJCAn6JRkXbiWy9pKQKya77YhD6N13BByBDARckXG2cAQcgYEjgPISkwV24IR5g46AI9A5BPzUUueGzAl2BBwBR8ARcAQcAUHAFRnnBUfAEXAEHAFHwBHoLAKuyHR26JxwR8ARcAQcAUfAEXBFxnnAEXAEHAFHwBFwBDqLwJjbrzvbCyfcEXAEHAFHwBFwBEYSAbfIjOSwe6cdAUfAEXAEHIHhQMAVmeEYR++FI+AIOAKOgCMwkghMnjp16kh23DvtCDgCjoAj4Ag4At1GgCzh/wWhX2oBrIdPmgAAAABJRU5ErkJggg==;fontSize=17;" vertex="1" parent="1">
          <mxGeometry x="620" y="257.2949999999999" width="162" height="34.59" as="geometry" />
        </mxCell>
        <mxCell id="otfmwMb7wzkigZNuvZXS-30" value="Paraphrases" style="group;labelPosition=center;verticalLabelPosition=bottom;align=center;verticalAlign=top;fontSize=17;" vertex="1" connectable="0" parent="1">
          <mxGeometry x="910" y="244.58999999999992" width="200" height="60" as="geometry" />
        </mxCell>
        <mxCell id="otfmwMb7wzkigZNuvZXS-28" value="" style="rounded=0;whiteSpace=wrap;html=1;fillColor=light-dark(#333333, #ededed);fontColor=#E6E6E6;" vertex="1" parent="otfmwMb7wzkigZNuvZXS-30">
          <mxGeometry x="10" y="10" width="190" height="50" as="geometry" />
        </mxCell>
        <mxCell id="otfmwMb7wzkigZNuvZXS-29" value="" style="rounded=0;whiteSpace=wrap;html=1;fillColor=light-dark(#333333, #ededed);fontColor=#E6E6E6;" vertex="1" parent="otfmwMb7wzkigZNuvZXS-30">
          <mxGeometry x="5" y="4.689999999999998" width="190" height="50" as="geometry" />
        </mxCell>
        <mxCell id="otfmwMb7wzkigZNuvZXS-26" value="&lt;font style=&quot;color: rgb(230, 230, 230);&quot;&gt;Add parentheses to the if clause inside the getId function.&lt;/font&gt;" style="rounded=0;whiteSpace=wrap;html=1;fillColor=light-dark(#333333, #ededed);fontColor=#E6E6E6;" vertex="1" parent="otfmwMb7wzkigZNuvZXS-30">
          <mxGeometry width="190" height="50" as="geometry" />
        </mxCell>
        <mxCell id="otfmwMb7wzkigZNuvZXS-95" style="edgeStyle=orthogonalEdgeStyle;rounded=0;orthogonalLoop=1;jettySize=auto;html=1;entryX=0;entryY=0.6;entryDx=0;entryDy=0;entryPerimeter=0;" edge="1" parent="1" source="otfmwMb7wzkigZNuvZXS-18" target="otfmwMb7wzkigZNuvZXS-26">
          <mxGeometry relative="1" as="geometry" />
        </mxCell>
        <mxCell id="otfmwMb7wzkigZNuvZXS-96" style="edgeStyle=orthogonalEdgeStyle;rounded=0;orthogonalLoop=1;jettySize=auto;html=1;entryX=0;entryY=0.6;entryDx=0;entryDy=0;entryPerimeter=0;" edge="1" parent="1" source="otfmwMb7wzkigZNuvZXS-37" target="otfmwMb7wzkigZNuvZXS-46">
          <mxGeometry relative="1" as="geometry" />
        </mxCell>
        <mxCell id="otfmwMb7wzkigZNuvZXS-100" value="" style="endArrow=none;html=1;rounded=0;exitX=1.004;exitY=0.508;exitDx=0;exitDy=0;exitPerimeter=0;" edge="1" parent="1">
          <mxGeometry width="50" height="50" relative="1" as="geometry">
            <mxPoint x="1109.76" y="274.6" as="sourcePoint" />
            <mxPoint x="1130" y="274.6" as="targetPoint" />
          </mxGeometry>
        </mxCell>
        <mxCell id="otfmwMb7wzkigZNuvZXS-66" value="" style="edgeStyle=orthogonalEdgeStyle;rounded=0;orthogonalLoop=1;jettySize=auto;html=1;entryX=0;entryY=0.5;entryDx=0;entryDy=0;" edge="1" parent="1" source="8h9eHZ5FxwuMSg7X2r9Z-13" target="otfmwMb7wzkigZNuvZXS-5">
          <mxGeometry x="-0.0959" y="13" relative="1" as="geometry">
            <mxPoint as="offset" />
          </mxGeometry>
        </mxCell>
        <mxCell id="otfmwMb7wzkigZNuvZXS-64" style="edgeStyle=orthogonalEdgeStyle;rounded=0;orthogonalLoop=1;jettySize=auto;html=1;entryX=0;entryY=0.5;entryDx=0;entryDy=0;exitX=1;exitY=0.5;exitDx=0;exitDy=0;" edge="1" parent="1" source="otfmwMb7wzkigZNuvZXS-103" target="8h9eHZ5FxwuMSg7X2r9Z-9">
          <mxGeometry relative="1" as="geometry">
            <mxPoint x="203" y="398.9071276595745" as="sourcePoint" />
          </mxGeometry>
        </mxCell>
        <mxCell id="otfmwMb7wzkigZNuvZXS-65" style="edgeStyle=orthogonalEdgeStyle;rounded=0;orthogonalLoop=1;jettySize=auto;html=1;entryX=0;entryY=0.5;entryDx=0;entryDy=0;" edge="1" parent="1" source="8h9eHZ5FxwuMSg7X2r9Z-9" target="8h9eHZ5FxwuMSg7X2r9Z-13">
          <mxGeometry relative="1" as="geometry" />
        </mxCell>
        <mxCell id="8h9eHZ5FxwuMSg7X2r9Z-9" value="Repos" style="shape=image;verticalLabelPosition=bottom;labelBackgroundColor=default;verticalAlign=top;aspect=fixed;imageAspect=0;image=https://www.iconpacks.net/icons/2/free-folder-icon-1449-thumb.png;container=0;clipPath=inset(11.33% 6% 12% 5.67%);fontSize=17;" parent="1" vertex="1">
          <mxGeometry x="258" y="372.76658842646924" width="62" height="53.81132075471698" as="geometry" />
        </mxCell>
        <mxCell id="otfmwMb7wzkigZNuvZXS-5" value="1&#39;704 PRs&#xa;extracted" style="shape=image;verticalLabelPosition=bottom;labelBackgroundColor=default;verticalAlign=top;aspect=fixed;imageAspect=0;image=data:image/png,iVBORw0KGgoAAAANSUhEUgAAAqQAAANFCAYAAACtKe46AAAAAXNSR0IB2cksfwAAAARnQU1BAACxjwv8YQUAAAAgY0hSTQAAeiYAAICEAAD6AAAAgOgAAHUwAADqYAAAOpgAABdwnLpRPAAAAAlwSFlzAAAuIwAALiMBeKU/dgAAAAd0SU1FB+kGERAoDNK3ZEEAACAASURBVHhe7J0H2B1F2b8nIYEASegQCCV0CL1DQuiQQCCUCEpVRAVFsX3o90cRUBRQLCAIUkSqEuk1QIAk9EACoYReQq8JJZBQ8/denfPNmXfL7J4972m/ua5ziXl3p9wzO/vbZ555psfcfyfz7/TBBx+Yzz77jP9UEgEREAEREAEREAERaFMCPXr0MAsvvHBTta7XRx99ZEaPHm3Gjh3bVBVTZURABERABERABERABOpDYL311jPXX3+9GThwYH0KyJnrPMsvv/yxf/rTn3LepstFQAREQAREQAREQARalcAbb7wRrYzvvPPOTdGEnq+99lpTVESVEAEREAEREAEREAER6D4CzaQBe3Zfs1WSCIiACIiACIiACIiACHQl0Mv/J5xcBw0aJFYiIAIiIAIiIAIiIAJtROD11183/JoxdRGk7LyaZ555mrGuqpMIiIAIiIAIiIAIiEBBAj17Nu/CePPWrCBs3SYCIiACIiACIiACItBaBCRIW6u/VFsREAEREAEREAERaDsCEqRt16VqkAiIgAiIgAiIgAi0FgEJ0tbqL9VWBERABERABERABNqOgARp23WpGiQCIiACIiACIiACrUVAgrS1+ku1FQEREAEREAEREIG2IyBB2nZdqgaJgAiIgAiIgAiIQGsRkCBtrf5SbUVABERABERABESg7QhIkLZdl6pBIiACIiACIiACItBaBCRIW6u/VFsREAEREAEREAERaDsCEqRt16VqkAiIgAiIgAiIgAi0FgEJ0tbqL9VWBERABERABERABNqOgARp23WpGiQCIiACIiACIiACrUVAgrS1+ku1FQEREAEREAEREIG2I9Cr7VqkBomACIiACIiACIiACGQSeOONN8y4ceMyr0u6oF+/fmaTTTYxPXvWbt+UIC3cDbpRBERABERABERABFqXwMSJE82OO+5YUwOGDx9ubrjhhppFae2StqZm6GYREAEREAEREAEREIFWJXDTTTeZBx54oObqS5DWjFAZiIAIiIAIiIAIiEDnEnj//fdrbryW7GtGqAxEQAREQAREQAREoPUI9OjRo9BS++eff156YyVIS0eqDEVABERABERABESg+QksvPDCZqWVVspd0Ycffth8+umnue9Lu0FL9qXiVGYiIAIiIAIiIAIiIAJ5CUiQ5iWm60VABERABERABERABEolIEFaKk5lJgIiIAIiIAIiIAIikJeABGleYrpeBERABERABERABESgVAISpKXiVGYiIAIiIAIiIAIiIAJ5CUiQ5iWm60VABERABERABERABEolIEFaKk5lJgIiIAIiIAIiIAIikJeABGleYrpeBERABERABERABESgVAISpKXiVGYiIAIiIAIiIAIiIAJ5CUiQ5iWm60VABERABERABERABEolIEFaKk5lJgIiIAIiIAIiIAIikJeABGleYrpeBERABERABERABESgVAISpKXiVGYiIAIiIAIiIAIiIAJ5CUiQ5iWm60VABERABERABERABEolIEFaKk5lJgIiIAIiIAIiIAIikJeABGleYrpeBERABERABERABESgVAK9Ss1NmYmACIiACIiACIiACHQUgT333NP07t27UJsHDRpkzjzzTCNBWgifbhIBERABERABERABEYDArFmzCoOYOXOm+drXvma0ZF8YoW4UAREQAREQAREQARGolcAzzzwjQVorRN0vAiIgAiIgAiIgAiJQGwEt2dfGT3eLgAiIgAiIgAiIQEcTGDhwoFlggQWCGXzyySdm+vTpVddLkAbj04UiIAIiIAIiIAIiIAI+AcRo//79g8HMnj27y7XyIQ3GpwtFQAREQAREQAREQATqQUCCtB5UlacIiIAIiIAIiIAIiEAwAQnSYFS6UAREQAREQAREQAREoB4EJEjrQVV5ioAIiIAIiIAIiIAIBBOQIA1GpQtFQAREQAREQAREQATqQUCCtB5UlacIiIAIiIAIiIAIiEAwAQnSYFS6UAREQAREQAREQAREoB4EJEjrQVV5ioAIiIAIiIAIiIAIBBNQYPxgVLpQBERABESgCIFFF13UHHrooVW3nnrqqebDDz8skp3uEQERaEMCEqRt2KlqkgiIgAg0E4F+/fqZ0aNHV1Xpr3/9qwRpM3WS6iICDSagJfsGd4CKFwEREAEREAEREIFOJyBB2ukjQO0XAREQAREQAREQgQYTkCBtcAeoeBEQAREQAREQARHodAISpJ0+AtR+ERABERABERABEWgwAQnSBneAihcBERABERABERCBTiegXfadPgLU/m4nsOyyy5qVVlrJLL744qZPnz7RTuP333/fPPPMM+bll182c+fOLa1OyyyzTFTWkksuGZX1ySefmJkzZ5oXXnjBPPfcc6WW5VZ6vvnmM2uttZahrQsuuKB59913zRtvvGEef/xxM3v27Mz2UedVV13VLLLIIuazzz4zH3zwgXn++efNs88+az7//PPM+/NcQBlrrrmmGTBggOndu7d5++23zWuvvWaeeOIJ88UXX6Rm1atXLzN48GAzaNCgqJ1z5syJ2vrUU0+ZV155JU81Uq9dbrnlDD/GzAILLGA++uijaKw8+eSTddmp3rNnT7PKKquYlVde2fTv3z/qg/fee8+8+uqrQVxKa7gyEgER6BgCEqQd09VqaCMJ8FLfb7/9zMiRI83SSy+dWBWE6bhx48yVV14ZibciibL23XffqCwEaVJCYNxyyy3moosuisRNaPrtb38biVybfvKTn0TilrTiiiuar3/962a77bYziFI/IUZvu+02c95550Wi2E2Iu3322cd85StfSaw3wpQ6n3POOebNN99MrTICnLbZhFg84IADKv9/yJAh5qtf/arZYIMNDALMT2+99Za54YYbzN///vdIELuJuJoHH3yw2XXXXQ0hjeIS4u2qq66K6sCHQN5EvvTjDjvsUMXbzQeheO+990Y8p06dGlTEQQcdZEaNGlW59oILLjDXXHNN9P8p88ADDzR77LGHoY1xiTE6duzYqA9mzJgRe41fxrzzztvlunPPPbfLx8UvfvELM23atKB26CIREIH2IiBB2l79qdY0IYHddtvNHHHEEZG1LyshJvfaay+z5557mquvvtr84Q9/iKxhIalHjx7mS1/6kjnssMPMQgstlHkL13A94uSSSy6JBAaiLSthScQiaJMVngiZww8/3CAsk9L8888fCeUdd9zRHHnkkeauu+6KLsX69+tf/zqyNqYlBBN8hg8fbv7f//t/5u677068HB5uPS1HhOrPf/5zM2LEiNSyllhiiUiw7rTTTlFQdwQmafPNNzfHHXecWWyxxVLv52PgO9/5TiRav/vd71buz+LL33fffffonqwxA+stt9wy+tGHp5xySqYFmTxdLow50rrrrmtOOukkQ7vTEtfz4bDLLruYH/3oR2bKlCldLvfLiMuPPvcTfaMkAiLQmQTkQ9qZ/a5WdwMBBBHWw2OOOSZTWPjV4V6sVAQPzxIl3IswQdD99Kc/DRKjbnlYr772ta9FZYUI2Th0CO7vf//7qWLUL/M3v/lN5Eqw/PLLm/PPPz9TjLr3szx+8sknR8v6eRLimROCssSomycW7RNPPDGyomKt/POf/5wpRt37ad9f/vKXWIuxX3fKYMwcffTRQf3u3o8F/owzzoiW9PMmxCj3ZolRN9++ffua0047LdF6m7cOul4ERKCzCchC2tn9r9bXkQAWQCxJfmL599Zbb438IVkWRoQgerbYYguz8cYbV12ObyNi6Nvf/naiPyP3I86wkvmJ5dUJEyaYRx99NPIdxcKIb+C2224b+Uy6CZ9PrKQsuftL1GmYsAB++ctfrlzyzjvvREu6LOOTz8ILLxxZFSkToW0TovJb3/pWZJmzVjr+dv/995v77rsv8uP89NNPI79J7h82bFjV/QjpH/7wh5EVMiRRNoJ9ww03rFxOH+ACgPWTZXX6Yfvttzdrr712VZZYbhHtLNPbNnA9bB966CFDm+kHrKLcT7+5CV/a/fff3/ztb39LrerPfvazyDrqJnxm4cGP8UL5lIPLAe4GbqJtv/zlLyPrc6gvMuxxw7CWbvxmaROuAPj9Yllm+X7TTTeN+tB1b6APqPMhhxxSVQ/ugYlN88wzTzQO3MR49H10cUFQEgER6EwCPf5tvZnL8pNNWGNc/7DOxKJWi0BtBBALWOLcxMsXQcIvyadwvfXWM1gOl1pqqap7f/e735lLL700tlIsK3/ve9/rImLwfeQXt4kIUYEFlvt8H8ibb77ZHHXUUYkA8DmMW1q37UPUxgkLBM0f//jHREvh9OnTI3HDZqK4tNlmm0UuDK5vKqILa6crfuy9uAfccccdsXkh1E844YRIjMYlhCfuB0lp4sSJkUU6rlwEI/f7QplNWXvvvXdingj7Y489turvLIdTDmziEmIeZmw+chNWXKzOcQlLNu4VNjE+YEXCDxUubLCLS6uvvrr505/+1MWSygcJ4j4prbDCCubyyy+v+jOuEEk+qIkZ6Q8iIAI1EeBD37ofkVFRzffwww9HBgObWK1yDQtZlWTecf3F2VCqJfssavq7COQkYK1G7m2INZZizzzzzNQNLggC/BXZee8mrGtxG2/wBcR66ibELhYylmCTdrRTnyuuuMJ885vf7CKqEApY+fIkhCGWOdqXZOWaNGlStPkmLrEjHRGXJEa5Bwvh2WefXXU74g9RlichRvGzTRKj5EU9sdTGJTZl/fjHP44Vo1wPCz467rnnnqrb2fCVNGHjj4r11k233357JGqTxCjX8lKA24MPPlh1LxbLUPcLK0bxx2UsJYlRCmBXP+PYt75ivVYSAREQgVoISJDWQk/3ikAMAfwMfQsnQmr8+PFBvNjxjj+nm1iidZea7d/wG/Q3EbGxBQteSEJ8sDnIXzrF6ponIW6vu+66zFuuvfba2Gt+9atfRaGvslLc/SE+tm6+uEAQlikrxZU1a9YsQ11DlsPz1JUPDisMqRdjgB3nIUvYLI/zAeJaG/EjZad7aOJe/FZDogE88sgjXcR6Xl/e0HrpOhEQgc4hIEHaOX2tlnYTAXbIu4m4lixz50mEC3KXQ7jXXybH2sZOZzdhYRwzZkyeoqJd0jbsj72Rsnw/yqRMETG+gE66Fp9E32rLUu8DDzwQVGeWyBGFbsqziQchiktCSPLDUnEPYaBC/Wvj7o+rK/9GtAM3YWkOiddq7yH2Ka4SbsIFwPXZTWvzxRdfHMUZDU34mLqJzWlKIiACIlALAW1qqoWe7hUBjwAicf3116/61+uvv958/PHHuVhh9Tr++OOrdlr7S6lsgPLD5CAsQqx3fmW4j800roBhGZbNUFmJpfQ8voBszGHnuU2TJ0/OKqLq75TFDu8iCUEZmqinn/LUNZQJlm9XqOKuwaa3vIm2sckLXywSbgBrrLFGUDzbPFzImw1JbmKDmpIIiIAI1EJAgrQWerpXBDwC7FT3rVJJG2uy4CFk05IvfNmNza7vIokNN/zcDY3+Du6kfPMG8Pf9Y7Eg50n+/XnuzRN0Pa6cPHUNjR/LZi834UfsW8dD2ojlmPaxMc4mNoJl9Q+bHOLEd1qZ/mlZcYHvQ+qsa0RABETAEpAg1VgQgRIJ+OF+yDrEX7FIFbB+uYkNJ6EiKK48Nsa4gjSuLXH35S3Tt+CG+C265RaxANv78yyDx5WTp66h9fT7Eas3wf+LJN+f2A2An5QfbhRKIiACItBoAhKkje4Bld9WBIiZ6SZ8HvMKtlAg/maePMd/xpXh388mG0Is5XU3CK2/rvsPAT8+J0v4cRvYivAi3FJWqsXinJW3/i4CIiACoQS0qSmUlK4TgQACfkzP0A0wAVl3ucQP65NnU0pceXH3h4YOKlJ/3RMvSMvk4ovduLz9CAtllq+8REAERCCUgARpKCldJwIBBNzQPVyeZ4k3IPuqSzj9xk2hS8RJ5cQJE7+MvHXU9Y0lYDc4NbYWKl0EREAEsgloyT6bka4QgWACtYQkCi7kvxdi0XQtmL51Nm9+cUHba7W65q1DJ17PRimO5rSJAPUhMV1DWMndIoSSrhEBEWgGAhKkzdALqkPbEPCDuxN6h133tVov4wD5YtEPxp8Xqn8/O73r5f+at27tfD2CdLXVVqs08fXXXw+OldrOXNQ2ERCBziIgQdpZ/a3W1pkAYsJNLOEvu+yy5qWXXspdMuGAXKHCbmj3uEvikq6zzjqVfAk5xS7rkNN94irjhgvi708//XTuOuuG/ASIwjBkyJDKjQMHDsyfie4QAREQgRYnIEHa4h2o6jcXAc4W99MWW2xRSJByRvkmm2xSye6yyy6rEqScluOeCsWOeILl33vvvbmhYMn1wzz5p/HkzlQ3BBEg7qibOCUL310/1mdIZhw44Aapf/PNNw2RHpREQAREoNkJaFNTs/eQ6tdSBIgFOmfOnKo6c4Rj3oQ/qG+x5AxxN91///1dzqDnbPsiaZ999olEkJuKCNsiZXf6PX4gfPp+m222yY0F15Czzz7bXHjhhZVf6PGvuQvTDSIgAiJQMgEJ0pKBKrvOJoDf5dixY6sgYPHKKzBGjx5t3NNv2K3vn/iE9Wv8+PFVZbH0u9VWW+XqBGJV7r///lX34GIgQZoLY+GL8TseN25c1f3f/va3q/o/JPOhQ4dGx4XahIX1gQceCLlV14iACIhAwwlIkDa8C1SBdiNw6aWXdmnSUUcdZUJ9A1deeWXz9a9/vSoPhKe/YYoLLrrooi5l/eIXvzCrrrpqEFZ2d5900kmG04HcxNn2ik8ZhLCUi/wxwwlLRx99tOnZM2yKXmCBBcyPfvSjqrrgb9wsQe/jNvX5Y64UkMpEBESgZQmEzXYt2zxVXAS6nwCbga6++uqqghF+Z511lsk6H54Tek4//XSDwLAJq+uZZ54Z2xB8VseMGVP1N4Khs3S78847pzaess477zyzyiqrVF3HEaJXXHFF94Pr4BIfffRRc9VVV1URoP9OPfXUzA+ZZZZZJhof+I/axMfEBRdc0DRE44Tx8OHDm6Z+qogIiEDjCWhTU+P7QDVoQwK///3vzUYbbRTtsLeJsEp//etfzX333RdtTuKoTqyeffv2jUQhy/qbb755FxrnnnuuefHFFxMpnXLKKWb99dev2pFPnr/61a/MgQceGIUQmjZtmpk5c6bBP5Hz6rfbbjvDLn4/cQ0WVllHu39Q/uEPf4jGzHLLLVcpnPHwr3/9y9x5553Rz44ZNrAhQNkwt8MOO3RZ3udDg937zZIYV7NnzzbuwRGHH354tCmPsFdEhsCKynPTTPVuFn6qhwh0AgEJ0k7oZbWx2wkQvxM/wNNOO82454mzBIuI4BeSrr32WnPOOeekXkrw88MOO8z86U9/Muuuu27VtYSNckNHpWVEyCpEwmuvvRZSNV1TMgHGzKGHHhqNGT4abMKXmA8IfiHppptuiqzxzZT4wJk0aZLZeuutq6qFdZefTXxIKYmACHQmAS3Zd2a/q9XdQABhd8ghh5jbb789d2lsSGHpHitnSMLS+p3vfMf885//LBQuiDoSZmr69OkhxemaOhFgo9o3vvENg6jMm3DtwFUD39MiIaPylpf3esZzs/i05q27rhcBEag/AVlI689YJXQwgXfffdcceeSRke/oQQcdFMUVTdvMwbImu/TZVPTCCy/kIke4qZNPPtkQrxQhvO2226aWhdUK94Hzzz9fu7Fzka7vxXxc/OxnPzNsdDrggAMiNw7Xp9gvHcuqHTPN/EHx3HPPmX333TdqE/7LuLDQLj/cWH3pKncREIFmJdDjmGOOmXvcccdV6rfIIotULRc1a8VVLxFoRQIsv+LvufTSSxueNZYosRpxDOgTTzxhiGNalnWLsgg5xfLv4osvHolTwkchkvFJZUPUrFmzWhFjR9WZfiQm7YABA6Iz7/EDRoTSj4wZNtFhHVUSAREQgSwCrNy9+uqrNWs+3h/uvENkl/79+2cVX/k7xhf2NtjUu3dvIwtpMD5dKAK1E0AQ4kvXHYmyOG1JJy51B+36lUE/cgiCkgiIgAi0MwH5kLZz76ptIiACIiACIiACItACBCRIW6CTVEUREAEREAEREAERaGcCEqTt3LtqmwiIgAiIgAiIgAi0AAEJ0hboJFVRBERABERABERABNqZgARpO/eu2iYCIiACIiACIiACLUBAgrQFOklVFAEREAEREAEREIF2JiBB2s69q7aJgAiIgAiIgAiIQAsQkCBtgU5SFUVABERABERABESgnQlIkLZz76ptIiACIiACIiACItACBCRIW6CTVEUREAEREAEREAERaGcCEqTt3LtqmwiIgAiIgAiIgAi0AAEJ0hboJFVRBERABERABERABNqZgARpO/eu2iYCIiACIiACIiACLUBAgrQFOklVFAEREAEREAEREIF2JiBB2s69q7aJgAiIgAiIgAiIQAsQkCBtgU5SFUVABERABERABESgnQlIkLZz76ptIiACIiACIiACItACBCRIW6CTVEUREAEREAEREAERaGcCvZqpcXPmzDFvvPGG+fzzz5upWqqLCIiACIiACIiACCQS6Nmzp1lsscVMv379RKkggaYRpF988YV56qmnzKefflqwKbpNBERABERABERABBpDYMaMGWattdYy8803X2Mq0OKlNs2S/ccffywx2uKDSdUXAREQAREQgU4lMHfuXDNr1qxObX7N7W4aQUpHKomACIiACIiACIiACHQegaZZsvfR44+xxx57dF6PqMUiIAIiIAIiIAItQeD22283M2fObIm6Nnslm1qQDh8+vNn5qX4iIAIiIAIiIAIdSmDKlCkSpCX1fdMs2ZfUHmUjAiIgAiIgAiIgAiLQYgQkSFusw1RdERABERABERABEWg3AhKk7dajao8IiIAIiIAIiIAItBgBCdIW6zBVVwREQAREQAREQATajYAEabv1qNojAiIgAiIgAiIgAi1GQIK0xTpM1RUBERABERABERCBdiMgQdpuPar2iIAIiIAIiIAIiECLEZAgbbEOU3VFQAREQAREQAREoN0ISJC2W4+qPSIgAiIgAiIgAiLQYgQkSFusw1RdERABERABERABEWg3AhKk7dajao8IiIAIiIAIiIAItBgBCdIW6zBVVwREQAREQAREQATajYAEabv1qNojAiIgAiIgAiIgAi1GQIK0xTpM1RUBERABERABERCBdiMgQdpuPar2iIAIiIAIiIAIiECLEejVYvUttbpLL720WWaZZXLlOXfuXPPJJ5+YOXPmmLffftu8++67QfevvfbaZr755ouunTlzpnnuueeC7tNFIuASmHfeec0666xT+acXX3zRvPXWW6VCWmyxxcygQYMqeT722GPReFcSAZ9Ar169zHrrrVf555dfftm88cYbHQmqVZ6bVnsXFanvcsstZ1ZccUWzyCKLmN69e0fv7Ndee83cf//9HTk2W6XRHS1IEaMbbbRRTX314YcfmkceecRMmzbNfPbZZ4l5ISL69esX/R0xKkFaE/aOvRlB6o5ZhGI9BKlbBmNVgrRjh1xqwxGk7lj59NNPO1qQtsJz02rvojz1ZTzutNNOZtlll+0ybhdccEEJ0iafxjpakJbRNwzyzTff3Ky22mrmpptuMh988EEZ2SoPERABEWgIgU033dQsueSSUdnMZxMmTGhIPVSoCOQlsOWWW8aK0bz56PrGEJAgdbh/9NFHqZagnj17Rsvu888/f5feWnTRRc3OO+9srrrqqmh5QEkEREAEWpEAc5l1ZZoxY0YrNkF17kACffr0Mauuumql5VjrH3300ci1jhT33u5ATE3dZAlSp3sefvhhwy8rsWzKkgC+U0sssUTl8oUXXthsvPHG5u67787KQn8XAREQARFoIwIYIlwB//nnnzdl69577z2DWCPhctbsKbS+WPV79OhRac6kSZMM/u9KrUNAgrRAXzHx4Ff3/PPPm6233jparrdpjTXWMJMnTzYff/xxgZx1iwiIgAiIQCsSeOGFFwy/Zk833HBDs1exqn6h9bWbhu3Nb775Zku1U5U1RmGfahgF7Li/4447zKxZsyq54FTN7n0lERABERABERCB7iHgWkcpMW2TcffUSKXkJSBBmpeYdz3LMs8880zVv9oNATVmrdtFQAREQAREQAREoCMIaMm+hG5+5513qnLBubqstMACC0Tx1BC5/DcWWNwBiGX60ksvmVdffTV3UeSx/PLLR3kutNBC0UYtvi4J7UPe77//vnnllVdyh28hP3xriceHAzl54quEnxK+VdQ3NG6r2yjyweq8wgorRKGzyJsPASzTLMvgOjF79uzcHPLcYOtAPYhtRx/bvoAZdSH+Im384osv8mQdXQs7Yn/2798/6me+7tlkRz+QZ61hl+aZZ56ob4jPR/4wtH1N7EjKqafPG77WdlMBY4KYgCS4LrXUUpW+ddvOZgRcY+BQJNFPtJdNOkTDIB4hZdNu8iT/6dOnZ7rXkIe1vvCsu3535LvyyitXns+HHnrIEBs2LlE+eQ0cODCqD2OI+uAjx3PMfVlWHfgsvvjilezdsvBtX2WVVSK/dvJnfDJuePa4LmkJk2t5Zm1yN3+QJ3OFm6hrVj25njFHW2kzzy3zDOzZuc+YK/qslD0nUi/mFp5Bnj/azLNAXemb119/PXo+strsc2SMW1/NuPFg+dg5hXrYONcwYnzSb2XPbWxYY2yQ7HPg1486MV5JMOBnE5xWWmmlqE/pC9pIPowLXBbK3tSbVl93bLpjmLrSBhtqkf8Pz6JzSZH5R/fkJyBBmp9Zlzv8ico+7LVkzYNO+BXXP9XNjweRTVU8ZLfffnskULMS9Vp//fXNuuuuW5mQku5hcxbxLcePH5+ZNy+dLbbYInrxpyWu4UV01113VU1waffwst9ss81M3759Yy+DD/kiBKZMmRJN6GUndm5usskmiXVwbZYDJwAAIABJREFUy2PCu/POO4N9yZhsCVXChri4RPt4OT7++OMGJ/28CSG15pprRvX3faxsXgSeRrg88MADUTzdeiTiM9qXBwLpsssui4QoPthpbadvn3322WijYKgo54XJfeSflXh2GTsPPvhg4tjZYYcdKi9nnoennnoqEqi0iWcQYWFT3Mcof+c6nr24uYHnZ/DgwdHLkmeDD6ykRJt23HHHyp/POuus6L/Jm/q4dbEX8aGz4YYbRs8e9fdfypS/zTbbxBbJczdixIiqv11yySVVbkpxN/LcDh06NBLdcWmttdaKPk4JKRUaSL/sORHBxXPB8xHHzdabvkOcMr8Qczop+Rz/9a9/Jc6dtJ8+ydr5zcftE088Ye67775UcZs1zt2/88y5MbHHjRvX5Xb6zs7n7Ingh/Fi++23r/ogcm9kroITdaXOZaW0+vpj0y2TedVNt9xyS+qzVVZ9lU9xAlqyL86ucicTpZtq3dDEl90+++yTKEbdsrCW7LnnnpEVNS0hRnbddddoEgwVzFha9thjj0TBQHm8SHfZZZdMMWrrhpWOPF0rT1y9CbHF5McvSYza+3iZ8DIm7BbWjTLTsGHDzLbbbptZB1smY4HAzG74kaT6IPrpkyRB5rYP0bj77rtnvsDcsuhnmDAxJ4lRez3Cgetoq++LVSZPmxcv71GjRmW2nbpg9eN5yBoz5M1LkXxDxCjXw4h+oJ9DE3XabrvtomcpTciQH1Yznk/KyHruGDuITT5E8yQEM/dk1YVnDzZZYyFP2XHX8jHAc5u1UsS4HzlyZCXmaVq5Zc+J1I3niecqixv1ghnt4vmoNTF2EHxZYpRymAeZY6lr2XNbnnbwPDGOs55BOG211VYRVyURyEtAFtK8xGKu948fdTc55c2evBAR7iTJMiFLISzj8DJkKZIlEyvUeNHxArj22msTrQ1YQFzfViyJ9pg/liD5EmeCRCjwYyIkYUVAqFx33XVdmkJ+TKyugLHLgyz7Y33iJTtgwIDIOmbzZNKivljJ4paJyW/48OHRUp9N5IXlCGsKS0K2ru5yKi9cXhgcUFBGwpKM9cRN9AXLaDCjHrQFDiz5uS8MuFDfpGU+xAw/N2G5whqI5ciyYzzQLpiwJJVkyfLbaxnSl26if6iXHUuMIepuXzQI6ayXTq1sEQOu8MXySbux8rP8R9/SZupuxxb3IF6uueaaRKsT/cDL0I4z6kk/0V7GI+UwnhFCfMC5HzpEx8DyyfJsVtpggw2iZfq45FroaQdCwi2HPsYNgX5g7GOpwoLpMsfaSV1DQtBhvWMuIHEPLgismvBRzNiEoXsMLEvSiFc2Y9rkhyuiTna5ljq6y7Xck+aSYpfo7XU8KzCl3cxp9BFjzIpz/pcxPWbMmETs9ZgTKdNd0eF5o67MLyyR035Y2aVpWznqztL0k08+mTVMYv9Of/GB5SbywyXAuoIwXqxLlb2OujKnsBrW3cnO13Z+s65JvOcY7zxPfAjy8WUTq1qMxXofFOOG2aKebh3sO8jWKc19oruZqrx4AhKkNY4MJgrfOmn94/JmzUuXr2crRpkkJ06c2GXTFPmyfMuL0R5Vx0sY68qll17aZWmHCR3RYRO+ZCzTxAlnXoIIn912260isLgfYekv9fHidMUo5wSz9Okn8mSSRWRaPx+Wf3hRIkT8RL6uGMXXjKU9v3yWz8gPZoh0Eu1ESIa8zNP6hxeSf0TnzTffHCtYiHVH3/EhYePSMnlTl7j2cY1/ZO3UqVOjY+38lz3/TtsQcIgW286sscVxe64YZTJGhPgb8MiH5TjqytIY7QgtI6sOSX93VxRwEbj33nu7CHf6j2eLvrXCgRcOQoLDJ+JcM3gJWjHK33GdYOkw7lrKxCqKELUJsZElSHn5Mr5s4kORPuY+hIzbf75lHdcAWPsfYSwFM4fA3770aQt5ZoWusdZU2kmbfP89xibiBqu9ZUM777nnngpzP1wRy6DWvQIxyodjaLLPLfW+7bbbog8BNyHkGNOsDFihDlMsoHHzZj3mRMaT63vIB+DYsWO71JV6s/yMtW/IkCGVZiAqiwhS+Ltjh/mdZWTmNz8xJmBCv1mLNkKWeb+7Y4fiXsA8z/i+9dZbY/ctMLZ5/9gjO3mHIVIZ7/VM7tikPPeDHcNEiCtbPeunvPMR0JJ9Pl5VVyMQmLxdiwyTW9GzxREp9mXNS5RJMk5AUAlefDzsvHRt4l6EiJ/c5WPuSxKj9j6sgL6wdJ3D7XWuxZV2x4lRey3ilwnCfWG7ItlexxeuK9aw4sIhyRmdumI1c604CPVal7cQy9ZKRN3wYUwTK1in8P9zExaWuMTSnyvk4caLL8nyxKSKhdrfPJc0dGk7S8Q2MZbo86SxxHVYMyij7A0JaY8XHxSM3yQrMtYP6uRuhEPMr7766l2yRdy44dYQaPjdJvkU8+/0l+teEzfG/YIQJzzv9Dfjjo8UBKldZbDXY1lzz9PGPxcxkbRxDCvu9ddfX2HB+MC/MStxHeKID9ekvsPy536gYZV0D/TIKiPv3+149cWozYd/dy20/HtSqLx6zIm+OwfzaFJdqRun/TCWbEJA80GdN9kNmfa+p59+OlaM2r8j0N05hb72N5jlrUOR6ymXZ5QVuKRNtHzw8gHiPssKf1iEdmffI0Hq9D8Cgoco6YfFyVrgsIbhU+P7N/LiKbKxhuU990WL5ShkBz3XsdxjE4LUFcj8u7s0heUixKXAt8zE+Z25PmIhbaZc2sTkxS/ON9StPy9vLKNZeSMq3PO2qatr+SryiLs7NhGKaRtNbP58iLh1jWOG9REXBpsQ0iFWBMQGG1KyWJCvuyTK/2cpOs4K43NBAGKl7Y5EuxHhWQnhh9hyEz51fvI31MVZpv17GF+uyA/xrUTMMR4I1p32gYKV3ya4pn2sueMHS5NNzDdZ7hOMi5CT4XweWX7LWf2S9nfEZtaOdMaj+zEQZ5Wv15zo+7aGPFN8zNl5i/9N+thM41KkXNw76GNbdshHUy19l3Qv4zIrQgrPKgYEm+o5xurRRuXZeAJasnf6gBdd3MsutJtYHmMCKZKwyLmbHvgqD01YmuzyLC9VBI8rZqmXG8IjJN+QlzNLONZnhxcKQoiv/rSUdeqG61+FCAxdnkIcIAit5YcPh1qW7ZlYrf8TL9eQkEgwztoQ5Lt30M+hYaIQT7zIs6wkfhl5OGAJwroa0v8h4yjpGuoU2m76FmuRtbgg0rBQuVZx+sq1Jtnzq7Pq6LYzq+9sXnwEpuXPi9gVkvRxiOghf67Ft9h+VDIvpJVlhVJWO31fvnr1L6Ily+3B1pUPVFuPuBWNes2JfhglPh543tNWBxh/5513Xhbm1L/75TLXMZZcP0g/A56Rv//97zWVW8bNroU4LT/X2FGvMVZGe5RHcxKQhbSEfmHSYDnOX7LNk7Xr78dD7W8kSMsLC6n7wnOXCrkPCxmilJ/7BZuUJ1//IcuFvtUNnzl2/OJz6ltpQ1ggal3/QtfyG3K/Wx9Eedau5rQ84WSZhfiL8UJlQ01W8g9NYKk8T8qy1CKq3OVYliLz+FExlvPWKU/97bVZ7fDz9D/0/GVX2mj7i//Ncj2AE76AfuzCkLZkhbTxNzmGrHTYcqm3uzrhP8t+/ULFny/+Q3aWh7Dwr8njP+/WKa4+9ZoTebbd+ZKPh7333jvyFXU3xRRpf9o9PIuuawBzBhFH8BfOCplXdl3y5Me7KDQWalaf5ilX13YeAVlIC/Y5VjMsF4gmvh5rDbjrvhiZnNlRmSdhwbMCLM9SCZMi19sfgglLVIi1iKVmNjG4kzi+c/x4sdrg+rxg+WVZxHxx4O8+zuLhLvtRf6xooX6XWXm7f6d/yNv6kiEAEQ4hAtitow2on6fsLP9kGwDe5lmk/YzrpPi3eeqadC0fXKExRW0evgsJIoIPrZDEWGCp045xXv70lx+uLSQvnvM0ixZ5+OOYjSyhFlLud8MBZT3LIe43Ie0q65rQFY2Q8uo1J8KMTUOurzrPDRuX+DH+EdaMOXaUl8kYn2l33wFzBh9G/CjHnTOzxlkIwzKuKbNPy6iP8mhfAhKkTt+GBAbnxYI/T5a4yjtkXP8iXkjsbCya0vybeMEhIrEgYmUq8lK29WKiYsczVlHfYoXQZenYLh/DzJ5Ggz9bnAXL97GK2/SUhwkipIgg88ugP6gLbYQbfEMEe1xd3WWsIi+6rHv8ZbKs6+PqWOSePP1SJH//pZgW45IPBsY4H1b0F8KmiMU+rk0hIsGvWy1uQDxH9oSjuPqEuJLk6Ztar83yHc2Tfz3nRD6m+SAkSoH/IcnHjutygRsCqy+4R2R9EGa1D+ssbkvsBvd96Pn/7COwewn4+OF6VhPYmJbnoyarHnn+Xmaf5ilX13YeAQlSp8958PJabsoaMu6O7lrzjFv+wirE17+/nOiXhVC0/ph+aKK4eiEUrr766iiEExuJsDzFvfxpH6KOH0tUbJ5hadVNZTIg3xCLZRprXojUFd/YNEFjN8ewtJ8VYN2tU5G4eFn3+Ayzro9rf5F78ozZIvn7L8U4n0MbVgefwLQoC7zYWYbkRY9wzdo45LYtZOmy7HGctrzeKJGSp7+LXlsmxziG+OviCsJSPf6cSQdwWMs6Gy6xYLLJrpb4mnyYE56PGMfMLUkRDzAWsFLBj6V+ys3j/lGUu+4TgUYRkCBtFHmvXISwtVYi8kJ2CSdV3RfViFCWiXyBxtIUExwvZyY8LAHWEpUlXP2ybSxDXiLWkshEy3/74oD/j0sCFkxiJ9rk15uXRRFrms0va1doWtfTF8Ri9cO7wImXEnlbZvyvFQZZghTBby0/RQRz1kvatzzXo4xaH5msNsTl79/jtxOLNXEQfas6Y4r+wlJOP9lzua3AdSMehLQrREz74zjPprK4OnSqhaqec6LljBUS/39+CE/GA25L/OL8OvFrxe+Tj/C0UFFZY4mPWAQxP3t4CHMlcyZl+x/ArMpwIh7h25hrlUSgHQlIkDZJrzIxWkHKf7tCrZYqIv4ILu7v4CcMTYi1J2/ZvLBZZrKbp+wmGywQLEW5wgLfOjbQ2I0Qvh8uPoIsVTUiEaTcFaOIGsLr5NkgFFdvXrJWkGYdiRp3f1bYF18MFSmjyD15+qhI/n67/eN5GUuuGEUs4K/nb/jLU8+4a0Mskv5zhStQp4rKWnjXa05MqhMfmfzspjWeU7vy425GxIWHDYxxp9cVaa89vctu3GOuxiCAZdSewkW+iFSW+i+55JLMTXtF6qF7RKDRBLTLvtE98N/yXV/HLNGRp8occej6iRIiCmFVDzGa9AJncwBlskzlLzm5sVd9f88yOeRhZv1s7T3U/8Ybb6xZjJKf20ZeeHnbmBXQnJebK+z9Xf0hHLLKCMkj7RoEacg53m4e/kYh15eTjx737Gw+igji7e+mrrXeoff747hIzMrQstr5unrNiaHM+LhDnOInz5Gd7r4BBGPeZze0XHuMKdbQK664oir0HQYG9yjY0Dx1nQi0AgFZSJukl9jNacUZQgW/ttBYinw5c/qPTVgdrYXSX5IMjW+aFf6E5SU33iW7VrNC7SCUOM3jgAMOqNTV3UXM8jwuA7Zs/FF9P9O07mKitqFieHlwPGKR5DMjikLIJrYQyx/+ue456Py3Gww9q74hLyPGku0b6kRf8W8hibGUFec0JJ+sa7D85Olbfyne3XWPMHDHa574tVnjPKsdcX/3QzExJkM2Q9m82HFtxxIWeWJVdmKq15yIb7xdqWEchcSOJr4y8wJ+nzaxgpLHlxR/UfthhdgNee55B3CABKtcNmVFXujEsaI2twcBWUibpB8Rka7oiTsCNKmqbMxgV779uTtvfUtUaHgq97jRuHLJl2VS+wu1qlG+u3zpCz335YAwyjP5ElDcMigSX9K2098lHRr2xA3qn9RXiCW3zVj2Qo855SPFnhWeNmz9I0I5SjU0sSO8OwJaM25CY2HaME22DfiButazomMcoV4P6yXuAm79GJOhbWXsEQPYjuO8luTQfm6F6+o1J/JRZ+ct17KexcSPDR3ivuHmyRxpy0UUh/p3++WGfBxntUV/F4FmJCBB2iS9whK6u5EJQeha0pKqyYvOPbccK6NrDfM3YYQIPKwAfkBuP8yRvywZKqAp352I/U1LrjWIMgm2H7IJBlbubulaNoX5/n4hzCgbQeymuNBQCHI3KDzuFFkbocgT0Yr/WEi4KV7krohG2IeEHkLEhxyIUMYjg1UzJNYuYwV/Xjf5p8YUGeOI7pCDDIq21bX+InrdFYy0PHmW3Q0ttYzjonV3hVaoaCpaVtp99ZoT3bnLbmIKqb//0Z3HOkr+7ooX83ZoaD8/CkQtGz1D2qlrRKBRBCRIG0U+plxCIbnL3izTIHKSrCtYT3baaaeqQNz+kYz+Jhxe7kkWOf598803jxVI/j1Mxu6pLIgeXvBp8SFZHkVguslfLsMagJ+rTbwERo0alRqaBzHqihbEWGjQ9Lju95dXEQlJFlcEIuGu2JHvv7yTOLME54oo6s8O8SR2CGLyDz3NBQuKf7454g+rTFL4Kvpv5MiRQeK/rEcGbsSwTWo344Wdxa4QYNOJv9SPRdJdFcAC5vom+/UlPumee+5p/PPTQy3VIe1n/LkxK/kgoK1JcX/pF2Jiuh8OfLjUEikipJ5x17gfZLgOFPFDLlq2f1895kR/bmAOzToRi35xNxjZqA152kl/umz5+MNCm2Y9RzC7H4nddZJannbpWhEoi4B8SMsiWUI+fPnecccdkb8QQocfYohJC6sX4hLByouTlzR+da4IYsOQ/7Jm+ZYlW2tZ42t7v/32i4I8I/6YILEW8e9MyvalzNe8+2Vul5Z5QdojPfHRJASKFTkIDHaGsjMeUWfdAxDOTKz83MkXX7u4YyoJwYJosOUjBvfaa68oPiptJF+sOFjZEFKuUOPfx48fH3T2fFKXIbTpC+vHBxMEDHXF54wd3vaEK5jZ6/ALg6f9//QP3BCf7vGj5M0OcNfiic8ny/GUwcuOMuDGsjJl2P6j/BCBwMuPDRn0CYn7EaRYvwkbQ98j4hB9MHQFd2gZRYe8HReIM17ylM+YYczRbutDDT9XQMM2rm/5d9rrukzwgULbCWiOpY1xR7/gz2nbylhhnNr/jyWT5w0uRKGoJSEc2Aiz++67V1wgbFvx70as2nohjBHRrljlb4yRRiQ3nBH8ecapD1xgds0111RZ4OtZx3rMicwhPAPWHxvufPjQbsYhZdp5lo9Bxoy7gQkGzFF5E/MA9xEPmgRb/pvnkvpQPpyZ0xmrbJzyraMYHLprQ2re9ul6EaiVgARprQRLvp8lOiY8LIlWvPGCTrP4UAUm2ZtvvrnLaR4ISE4lcZf1EVNpS7gIv7Fjx5p99tmn8pJEAPMjLytIERC8dBFWtq5Mskz0WZtvuPeWW26JPX2EFx8hVbBcuPFQrahNQs591MfWr2jXwH/ChAlm5513rggi2uWePOXnjci6/vrrI/FvhRH9xgsHgesKUu5lkwQikeV6y44XEdbSJFcNrNJ8sIwePTqoaQTSRhi5fc3LN63vbTzZENEbVImYixDutAO+jEXabY+cTcoTgcCY9I8QtdcTJo2PGHeTEmLeP0HMXm8FI+W7LhPW7aJWQUo5PHuIN8SOrRdtzXo+sPBzmk+jhAdzEIcLuO4hri9riNtI0bERd1/ZcyJl8GEzfPjwaMzYxAdJlk+pXX3gQ6dIYlMp4tZ1ccIgkDW/UxaWXSzGSiLQrgQkSJuwZ1nGRrBxShAvr7QXAEJo6tSpUYDlJCd7dsBjeWLpJ21Zkhcg19pd5fxv1mlNvCyw3LLciIUv62WFGGFJni/9tGMPESAIPCZqxHTWEadYNhAlZS1xImoRBYgVPzi+O2RoA36vljFWyZDNTfYFg8BCtGYtGfIywiId4k/r1g8rG1ZXfBjTfGGxMtIG+iW0/rU8Ovg5X3755VG90j5eEACMMfo2TaDxHCD+cBuxkRaS6gcP3CYYK3YTUZqrSS3t5NkYM2ZM5HqDz2CaTyZ9wIeLv0xdS/lF7sVqTDQM3HfqEYWgSJ3KnhPt/IIAJapByOYxLNv0Ta3Hh/Ic85HKvBbihsMY4tlshD9xkb7SPSJQlECPY445Zu5xxx1XuZ/lI9dXpmjGee/jheJuVmDiPv300/Nmk+t6lkXcpRiWTEJ3VOcq6N8XY3GyljBEWWiAdV6Udlma/0ZQMpliLeOljmU0dNclTBGN1IW2Ux/qQpvJh/z8vNhcZY8DZZmXF2aSMz+iETHAJMuLjPLIjzJgi/jiF1pfy9gG16celMHLA/FNvgh3xGPeDQah/UfZ9kx0hCmCEP6MV9pC2f6mGiy5cKO/YMvL1A8F5JdPfyDMsNLQRtpHGYgDxLYVY/SZa72kT0IjJ9hd+vQNDKk3+VI32mH92/ibK155Adca2J2Twmw4Kdp02WWXVRDQXsYlFniYMT5s2xGPfhD8rL5jDiM/2kB+9khgXCGwbPm8YI8wYS6gLJ4FN1IB/Wk/tOjPoif02IDnWG1hbOtGfWBM3bJCp3GP6/vK+A85PYr6u+HMeF5CNsfAhv5xXW0Y9/ZjkpUD1wqdZw5lPNoPLNrtb5RM6ucy50TKsGwYf4wZ5ljaBVf6m7ma5yPrOSvy3NCXzC/8L+2CM+OV55JnG+Ea+q7Iei7s30PeRbCwH088E6Fhy5i/3I8Yd59BaP3860Lqyz1F+Betk3vfCSecUHV6FvN4LVFeyqhTWh70iRsPvKjmw3jhzj288/JELWGMu5uYmQs6WpDWu+OVvwiIwH8IpAlSMRIBERCBViUgQfqfnitDkGqXfas+Baq3CIiACIiACIiACLQJAQnSNulINUMEREAEREAEREAEWpWABGmr9pzqLQIiIAIiIAIiIAJtQkCCtE06Us0QAREQAREQAREQgVYlIEHaqj2neouACIiACIiACIhAmxCQIG2TjlQzREAEREAEREAERKBVCSgwfqv2nOotAi1EgAMDbOw74scqiYAIiIAIiIBLQIJU40EERKDuBDiSVEkEREAEREAEkghoyV5jQwREQAREQAREQAREoKEEJEgbil+Fi4AIiIAIiIAIiIAISJBqDIiACIiACIiACIiACDSUgARpQ/GrcBEQAREQAREQAREQAQlSjQEREAEREAEREAEREIGGEpAgbSh+FS4CIiACIiACIiACIiBBqjEgAiIgAiIgAiIgAiLQUAISpA3Fr8JFQAREQAREQAREQAQkSDUGREAEREAEREAEREAEGkpAgrSh+FW4CIiACIiACIiACIiABKnGgAiIgAiIgAiIgAiIQEMJ6Cz7huJX4SLQugSWXHJJM88880QNmDNnjpk5c2brNqYNa77EEkuYXr3+b4p/8803zeeff15qS+l/xoFN7733nvnoo49KLUOZ/R+B/v37mwUXXDD6h7lz55rXX3+9Y/AsvPDCZv7554/a+8UXX5g33nijY9reKQ2VIO2UnlY7RaBkAttvv73p169flOtzzz1nxo0bV3IJyq4WAltvvbVZdNFFK1lccsklZtasWbVk2eVeBMJuu+1W+fe77rrLPPbYY6WWocz+j8A666xj1lprregfPv30U3Peeed1DJ7111/frLbaalF7+QC+4IILOqbtndJQCdIG9vRSSy1lll122UoNpk6daj777LOG1YgH3lq8sKa89NJLDauLCq6dQLONr9pb1Lk5qC/bs+8XWGABs+aaa1Ya9+yzz5p33323PRurVolABgEJ0gYOEV4yG220UaUGWBYaKUg32GAD07t376g+1EWCtIGDo4Sim218ldCkjs1CfdmeXY8gdd8BM2bMkCBtz65WqwIIaFNTACRdIgIiIAIiIAIiIAIiUD8CspDWj61yFoG2JnDFFVeYHj16RG0se7NMW4NT40RABERABLoQkCDVoBABEShE4OOPPy50n24SAREQAREQAZ+Aluw1JkRABERABERABERABBpKQBbSAvgXW2wxs/jii0fx4Ijzx0ak2bNnR87oWbH+3LiAdke7rQJ/c/9OrDV+aWmhhRYy1If4dGxIIjYdITH44SBPbEj+LS5Rvl1y5e/uf/fs2bOqLvw9ZMMV9R84cGAUDoiQMCzlfvjhh1HMuNDdo2kM/PxpJ7EPX3755URW8803X6VO/Pcnn3wS1YUYftxfJJXdTji5/QS7ZZZZJhpj1Blr5AcffGBeffXV6L+TUtnjK42NWxZ1j1u2z+pL2shYYXMHYWyIYfnaa69Fbe2ORLkDBgwwPEc8P4wHymY8UR/32bT/HfJc2mt5psh/kUUWidpIYq545513omci6dnkuu7sS581c4PbN/Y5ZvyVHTrKL5u5hx8pblwtvfTShpiUPBvMSba/kp4L8mJOoo/pA3sP/N9///1Cw6ysfnX72PZ5yHOVVGliwhLqq2/fvtF8yHjmnfT2228XaqetE8ztnE6fMIbhzrNaq7sO7y427dE38847b5Q37y7m56z3X+FG6camJCBBGtgtTNDEf1t77bWjhz0pMdk9/fTTZvLkyV0CRHPffvvtl3iv/7fx48ebp556qsv1TIarr766WXfddaOJOS3x8njwwQfN448/3uWyYcOGVeK6+X8kFIkbjoTJ5x//+EdiUUxWm2yyiRk0aFAXIWtvYlK89957I1GVlvbYY49K/EQ48mOS3nTTTaP6Mmn5iYn3kUceMQ899FDlJY+o23zzzc1KK61UCWfl3sdkR5gV6sQkGJLKamefPn3MQQcdVCny2muvjSZ3xsgWW2xhVlhhhcpL2a0XL4Mnn3zSTJo0qYuYLmt8hXDgmr333jszDmlcX/IsMVbWWGON2L4kb8bIPffcEwm3eiQEImNjueWWi82e5/iJJ56IOPPfce1IqxfiljBqtNEG8/avR3xPmTLFTJs2rUtW3d2XtgKMS/pm5ZVXTuwbnmPq/cL0KpqtAAAgAElEQVQLL9Sja6Lxb2NtMg6uu+66qBz+bb311oudfxFFPMuMGStMEaJEDuE+2hWXED3ETg0dZ7X2q//c+HXadtttDT+bmP95D2SlNDbci/C+7777zPPPP5+VVeXvCPiNN944mot84Wwv4qONPB944IHcHyq8KzbccMPIuBOXyJt3KXkXNRwEN1YXNgUBCdKAbuDLbfjw4YaTT7ISDy5CbsUVVzRjx46Nvk7LTFjLdtppJ8MXa0jixYbw5As0ZGILydO/ZvDgwdFLxLf4+tcx8YwcOTKaYBDJoYkv6J133jmycCQl+yKlr3jB0N4dd9yxYpWKu48X1qqrrhpde80112SeMFPvdmJJo2+TXp60gY8RRA79j4httVNx6B/6Eqt+WsI6t/vuu0fPUNYHTOg4stfx8kaMpo1XnmM+PrGsWUEUWk7I2CMvWGy55ZZRGTybrkU2tKwyr1t++eUjMcQck5Z4jhmnCHY+AOud6CeeZeqXlLiGj1Wsg1dddVXUhhEjRmTO2TxzjLMbb7wx+iBMS83Yr4xT2snzkpaYQ2GIKCXedVbiYwoxai3VSdcj0OHORz8f9nEfV/691JlxxjsyLZE3cy7X3XTTTVlV1t/bgIAEaUYn8kDyIPtilCVflhX4GkdAMBG6gol/Y9K+7LLLSvu6Q4zEiVGsl9SHpXEmZpaymGjdyYRJ45VXXom+OMtMfOEycbkJqyxCnKVxrEOIJ2vVpA1YYKgnwjQrcR8TrmXLl7JdaocxE7FrMUVs0M6tttqqIuywfrI8x/8yyfFisScMUT6TNQLltttuS6xOvdtJnw0ZMqRSZ8YV7aTOsGL8udZweNBGBFurJPp+hx12qIhRrFr0C+MFazVWS/rGJl5c2223nRkzZkw0lspIiEw4u4l6wJp6wBrO1mpDnbbZZpsqd5a0enDQBc+oa1Gi7uTPxwPjj2VVd/zxwkVAXX/99alL+GW0PykPxB719gUI1lBcYhDL1r3BPm98GGWJ11rrzJjhxCkrRukrhCN9BWPmOXfFin7jNCOsenbOxsJt+5f20afufE4+9DHjLGn5uVn7lbHsilH6i3cB/QUX5l53LLLKBL80Qwl58py4iZUZ6+JAn/CM+Az5uGI8pBkbeL4w7vAR5ib/GWF+s88g7xA+YkOt2LWOOd3fOAISpBnsWVZwX5JMzrfeemusTw6TIw+lPa6PCRyBxJIzCcHoHnfG158r5i699NIq/0DfYsIyvWsZZfJhiSruy56JAZHFPTZRF1eQYknkq9YmXAbs5GWXK+3f4nzdeEm49eclQZ7Tp0+vospLAKvxZpttVskfgcek+OKLL6b2AHXmfl4qfN3jeuD6FdFOjrB0T7ziA4JJE37Uhzb79cfdAT428YV/5513xgqf7minFaMIbvr0mWee6VLnVVZZJXo5W8se9eLFYH1zax1f9Z6GGO98RNAXvLSw1PhjnJcQ/WcFG88Q7Q6xvGTVn2fHFaPUAzcPlp99wYsFF5HC/yYt6/vlIQAYi/YZQtzcf//90SETvtAhz6FDh0YfQyREBR9quAiUMVdksXD/DmOEvytGER933HFH9NHtJmuJ5FlGmGZZufLUI+5a5l5bL8YAPF1fUfuBi0XPJkSX9YdnjDHW/P6FN8LIHgTCeEMkxc1HZfYrdXTDpTG+WDWyacKECVXzZ5p/JnW38zvL5szlvu81Yg5rpJ0f4YJg5x0Wl8jPF6O4DTAu/dUY+yHPO9ImxjDCMWle5xAAV4zSPvJmXvf3KDC38bxSd+b5LCtwrWNN9zeegHbZZ/SBv0x0yy23JDqI8xXO8p7r74Ivlk3uhiOu8R9AJlq7IYn/9ScjLBI2YTnDopK0zEReEydOrHqhYBlwE2LALc8VbZTt/s3fMMBLF3FkEz5KLJX5YpS/IyB5KbMs7goQBKG7kSquK3gZcT+WQPLwndypF5ZNlyV5ch3LcEymcWL64YcfrvKBoxwsV37qrnYi1GgLjOIENPVCpCLK3eSOz1rHV72nI+uKwMsQ63jcEjUfWTfffHNVn6Ut1YbWmTGBW4mbEFy8xOOsr7xUr7766lybQayFiDJ4fng+GWdxooJT0K688sqq55OPJCvEu7MveQ7dVQbqhjuIL0ZtuxAPsOmOsF9WjCJa+GD0y4QTf3MtfnZO4VnhF9e/uIEgbt3kGh7cfy+zX8nXnef99lBXd97NcuOgrcyLvJfiNgLynuB5cjeiJT1PiFd/9YDnA3eSONcg5nzyZoy7ifdCnM8pAhMfYJvsHM1HYdyGWT60b7jhhlI+RkPnCV3XWAISpBn87c5Ye1nW7l8mE4SDTSw9ZPlWhgwBJmZ3iQQH/qwXApO1+6XKF3WSc3pIHdxr/M0aiMIsf0bEBhZLm5igXMGeVAcsHGl+hDD3/46Flw+EtPTcc89V/TnOd7M724llNCsSAWLAFTjWGp+3/xp1PR8IPne/LohB90PL/5AqUnesK+7mCerAGElLvCRvv/32oGV0LF3ui55Vkazxx/OLkLAfWTzjrqWvSDvz3oMIYXXAJgQRz3LW7maid/DB2x2JsZDlq+qPKeqX5Svp3xO3+azZ+5UVO+aNrHHMRkibeA/EbcxlFctajLmWd4wvNuPK8TeqwpFVDT+xQuIaIOjTEP/wPJvOumM8qoz6EZAgzWDrf6HGPWh+FggolmX4YQVJC+0S2rVYMNjVytIMv9Bz5v0XS5ZFMrQ+7g58fDZDN29h/XNFvfsyjCub+j/66KOZ1fJD0TCZZiX/njgH/u5qJ2Le/ZBJqjti1A1Vk7YBKqv9jfh7yAuOeiEobCqjjf6HD8v0IYl6hOwmd8cJoi5kzFI+gsLtd5bAy3pGQ9oHF3fcU++sD12bL/NQLeGEQurHNVnCkmuKPP88c+78mPX8N2O/0l9ZHw/+88T/T/r4tn1iLc+hfeS6fnGPu5pn83DfnXzshc4F1MW3ZofWS9e1FgEJ0oz+wpfKTSzfsMTlW07da1gmYaK2v5AJI2vYYAXEmmJ/IYI06Us1q6ysv9N212oVt0yflAeTi3s9/kRpOzlhGPKC9MOCZFkaqV9WKJHubCeWgtBx4i5vlWXxzurzMv6OAIhbBo7L27UCu1abovVw/c8Q9KH1oLwQQer6xdGXITF7bVvc/BEKIdE8inLw7/OXqbOs1/79IR9RtdY1xIpW5PmnXllzS7P3K/FyQ5I/Hv1nCoupazXFyJC1GuiWyzztbjpiNcKdm1gNc0Uw9c6zUZHrs/oqhIOuaW4C2tSU0T8s6+EEzi5oEtYLfL34t7feeitaEmdpjv/O8vep91BA2OFojlhkAwchjeqxC9b3tUS45dnc4E6G/Dd+c1iK4lKWaLT3+FboPIIgqV+6s51FA3TXe0yVmX9SH5dZRlxerC7YzUP8nWc1T8q6nmfMjbDBHJHneXB33FMvlolDVxzytCPuWjf8Fs9MHqFOfv4He6318e+nTiHPctHnP231qhX6tax5w/8ICvkI8PuKe+x44l2EKLVuK36Yt7zjm491nkN382rZY035NZ6ABGlGH/AVx0YTwk64YXd46SBYrGhhYuMrkS85rJdZ/mO1dj1fn5TNzn4bEogXW1bcuFrL5X7fOlyr3xsv87LFShluEt3ZzjzWgjL6sBF5NOqDzX5M2jYTjSBPyrre9z0k5BC/oskVz0XzCL3PtVrlsYjZ/Mt+bv16l/Ech7Lwr2v2fkWol8XHb2sRoevf4+bpuwgUyZ+xJkFadDS3xn0SpAH9xERNPFF7UpNv0SALBCrCkB+ng/Dw4PeSdwksqzosqxA6A9+vrOVaHnqWSRGtZaayra5xJy+VWd+ieXVKO4vyaZX7/PEVYnFz25Z1NGIrjxOXTZGPoiL3tMq4afZ+LUuM0h9+W4v0q7+k7ubpP4NF8i9yT6uMNdXzPwQkSANHAksGhKfgh+jEt8haJ+N2Z2L1Iwg412ftggysQhSHzY2dZ+/D8oR1FgHKj40Y/BDFiNeyBak/MVBOLZNFLfeGsityXae0swibVrrH983N+pDz25b1weRbfvkIzLKqpvGr5d68/YI4dw+tyHt/d6zI5K1TWde3cr/mZeB/dBXpVz+ajJun/xFYZONeGdFq8nLR9d1LQIK0AG98WVy/MpbYEIvsGEeoug+b9TWt1fkfyygnqfhhOQgDhHtA6IaYAs3tcot/7jthOUKd68sov7vy6JR2dhfPRpXjW278JfysemUtofvhzmwg8ax8m+HvsLGCNG2jZlJdi9zTDO0OqUMr92tI+9xrfF/9OCNLVp7+Pe5z5z+DRfJv57GWxbZT/q5d9iX0NFZJNj8RxJelfd9/lE1QtSbycC01BBYnwHie3dm11sHe7+9gb9eJolPaWda4aNZ8CAlUS+zWuAMT/Je5+0JvpefBDa/FR2/eZWp/s0qzjoEi9bIB6u29rdSvedvr+3QWifTgPyeuf7E7zqibGxM4tK6tFnM5tF267v8ISJCmjAaskQS7tr+QCYkHjxOCXOsak3aRJQq3au7xhUyUWYGi7b15XzAhDwdtdJez87oEEAWAXcj2F1JmI67plHY2gm13lsnqgRsvk/EXFxg8qU7u0YhJ17i7zfM+D2z4cJ+HMuKuhvL1dzvn3YxVxilaoXVtxHWt2q95WbHi53600a953lm4wbih1Xj/uYKUkFBu/nnHGc+rBGneXm296yVIMwTpiBEjjP2FBMUnO3yP3CV9Huxa/V/cZUa+ZkOW6Ck39BzuPEMXZ3o3DiquCll+dm7+xHHlvHJ+nGnfrKlT2tms/Muslx8r1z+vO6ksLEUhZ2i7z4N14QmtP+eH2+cBv/PuTH6MVVyMQoUIH+hZB1t0Z1vqUVar9mteFohF1+0KARhyip4th4Mh3HeA/7zxvnJPDWRjcMiHns0/9HnN225d31wEJEhT+gMfItcSiCANnaxdCwz+MyE7e9Mcyd0dlaEWFF4ubnzEPEMvy6l92rRpleyYiIYOHRqUPdZiN3RHnqD6QQWUfFE7tTOrT0tG11TZ4VLjWmiImJG1LMkKCedyhyROIHPnCg7QCAnozzXUxSbcfUJi75bVl8Qdda2APJ+hLkY88yFtDOHXrNe0ar8W4emfLrbFFlukHgBjyyAc4sYbb1xVZNxJZex3cNOQIUNiT4zy685zKkFapEdb7x4J0ow+c8M24ffCJJz1MuDYNHd5gVMv4pK/szFtScKNEYgFJu5oNlsGopnYoJtttlmXYtN2GOfxs+N8afeLmiD8vLzT8qfeWIKsqKe8xx57rKmfmlZuZ57x1dSdUELlEHkc6WsTKxasfHCARFzig3LkyJGV5zhrRYJVEfeIS17S3J/mGsCzsv3221ddk3ScYj378r777qtCwLyRJgBgx7OeJ/h/CV3YkCy6u18b6ZPLe8q1YrLxaNSoUVWn8vmdgN/orrvuWvVhwqa+uAMWeF+470KejV122SU6GCUp4f7Cc5r1zm3I4FChpRPQLvsMpLxksIxaoTV48ODIp5QvZ8QKVlReFlgtmUzwjXGXyXmRJb1k/PAuiDU2KdkdiVh17AYpltZcwTps2LAonBO7920+TCD822qrrVY5mQarjbuUQlsog3t8Swz/Zq2vHCn4pS99KZpYaAPX+ucVT5gwIbrG+qmy9Ejbn3zyyagM2GDZZeKBGSLaFay8CP2d7KWP8BIybNV25hlfJWBq+izwu8Y6b308eV522223aKzyYywylrHI8BzblyAv6RAfNvJnnNvjOHlZ77PPPtFcwdIvH5UIHJa6EcIsc7qClWc8acWgnn3JHEN4OlZUbMJ6xVzBs4z/H3MSvGgb9baRB3jGQ3zrm35wpFSwO/t1vfXWiw48ob+ZO+kb3gPdlZjrRo8eXelT+pn/z3uG8YlfKAYFPrhw1/BdNvg7UVeS0sSJE81ee+1VeWdg5OEdgojlOWMDIs8dIhWXAfK3BoxOGGvd1c/NWo4EaUbP8IDxkG677baVFxQvEYLf80tLTCh333134jGATDYs5VuRxvKX6+zNS9IKUkQtQtO+wHhI+f/8khJLcZMmTYpeujaxDEO67rrropewm/iCdb/QEcBWBPMy9QUpk+a1114bfeXalxL/G8KGJZ24ZZ1mfFBatZ15xlczci+7TnxYseGQWL6uXyj/neQnir82z7/7DCXVi+ed/LHoWNHLs42A45eW6Kvx48cnXlLvviRWMvOPu/LinkQXVzHmLgQG7W3nVM9+xWDAxjK7Q5153R+L3SlI+SjjZELmdPvRgUDMetfQ/3y4MP7TTmTjPXL99ddH+Vvjh3VbcV1X/PGEYCWlve/aeQx2Stu0ZB/Q088++2z0EOU555mQQTycrg+iXxRWxzvvvLPKty2pOkxciMiQOmCx5aueOiNKQ49pY0kz79nU1OfKK6+MvqBDEm3mxYtQb6XUiu3MM75aqS9qqSsvS54LrDhpvpqIVyybV111VWQ5dVcZ0l64PKfkP3ny5CC/ccrhWSVkXNoBEd3Rl4hLnk0/ZmQcbz7UqXPIfFRLfzXLvfXqV9p3xx13RKtJzZJ4XzCnYzDIclWhzvZ9g5ANaQcRLy6//PLE1QCXAx8DWO95Tyq1PwFZSAP7mOV5HiKW2rBiYknkC9I69TNh8fVnz7PHVybkaDe7VMFXMdZPLCp2iYIvTjcxUVAHfLfYoUgdbIBhXpr8HSvn888/XzUx3HzzzZE/KcsjTB7kGydSacPVV18dfa2TN8uXNjpA2ksKC+Jtt91mpkyZEtWLwwGICsAXMAx4mVImdcMnN2uDFyLetiv0rGzf2hsykVIvhINNPm9/aJTZThi4Zef5EGBzgPX1yjp/PM/4CnwUKpfxorDuGn6cQXtRkb7kXsZKmvDLW1f/JYfvMhx57nimsewjOuljPiYZp1awYiFyNxJmCTaeMfqWtjNXsIzPXEEePE/cDy/mFERvqNtK3r502dP+kBPRKIOlWerNs8ymSJ5FnmPqyTPC2MO1gHbCzB3HfhipIv1E/pZ91rGtNn+eA7ceofMGK092Ds96/uvVr5T7j3/8IxqHLIXDNOkdUIQNjODh8smaNxijGA3gY93QeD/ZsUD/kAeuKIyXECHqjgWes5tuuil6J7Esz4oCzyDzCWWzdM87lHeZjQdNObbeWe+QIuNO9zSeQI9jjjlm7nHHHVepCTH6GhHKgwHt7sJDmJ1++umNJ6QaiIAIdDQBXpr4vdmEZbAdTybr6E5W40WgIIETTjghEuU2WWNRwezqfhsfwq4Bp6jm42PFNRqwsTnrVDu3cXzguivIfBjKQlr37lcBIiACjSbAZOceEsEHcIgVnXr78RLLsAI2mofKFwEREIFmIyBB2mw9ovqIgAiUTgA3kp122qmSb9ymvrhCEbFE1rCJAy9Clr5Lb4AyFAEREIE2J6BNTW3ewWqeCIiAiXy7XZ9uAnlnBXXHd3Sbbbap8h9N26QoziIgAiIgAsUJSJAWZ6c7RUAEWoQAmyTYIGETmyj23HPPKC5pXNBtNvUR8NsNw8aO8tBoEi2CRdUUAREQgaYhoCX7pukKVUQERKCeBAgdwwYl63jPjmbiIbJjGLGJkz2bKdlZzt/cxDW33nprUIi2erZBeYuACIhAuxKQIG3XnlW7REAEuohK4oqyDE8oJpsIx5QUGJ9rWO4fN25ccDxfYRcBERABEchPQII0PzPdIQIi0KIEsHSOHTs2OgKTo27Z7BR3lja78Dkdycb+bNHmqtoiIAIi0DIEJEhbpqtUUREQgbIIcBCBPYyAzU0E5Wa5nrh6BObOCn5fVj2UjwiIgAiIwH8ISJBqJIiACHQ0AURo6Mk+HQ1KjRcBERCBOhLQLvs6wlXWIiACIiACIiACIiAC2QQkSLMZ6QoREAEREAEREAEREIE6EpAgrSNcZS0CIiACIiACIiACIpBNQII0m5GuEAEREAEREAEREAERqCOBpt3U9Nlnn5lDDz20jk1X1iIgAiIgAiIgAiIgAs1AQBbSZugF1UEEREAEREAEREAEOphA0whSYgAqiYAIiIAIiIAIiECrEpCWKd5zTSNI5513XrPkkksWb4nuFAEREAEREAEREIEGEeDUt/79+zeo9NYvtqnMksstt1x0pB/+o0oiIAIiIAIiIAIi0AoEevbsafr06dMKVW3aOjaVIIUSllJ+SiIgAiIgAiIgAiIgAp1BoGmW7DsDt1opAiIgAiIgAiIgAiLgE5Ag1ZgQAREQAREQAREQARFoKAEJ0obiV+EiIAIiIAIiIAIiIAISpBoDIiACIiACIiACIiACDSUgQdpQ/CpcBERABERABERABERAglRjQAREQAREQAREQAREoKEEJEgbil+Fi4AIiIAIiIAIiIAISJBqDIiACIiACIiACIiACDSUgARpQ/GrcBEQAREQAREQAREQAQlSjQEREAEREAEREAEREIGGEpAgbSh+FS4CIiACIiACIiACIiBBqjEgAiIgAiIgAiIgAiLQUAISpA3Fr8JFQAREQAREQAREQAQkSDUGREAEREAEREAEREAEGkpAgrSh+FW4CIiACIiACIiACIiABKnGgAiIgAiIgAiIgAiIQEMJSJA2FL8KFwEREAEREAEREAERkCDVGBABERABERABERABEWgoAQnShuJX4SIgAiIgAiIgAiIgAhKkGgMiIAIiIAIiIAIiIAINJSBB2lD8KlwEREAEREAEREAERECCVGNABERABERABERABESgoQQkSBuKX4WLgAiIgAiIgAiIgAhIkGoMiIAIiIAIiIAIiIAINJSABGlD8atwERABERABERABERABCVKNAREQAREQAREQAREQgYYSkCBtKH4VLgIiIAIiIAIiIAIiIEGqMSACIiACIiACIiACItBQAhKkDcWvwkVABERABERABERABCRINQZEQAREQAREQAREQAQaSkCCtKH4VbgIiIAIiIAIiIAIiIAEqcaACIiACIiACIiACIhAQwlIkDYUvwoXAREQAREQAREQARGQINUYEAEREAEREAEREAERaCgBCdKG4lfhIiACIiACIiACIiACEqQaAyIgAiIgAiIgAiIgAg0lIEHaUPwqXAREQAREQAREQAREQIJUY0AEREAEREAEREAERKChBCRIG4pfhYuACIiACIiACIiACEiQagyIgAiIgAiIgAiIgAg0lIAEaUPxq3AREAEREAEREAEREAEJUo0BERABERABERABERCBhhKQIG0ofhUuAiIgAiIgAiIgAiIgQaoxIAIiIAIiIAIiIAIi0FACEqQNxa/CRUAEREAEREAEREAEJEg1BkRABERABERABERABBpKQIK0ofhVuAiIgAiIgAiIgAiIgASpxoAIiIAIiIAIiIAIiEBDCUiQNhS/ChcBERABERABERABEZAg1RgQAREQAREQAREQARFoKAEJ0obiV+EiIAIiIAIiIAIiIAISpBoDIiACIiACIiACIiACDSUgQdpQ/CpcBERABERABERABERAglRjQAREQAREQAREQAREoKEEJEgbil+Fi4AIiIAIiIAIiIAISJBqDIiACIiACIiACIiACDSUgARpQ/GrcBEQAREQAREQAREQAQlSjQEREAEREAEREAEREIGGEpAgbSh+FS4CIiACIiACIiACIiBBqjEgAiIgAiIgAiIgAiLQUAISpA3Fr8JFQAREQAREQAREQAQkSDUGREAEREAEREAEREAEGkqgV0NLV+EiIAIiIAIiUCcCa665prnwwgurcuf/n3LKKXUqUdmKgAgUJSALaVFyuk8EREAEREAEREAERKAUAhKkpWBUJiIgAiIgAiIgAiIgAkUJSJAWJaf7REAEREAEREAEREAESiEgQVoKRmUiAiIgAiIgAiIgAiJQlIAEaVFyuk8EREAEREAEREAERKAUAtplXwrG1s5k2223NaNGjapqxNlnn22mTZvW2g1T7UVABERABERABFqCgARpS3RTfSs5cOBAM2zYsKpCLr/88voWqtxFQAREQAREQARE4L8EtGSvoSACIiACIiACIiACItBQArKQNhS/ChcBERABEWhmAr179zabbbaZ2XTTTc0qq6xill56abPggguaXr16mffffz/6vfvuu+aJJ54w9957r5kyZUpqczbaaCOz2GKLVV1zyy23mLlz5+bGsOGGG5rFF1+8ct8777xjJk+enJpP2e3JXWndIAIJBCRINTREQAREQAREwCMw77zzmi9/+cvm4IMPNv3794/l4/77kCFDzNe//nXz9NNPm+OPP9489thjsfesv/765tvf/nbV39544w0zderUXH3Qs2dP89vf/tYsvPDClfvOOOOMREFar/bkqrQuFoEUAlqy1/AQAREQAREQAYfAoosuas455xzz/e9/P1GMJgFbddVVzbnnnmu22mqr2Euuv/76LtbQHXfcMTd/LK2uGMXCeuONN8bmU8/25K64bhCBBAISpBoaIiACIiACIvBfAn369DFnnXWWGTx4cCwTlsWfffZZ8/zzz5uZM2fGLrWznP+rX/3KLLHEEl3yeP3117tYMXfYYQeDxTNP2n777asuf/DBB82rr77aJYt6tydPnXWtCKQR0JK9xocIiIAIiIAI/JfAEUccYQYNGlTFA/F54YUXmokTJ0b+om5i2Z7QeYcffrjBEmkTfqZ77LGHIYSen6677jqz8cYbV/4ZP1CW8rP8T+0NiFfKdBOW17jUHe3R4BGBMgjk+yQro0TlIQIiIAIiIAJNSKBv375m9913r6rZHXfcYfbff39zzTXXdBGjXMimpquvvjryNf3ggw+q7t1iiy1iW3nrrbea2bNnV/0NK2loWm+99ao2Rn3yySeGPP3UXe0JrbeuE4E0ArKQanyUSmDJJZc0K620UrTzc4EFFoiWs957773ox1LXc889Z7744otSy6xXZlghll12WbPiiiuahRZaKNpZO2fOnKgtvIRee+0188orr9SreOUrAnPSaIcAACAASURBVCLQzQS22WYbM99881VK/fTTT80vf/lLg+DLSswFl112WSRMbWI+jEuI0dtuu82MHDmy8mcE6cknnxw0P/rL9ePHjzezZs3qUlR3tSeLjf4uAiEEJEhDKOmaVAKEQdlnn30Mk+QyyyyTeu1HH31ksDiw/EWYlLg0YMAAc9ppp1X96eabb478uvImwqIcddRRVbd997vfNfhxJaV1113XjB49OtqU0K9fv9QiEdkslf3jH/8wb731Vt7q6XoREIEmIsDHtJtYQsdPNDT5O+uTdueTH8v2riBluX+DDTbIDNvUo0cPs91221VVKWm5vjvbE8pI14lAEgEJUo2NwgSwIH7rW98yBx10kCGkSEjCajp8+HDDrlJ2scaJTMQiFoQ111yzkuWee+4Z+WLljdU3YsSIKn8wRHCSGEV8/vznP4+EdWginiDtp37HHnusmTBhQuituk4ERKDJCOAfeuedd1Zqddddd+WqIWLRTf7/d//2wAMPRHMRH+A2MS9mxRFde+21jWt5nTFjRhT/NC51Z3tygdLFIhBDQIJUw6IQAcToiSee2OVLPTQzK2Y//PBDc/HFF3e5DeuBK0jZrYrf1EMPPRRaRLRrlSUrNyVZEnAxIIYfy/NFEmIWHoceeqh5+OGHi2She0RABBpM4IILLjD8iiY+gEMTH9c33HBDFLvUJiyfxBZNc2vyP5jHjh1rPv/889hiu7M9oe3WdSKQRECCVGOjEIFDDjkkVoxOmzbN3HfffWb69OmRT9P8888fxcpbbbXVouvxw3QTO1OvvfbayCfTTTfddJP54Q9/GJ2GYtNOO+2US5Cy/OXuemXSJl8/YcXAT8wXo5999pmZNGlSVCb+YR9//HG0hI9VFHE8dOjQqlAtnIDyP//zP5HFVEkERKAzCMwzzzwG1yCe+6RNTEkk+PB2BSnzFfFF77///kR4ocv1RenX0p6iZeo+EYCABKnGQW4CWBO/8Y1vVN330ksvmV/84hfmkUceSczvj3/8Y2RF5Ag+m1jqx6owZsyYqvvsUpNr4cQyEOr0T2a+JeGee+4xLG/5iQnerRN/v/vuu82vf/1rwwkqSYljBE855RSz1FJLVS4hdiF+W2zeUhIBEWgfAqy4EA7K/S2//PKGQPjuRqg8LX7xxRejFRX81m1i2T5JkDK/uH76zDNPPvlkniIr19ajPYUqoptE4L8EJEg1FHIT2GWXXQxf0TaxUQlLZ1xQZjdzrKA//elPo/Ap7mYhP+afvQfrgStIsUyGxurD6hkap88P8/LUU0+ZH/3oRwYLaVp65plnzNFHH93FDxZLqwRp7mGlG0Sg6Qiss846kdWTeQffTXzgy07Mc64g5QP5pJNOil2G962j3JsndUd78tRH14qAS0BxSDUechPYZJNNqu4ZN25cphi1NxCnj132boo7zYS/s7nAD0IdesQeE7ybL76qcRuOEK4skbnpoosuyhSj9np24fpW1KT25AatG0RABBpCYOutt45COJ133nnRxk1WUNLEKD6fzAVED8mbbrnllqqwUrg4uUHz3fzcVR/KxH80JHVne0Lqo2tEII6ALKQaF7kJEJvTTXk38fjhkfC9jEtYKPH5/PKXv1z5MxPy7373u8xYff5yvT/p2wwRj/5yW5rbQVw9aY+7bJ/UntygdYMIiEDkn+kme2RnPdDwgYrv+n777RebPX7k+Me//PLL0e+FF16IVkP4sVI0bNgwc+CBB+aqGh/pxBHFR94mPrzxxXcTfvjLLbdc5Z9Y1n/zzTdTy2pEe3I1XheLgENAglTDITcBlt3dzUb4j+ZJ+F2FJpakXEGK0z8vKEKmpKVQx3+C3PubkPIEu4dDVuzV0LbqOhEQga4E/NBwxBUmLnE9EkLUF6MEx7/yyiujHfGPP/544o72WurDPOcKUuavE044oaqs0DnNrUej2lMLC93buQQkSDu37wu3HB/Lool4nX4oprS8eAFgfXADPGM9SBOka621VlVsP3xbk8JFYfEgMkCRxIasn/zkJ1U7+Yvko3tEQATCCbgfw1l3pcUB9e8liP13vvOdqn9+++23o3+rt084cUQpiw2jJOqCmwAbMW1yV32I03z77benNr+R7cnqF/1dBOIISJBqXNSNAIINayg/NgQgRPNYR23FsB4cccQRlXpap/+kWH3+cj2WjbwB9eOgsBGL+rNpibBP1IMjRZVEQAS6j4Abyi2r1LgDO5LmAjZB+u47hIPLI0bdzZ5ZdXP/zlx24403Vi338+FtBSkf5G5YOo4dRZSmpUa2J0/bda0IWAISpBoLpRBArLGRCKGGrxOTJ0eKElqk1oSg5LhPm9ciiywSOf0TIzQuxQnSvHXAJ5SdtbTHvgzY5a8kAiLQWAJ5BGnctXFnvtOi1VdfvaphRAUh/Fue5PvX57mXD2/X/5QP+N/85jfRBkt/Tks64MMtr9HtydN2XSsCEJAg1TgoTIBdpyzB77zzztFkHrI8hnWC89/t0lRI4SxlsaQ1ZMiQyuVYD+IEKfUYOHBg5To2KBHrLyThC/qlL30pOtYUMR2S2MhAm/yA/yH36hoREIH8BPzz2dNyWGONNbr82d9UaS/wPziTrksqj/mPubBoevbZZw1HG9s6s+S+2WabGY4vdf1H2ciU5UNPHRrdnqIcdF/nEqjdfNW57Dq65VtuuWXk6M+OVCbQJDHK6UjsRGWJ6fTTTzd77713cKgSF7Afb48JOm55rIglgXI4LYUwL2xwShOjc+bMiTY2YLVl0wExTEMFb0cPGDVeBAoSIGSbmwg7F+Iqw4rKDjvs0KXURx99NLYmbF5yEx/NeVZ42HzpWyVDPtLT5jk+jm3wfXsdoZ7Sjha11zVDewp2uW7rUAKykLZBx3Nqkh8b9Mgjj+xyHGdZTbU7QH1ByFIYsUOZ8BGhhEV57bXXStmVSlgU8u/bt2/UDF5ItBnLqZvcFxATcshuXILgx4V5oe5YJ9j0RCQBdt9jNSnDH7WsvlA+ItDuBAh/5FoI8fP8/ve/Hx33m5ZGjx7dxWfdhmqKu88PocQcg8UzZHl8n332iQ7T8FOcD2tanRGbP/jBDypRTFi29w8cCakPZTRDe9p9bKp95RKQIC2XZ0NyYwnLD+5er1iY+GT9/Oc/r7JOYgU988wzzcUXX1wV4LlMGJ988okhliguAjZhPXAF6corr1z1AkIc4weWljbffPMuYhSXAk5KYRerxGeZvai8RCA/AQ6q8EMejRo1KhJtp556arQ73U19+vSJQsVxepyf/vWvfyU+0/iL+iHgfvaznxl81lkN8i21zLH4sn/ta1/rMv/acrGw4kIUGkqOg0D4CCaQPYkPcPK3iSV9lvZDUjO0J6SeukYELAEJ0jYYC3HLN0xkCKuQlGdZihcBvk1uOuaYYwotw4fUzb2GZXtXkLKLlGVze8RnkeX6/fffv6oa+IR+85vf1DJ83s7R9SJQJwIcvMEOdN8/kyOM+benn346Oi2ND2M+mHEhirNMIubGjBmTWEtOWuJceHfZnXywWHJaE7vtmVNZGeI0pbgz7C+//HKDZdZNfKwTzJ+VIz+malxlmOesIOXvbltwFQpNzdKe0PrqOhGQIG2DMcBJH37CoZ0TRUKSXQZ3r8UiGZfwHXUTMUlDj6+z97nn2IfUz14zderUaOncnlZiY/XZnbDucj2WUSwNaYmJnlh/brrqqqtyi9Gi7cnTdl0rAp1M4PjjjzfsYOcsdjfho0lUD35pCQslB3r4fpXuPXzY83GNaPQ/utnASei6tHT++eeb0047LTqtackll6xcik86v9dffz2oC1nZ4cAO308WwZ1nrm2W9gQ1WheJwL8JaFNTGwyDuGXpPOepu8fRWRz+GfL2390jMvk3rA550wYbbJD3lsr1vv+UPdt+hRVWqAqez5GjaS8fMmTTgu8Hm7c9vHjcXf2FG6YbRUAEEglwgMWhhx5qsEDmdaOZOHFitOwdsmz+zDPPROVgKQ1NLKETPP/Pf/5zVLdrr7029NbY65i3mL/8REzSGTNm5Mq7GdqTq8K6uKMJyELaBt0fd3ISPqVxk5rfXJbrff9TvsSTdo774Y3scnkoRqyYRYLj2/wRpLww7O5VG6uvyHI9Vg8/5W3PwQcfHBTuKpSPrhMBEYgnwKoNLjqXXHKJ2XfffQ3+30lxP9nQQ1i4K664wrDknyfhAkA80KFDh0a79AcPHhx9dLKiwtzIxzobHsmfVRjyd0UyFlYENEv3fLDy3yzZY/kMTf/85z+jctyUNyaqvbcZ2hPabl3X2QQkSNug/x988MEurRgxYkS00Sjri5rzk/3g0VgJCW8Ul5gk3eUszpVHHIZYLfC5YpOAn/KcbsKLAN8oK6JZLidWn7tcj5hOCu3ilh1nBWaTQsjOfPIZOXJkFLe0lva0wfBTE0SgWwnginTiiSdGZTJ3sRrE8jZzEEvdPNf+DvO8FWS5+4477oh+NrGJiQ/WrLkO0fq3v/0t+jG38f/zJuawEH/T0Hwb3Z7Qeuq6ziagJfs26H9Ep+8vifWPneJp/o3sSv/xj3/chcA111yTSIWvbTcNGjQoOkUpLWGF3WOPPcy5554bW5+8Pph+TFJiiLo+ZKFhUeDmC3bqudVWW6W2B59b4q8ee+yxsdbRvO1pgyGoJohAQwjw/LK8jrXy/vvvN6wW1SpGkxrCUnqWGPXvLSJGuwtku7Wnu7ipnPoRkIW0fmy7NWfEHicZuYGY8dUk2DshS7Cizpw5M/piHzBggNliiy3Mrrvu2mU3KhbItJ2cuAH4y+Nf/epXo7Iph52oWCgQxGyssme+cwqSTfydXao2ISbZVcrmLBz//bh7Pshbb73V/OQnPzHzzz9/9CeOLLWJFwY7ckMSVgNCSREixibE8+9///voDGnyoS6Ee0FksjEBCyohaNyNYH57aMuECROiezhRhSU7JREQAREQAREQgWQCPf69q3DucccdV7mCmGt5jmYT3OYhQGgSfkUTX8yHHXaYYTd7UkLwnnHGGZEwK5I4yvPss8+O4gfGpaOOOipoyZyg2IR98RPL+XkYIIwR7a5AztMu4hoSLJ9NDXFp+PDhweG38pSra0VABERABEQgLwGMTq7Rp6jmw3fa3TiMS54fnSKtbrNnz44OnbEJlxgt2eftzSa+HqGH31LeZSWahHXye9/7XqoY5TryJnwKx2fmSdyHBZUNSVhrifdZS/KX7W1eocv19nqsm7Qb37M8CR/b3/3ud5FbxEMPPZTnVl0rAiIgAiIgAiLgEZAgbaMhgej7y1/+Ep1QEiqS8HFiJyrL1iwvhyTEG36bWDmzYusRkorYeSzr//rXv45OcuLL6A9/+ENsWKZQnyvq6pdN3izn502I67333juylPqnsfh58WXJiVR77bWXufTSS6M/Y5WN87ulP4p8HOStv64XAREQAREQgVYnoCX7Vu/BlPqzaYnd6IQtwSyPTyOiDUHJcXuTJ0+ORGjW8ZppiNzA1IQ4wa+TM+fZbMB59ux2jztJijyJf4rvKb6mWCpZAgjZHV/PLiO0CwGwYQczlhGoG+0h+gDhW5LS+uuvH/nMcnQhfPFDzfKHrWdblLcIiIAIiIAIuASaeclem5raeKwSsDn03OOiGLAAsss1TyBpWxanLlkrY9Hyy74PwY7Fk1/ehFU61DKdN29dLwIiIAIiIALtTEBL9u3cu2qbCIiACIiACIiACLQAAQnSFugkVVEEREAEREAEREAE2pmABGk7967aJgIiIAIiIAIiIAItQECCtAU6SVUUAREQAREQAREQgXYmIEHazr2rtomACIiACIiACIhACxCQIG2BTlIVRUAEREAEREAERKCdCUiQtnPvqm0iIAIiIAIiIAIi0AIEJEhboJNURREQAREQAREQARFoZwISpO3cu2qbCIiACIiACIiACLQAAQnSFugkVVEEREAEREAEREAE2pmABGk7967aJgIiIAIiIAIiIAItQECCtAU6SVUUAREQAREQAREQgXYmIEHazr2rtomACIiACIiACIhACxCQIG2BTlIVRUAEREAEREAERKCdCUiQtnPvqm0iIAIiIAIiIAIi0AIEerVAHVVFERABERABEWhaAr169TJf+cpXqup3ww03mBkzZjRtnZuxYttuu60ZOHBgpWrTpk0zU6ZMacaqqk51ICBBWgeoylIEREAERKBzCPTu3dv84Ac/qGrw5MmTJUhzDoFRo0aZYcOGVe668MILJUhzMmzly7Vk38q9p7qLgAiIgAiIgAiIQBsQkCBtg05UE0RABERABERABESglQlIkLZy76nuIiACIiACIiACItAGBORD2gadqCaIgAiIgAg0jsDnn39u8Bl104cffti4CqlkEWhBAhKkLdhpqrIIiIAIiEDzEPjkk0/MoYce2jwVUk1EoAUJSJC2WKftvvvu5sc//nGl1i+++KI54IADWqwV9avu/PPPb2666aaqAr75zW+aJ598sn6FdljON998s+nTp0+l1f/7v/9r7r777g6joOaKgAiIgAiUSUCCtEya3ZDXPPPMYxZYYIFKSa4w6IbiW6IIlw8V7tlTrtJldhxjzmUsvmXSVV4iIAIi0JkEJEg7s9/VaofATjvtZL71rW9V/uXVV181RxxxRDCjH/7wh2bo0KGV67EgnnXWWcH360IRaHcCiy++uOnfv38Ul/Pdd98Nai4f34sttphZeOGFzezZs80777xjPvroo6B7W/UiGNFePvrmzJljPvjgAzNz5sy6NKe7+FLOUkstZfr27Rv1H/1IfyqJgE9AglRjouMJMFEOGjSoMIclllii6n5eokoi0M4EBgwYYA4++OBKE19//XVz3nnnVTV53XXXNXvvvXf0sYbQIv3mN78xV1xxRSKaFVZYwQwfPtxst912ZuWVVzY9evSoXDt37lzz0ksvmQkTJpjLLrvMvPLKK6mIR48ebVZbbbWqa37/+98b/D3zpv33398sv/zyldueeuopc/nll1f+/7zzzlvlSsUf4AGXtIRY22abbcz2229v1l9/fbPkkkt2uZzNUZR31113GU5/evPNN/NWv3J9mXzTKrHQQgsZgtxz8tLgwYMNJ1m5CS64+Vx11VWG05iURAACEqQaByIgAiIgArkILLLIIgbBZxOiwgrS+eabz+BXvNtuuwXniYA57LDDojyTXEAQp4jCAw880Oy7777mb3/7mznnnHPMF198EVsOO9/dOnLRvffea26//fbgenEh7imHH364QXTadPzxx1flgbD0y0JspQnSIUOGmCOPPNIst9xyqfVZcMEFzQYbbBD9WMm5+OKLzRlnnJHY7rjM6sE3rhz6iH0OrDDZj5C46/ig2WuvvaLfxIkTzQknnGDeeuutXP2ii9uPgARp+/VpR7fo448/rlp+B8b06dM7mokaLwLdRQAx+uc//9lsuOGGwUWutNJK5rTTTou1DiZlgsUNcbb22mubo446ysyaNavLpbfccksk+KiTTTvuuGNuQbrllltWiVEsrOPGjQtuX9yF++23n8HVx7UAh2SIKMYyvfrqq0f3I7qzUr34+uVStxNPPNFstdVWWVWq+jvXY0X97ne/m+s+Xdx+BCRI269PO7pFWEumTJnS0QzUeBFoFIGjjz46lxhdc801zemnn97FmvbZZ5+ZqVOnmpdfftnwkYkPKiIX/0o3YWU86aSTzPe+970uFkOWusePHx+5ANjEOekIVPIMTSynuwmXgTgBHJofdY4To4jLRx55xODDju8obV166aUNjHr37t2l3Yccckimr3o9+boV4gPh5JNPNrTNT7SLvsRaDDdcmlZccUWDULaJ/v3jH/8oK2noIGrT6yRI27Rj1SwREAER6E4CO+ywgxkxYkRVkYiQSZMmmWeeeSbazPTQQw9V/t6vX79ITLpLuwjRiy66yJx//vmRKHMTS/n4lrIcvMwyy1T+tNlmm0XWtVNPPbVLc6+77roqQfr/2TvzqKuq8/5vhzjFiDKIirMIKIIDg4yiCM4gUYLEpKaDq13p6lpN0zRtV9M0Hf5o02Glq8NKTYyJjTOiEVFUEGUWVBQhjAqoxGBQHGNMHH757Pye2/3u95x7zh3fe8/9PmvdBe+95+zhu8/d97ufkbRw+LQ++uijuaCBvMYka/78+bnuTbuI8YeaUQgbpBzf2iSii487Pqy/+7u/63ANMPnt3/5td/vtt7u33norsatm4GsdM7YYJ5QDrCUuBgQyxTJw4EDvpoEPLQL55iXpXASUD6dz114zFwJCQAjUBQGIXpiZ4vnnn3df+tKX3BVXXOH+7u/+zt16660+IAftnwl+piGxJAIbYon5Piaj3APBwVRO3uXYCsJ7aN1ieeKJJ7pp3TDb5xXIK3MzIeJ95cqVeW/vdh1BVhCxUCCjN998c6rWFZL6P//zP941IRRM5PEBIPy8GfjSH5pOCGkov/rVr9wf//Ef+0NCEhnlWg4pX/nKVxyBZhIhAAIdpyFl0zrzzDPdqaee6k0inIAtvQYRnFu3bvWneL5QeYRNgRNsKKQ2qUQ4+cemKLQJac76WW0TqYnf07HHHutNXTjls9lj/lq/fr0vcVeJyYr+cIoPT+dvvvlmF/8l5kCU6IgRI7yTPn0yByJCn3zySbd27VpHlGya8MPEmNmsCZhAU8KP0vbt2725J28kJpoH7g8lHms8l3j9mGfv3r27DZV1TWo/9FHjJlK2xPcznzRNRhIm3I95kSCOeA03bNjg1qxZk/sZLfe8oJ0aM2aMj0Ym0ICxM849e/a4jRs3On7Qi55qJ+v7pM+zEQjJINHgX/3qV8vuMUTQk24tlL/927/1e0WW8Hx++ctf9iTOIt/ZfyiAEZM29tAHH3zQXXfddaVm+V5ZWqWsvmJz/YIFC3L5baa1mxTAlDfIatGiRR6fkSNHlpofOnRoYlfNwpfOOQzEUfTf/OY3cxP32267ze+XYdaGrHXR58VEoCMIKZvVZZdd5jel0G8lbUn5AcbUc+ONN6ae7uze0aNHu29961ulpri3UqduNqkwhQiNsVlXSmwxffClTtukbJAQPdKmMD/IeB4hUAHHcxMiXSEsEDTSe/BjAKFJEoIPXnnlFX/KB9dQMNEQeMCPRDkH/x07dvjTNhGZ5YQfGvKAhmJjtffiucTtsR5xG1zDD0FS+/H9l19+ueMVCoeAPKUFOSz94R/+oY+oLZdwnh9lzGH/+7//WxUxJVUVfndoi2L/tHDcPB/2XVAUbJ5vSmdfwwESrVfWgR5zc/h95+AD4coraA3xOeRlgssA2rZYI8fzGxJSvsPsNwQ9lROUDVwXSq3meiLmY+EAjTIkj7D/heQ/LZK9Wfgyn/hgsWnTJp/OqRL5zne+4/cilCiSzkWg8CZ7Tl487N/4xjdykVEeBbR7s2bNcnfddZfX+LW6sLGjGcCpPIuMMhd8iyCud955Z5fTdqXzBCd+AAhkSCOj1ibEkzWAuIY/IJyOIfBZ0abkCf23f/u3bhH0lY65Va/HLIhpk0MCz1xW9SN+iCCuPNtJuQvLzZNUKxyAOKSVI6O0wY/3zJkz/bNivl6tiqHG1fMI4BOaRUZ55uJn6Y477qh48EuXLu2Si5TvTFJQzQsvvNDNwpLHbI/lIKxIRjuQrVoEy0MsX/ziF7tE8ZdrH9cHgrTsRXBULM3Ed+zYsV3KCDMWxljOGpY0PzIX4Gsq6WwECk1I2UyomIPWqRrhRx9tGub9Vhb8dyAZlQpmcrSOSZt4VltsehDESrXBEFI0rfhmkSQ7Npdn9Yu2lWTLRRJcCMgrCEGsVEh7g6Y0TNpdrg0iczm8xOVVs/rlEIMZTqQ0C6nO/Zz0anlM7jyzoV8m7izkB61GYotJ2l4WW2bYf7K+A7G5vlbtKPMjij5OzD9q1CjvfoDLUtbBPA9GzcQ3VoAQoLVs2bI8w+x2Df7B1bqpVdWhbmo5BAptssepPq7AwwkV53o2QBzsMX1aeg2iNWfMmNEl6hOzDb5N5I1rRcG/EJJhwheaDYENGDM35iuINaYQTFqYV8IfA+aHZvX666/P7adJXwQfWK5BTsP4QdEnWgQwxQyFhgGyHFYuQovBuuCzaFpA1gQXAsx2mPbRsHAPp+8vfOEL3fwx6Tuv31XSmrH2+NOagE3ojoDbRdqmyoYbm/OpSBNqiGk79nkFlySB2Ce5ENAGUbdEKOOHC1YcIPjBJQF36CeLFQBNNViV8/fkPrQxsfA9wMRmfUEQMOnzY0NQCvNDGANa7thnthW/FxpT8xHIG7keKwj4/lcbXR0HP6UpDx566CGfasksAjzDEMAk1xyQwycyPGybL2qtqDJetMG4EYWC7zyuX3zX2Xsg9sQyVFOVqZn4klYqFA4llfjKh/cSMIbrAtWkJJ2JQGEJKSQs9uMjoAcyE6fW4Av04osvekJEupF//ud/7pJLD/LEl5zgmlaTUMO4e/du97Wvfc0HEIVCUA9fdKJDMQlDsPFRNIGUfv3rX/fO6ZCRPGJklMAlNG6QmVDAlM2JHykwDc3KYdJsfhAwVce+rIwZEsfnVIAJCR8bFn5U+KtVI//93//d5Ta0yyEh5UcgDo6wG9BuxJ+h6Q3Hx3NE5ZE8gh9n2Df3fP/73/f+trHpkx/udevWeb9R/G4hiybgQSAJhDFJ+MEn6jUW0sagJY+1Nvgvb9682ZPiSy+91FfewV+sUo12Hgx0TTEQyGvOjkvr8t2JfeirRWTAgAH+4BRr2thPIHqhdQWzfRohJTYAq4AJBLEacpg0D6LqwSDJIsI+aRWMuJc++d1hT+EgnVWKlHuaiW/cF0qQWoTsDCKktSDY3vcW1mQ/ZMiQbpocfnizEhqzcf3pn/6p499QyH/XygKBwJwdk9F4zGjDKIMXp03hhE7d6Urkvffe836MMRkN2yAQJiaA9jkbLAS6XGAV95MGJpZWd6PIgyMHHUogkdUqGAAAIABJREFUhsKPFfMt54dHwm+IJ36dofADl5T6hmsgvrGJEmKLdjyrtjdRypDZSjMz5MFA1xQHgbxkJM4oUk8E0IAmZcigj0rM9o0w19s8OfSjAEDxEf/OxFhAUCHO7JOMn7gGArRCshzf00x846AqFBS1SK3319K37u15BApLSPv3798N3bxRwphVMPGE0uqnNrSeu3btyvVEQUDQeEFsQoGQVuLDhN/jli1bMvukWkosaDAIgMjjM0RllPi6Rm66mROq0wVxJCxaGKsHnqcLyGSIP5qh0H3D2uAHOj5QcR+uAnkF82El1+dtV9cVB4Gk3KFJs2u0y0dYcz7sn3RUmIVNuC7JB560b6GvNAfmWlyE0lYY0z0ZSvDNRguaZy/kwEm+13vuuadbdLv100x846DIvFlb0jDRobc4+0E1MymsyT5J64NPYt70GnzhSdxrknWSrQb8et2DtpPNthJBo4ppGG2pCYExmNNJUZQl4IHfZx5BK40JPzxNQ3DyrgWaWPoL/SbTfnTyjKcVrsH3F5/eUDDTVyL8gH3729/2wWUmkyZN8hG74fOPyT3OE0hfeX4Aw/Ggnbnmmmt8nlmJEIgRyJuvNk7LhFaskpRPWcinkSI0kygaZs+eXWoCn3pyi4ZClgsCDU1wO8o7t6yxxZ+jFMDSwQt3GFzDeOG/TXBSUpoo2uBAjqsQe2KcoaCZ+HIICff1rECxLHzS5pt1nz4vBgKFJaT4osTCyRJiFG9ASUtJgnxe7SD33XdfVcOcN2+eD3IJUwwR2JWHkEKAs0y94aDwfww3LpK7VyIQ6DjhfSX3t9q1+KiFuOMrFpZVzDveFStWdCH7BKxxqAijlkOfXdrlR6SaSFgCuog0ptyfRAjECPB85JE49RHf7bw+13naL3cNZu+QkBJ4CREMXbkaaa4vNzbGwL5qygX2B4KGyIVKRaakHJ0UCMBNK7SUNBNfFAX47Zpw0K5FKk1hV0tfurf1ECisyR7tZqjhBHpyKv7DP/yDT7GB43jskN16y5NvRJVqR61VNq44EGHYsGG5Oq00oCjWWlTqK1Q0U05YbQXASQdTae4+7kPrE0f0xwQ0Ts1Clae85CF+GMj9KBECtSBAAGkotZKYSsbCfhcqK2KzPSQwDHxij+T70hOCBYODO1aQT3/60z6YksDVUHAvCAk2nzUT39hvePDgwTVBhV+9pHMRKKyGlCX9+7//e5/fMTYjENXMiy84Xyj8d4he5lUp0erpRwe/2NAvqtLxUG0pjPLOGyyUlfw6axzVEqKsdtvl8zgdGbhjgqtG4hykoUmdZz/+wY8PapX0SeYDSHDsAlBJG7q2sxGIs5VgOUHLltcHvlb00JKGGScIGiIVIEL54zAoivcrdW2pdXxJ93NYJSMA2lBM9KG1KT7cNhNfDtJhtgDSxVENMS3NXTlsIKNpAWmNwFRtth4ChSaknC5JxI6PXVKQE8sBMeB15ZVX+tXBdIq5kxRJBNNUYpbuieXNkwak3LjiEzcbHYFN1WjremL+7dpnHJQFqcyb3D5rzmEAXlJpwVqeGQ4iaI2yKnNljVGfdy4C7LFk+yCvrgmVh773ve9VDAoZUWzv5mYyQmSZ/yGZZJ0wlxnM9kSt48oS+3UbUa14YCk3UMUotMwR2Jk3fytNooDA3xaNqUl84GwmvknuXaxHWNI1L3a4JUg6G4HCmuxtWcmlSEJwUg/lqQ2PDwuRj2xq+JqS2L2VA2jiSPlKH+c4DRabtHJNVopi5dc3MktAaBFISg+Tlfosaza13p/Vvj4vPgJxCiZKNZdLZZSECPsy2k2ed3vl8cMm6AeFgwmR4gQDchAPzfX4ZdZiTUgaM8FREFJ75XWRCtuKsxkkZTdoFr5oQtGShkKp4UoPrGhWeQYknY1A4Qkpy4v/IqdvTmDkzaRmLn53WWZjqxdONDpfmFYUfIhqkaQUIVm41NKf7v0NAo2K2qXt8ADVCN/bWp85PQNCgIILYREOtHx/9Vd/1SXQLwslCnmE2sFyFdbitmLCBrGFHIb7fHxN1njyfB777FPcIozoz9MG0fehxFYuPmsmvnG2FX5TKHaSV5GD+w/udcR4SDobgUKb7OOlxReIJO6WyJ0vDk7Y+A3hh0MwSNKXAt8WTBC/8zu/UzZhebWPUi0/8Ekm2UrGEd8PGW0kWapkbEW+Fi1NqEWgdGdaAYFKcQjdLZLK+NX6zFT6A1rp+HV98RHA7eOHP/yhIxevCeZy9kLISVb5SYjcH/zBH3QBiu9Q3lyouGNxrWllyS4SBlryWxHnoq7HquACEAYhkTkEl7KvfOUruWIBKG0dBy0m5XluJr64SZDDOiTKjJHfzL/+678ua5lkLyKHduwHWw+s1Ub7IdBRhDReHrRHFsxE5D1mHxIis0nimB0KlZ/w24mr49RjyWsxkeN3WIvPZxxc08r5VuuBdau0gVYjjH7HVSKPS0ml4+eHHT/oUFtRS5EHfkAUeFDpKuj6JATIhTt+/HgXBlJiMicPKIE7kEYi4i2Akn0SooNJeNy4cV2axC/6hhtuyA0034lHHnnEZ1tB0NKFpaaJI4jzeeZuvMyFWOZwFyAntgl5RymdilZzyZIlvuQy31sOluztmPdHjRrl/VtxLQgFly2IeE/iC3lHI0rlt9DiBskndzEvArKI/kcrzqED/2G00hDZUCuNNVOa0no8ae3ZRkcT0njJ0AxygjXf0TjfIgnGG0FIqTNerZB3kuod1UQ10id57kLJW4+62vHqvt8gwA9TWD0preRnrXjxY4EfdeirVo3fmo0jTiFV6/h0f+ciANH80pe+5C0DcSAewai8EDSZHNjSkqZDyv7yL/8ysyx0jDQmeSOkSZ81amUgb2iHw+AmDnooQkxjDDYUBIGEh/mKwzFBWMtpIJuJL78/f/Inf+K1oiEpxZpy/fXX+xfjZS3T5kSlOgjphAkTGgW92m1xBArrQzpt2jS/2dgrjOjMWhN+xL/73e92q/eeVKEmjsKvJh0OJ+RaJE7knLctNBOx8/n69evz3q7rakAgTs2C60ilQR3WPRHK+NPZC21+KHHQwfDhw1OzTmRNKQz6yLpWnwuBLASwFEBWICNpwvcijYy+8sor3nQfP+NZ/fI51rE4Zyfvo5hAO9soIVIe969yKQYJtIKkppFRAgv/7M/+zGtUy0kz8cUVjuwFaVk80PamzQlCy6FC2V0a9dS1R7uFJaS/9Vu/5fOM2quaU1e8ySWZEuIod0yjlZQ/43rK19UiuBJUU78Y01csVP6RNB4BUpKF7hE8BxyiKhXu+9rXvuY1TfZCax5KXJaRH7k4mXaefjHVKzVLHqR0TSUIkEcZa9Sf//mf+7zQeQR/zxtvvNGbfGux6iQFLi1cuNA1IhgwnBdprz73uc+5f//3f/epnPIKWlPcGYhIT/IdTWqnmfhSxpqxkd4qT117yL/5EteSTzsvfrqutREorMmeOumhHyi+oZWa2+PgDfK7xcIJPRYctPOesCHOtaYAIlUVWob/+q//yv20gU2Yv48bSXEiDanzflu1SJ770az/6Ec/ctddd12pK0yU/BgmPWdp4yHIISSgmMTigxTaWDQQ4fcBQkrp2EpcPSi9W2ut6lpw1b2tgwB+jr//+7/fZUC1kjgOTrzwa6dcJmZ8DkHsj5ifOcChVUSziTau1uIcDJ7fhDhVFHOrVJh7jEdWO+wB+F1CyLBaYCnDdYfMAabUgLARoIQml72ZsVabG7tZ+DJmArW+853veB9h5kbZU0z1rBm+uWhuWUPymIbz+c///E+PiUlSBoFK10bXtw8ChSWklDgMHcCpHY4PKBGBeQQyGvr4GWGL7yUQhVcY6PF7v/d7vh5xmNYkqU+0tuYnlWdM5a7BBAQ5xjE+SyyyM3YvIB1WJ0q8TpWazuP78wap4ewPMbSAI/r91re+5f7oj/4oV4ATBJNrQ4nTvdhnN910k49eNsEk+B//8R+OZzVPonyIM5HNEiEAApAOtGGNELSkeTWltfaP6bse88DNq9p2MFNzaIzdeGqdW9r9zcKXwzHxGLzySljWNe89uq44CBTWZE8EZWxOJ73EF7/4xUxfPdI8UXI0To8T51uzxyA2nVCKkzKQacQELRMmqn/913/10Z2crqs99YaPIu4JX//618tGQROdijmFE2so1GtGY9aJEid653BBcAHEPc2HK8Qpvh9tPJoB1rmctpQDBKQwFJ49DgYcntL6pk38RvFzDjWWROaytknCQSxMBs41VC/jekr/pfVF4AVEFu2oRAgIASEgBIRAoxAorIYUMvov//Iv7m/+5m9K2PGji0YIMzmnWcwgmEO4FvLIDzTpNZKCl3Aeh7QlCUQV02n4o452Fa0sZNVSl2B6IpCIPkIiQZQpGqgw6jLvgmPexVfHyk5SZQpNFuYQKo0wPzRwmPVJNZI0N3yYiPzsVEkKLkDzGGsf03LlxWZv8MY3LBRMU3HeRD6//fbb/fNw3nnnlS4nDQok8Mtf/rLDp5ca35gr8RNmnSl1mFQJhepi5VLV0CZmNOqGm3DoYu2p7b1s2TJf0hHtF2bDgQMH+r7CPLlkBzjllFOq8lnu1OdL8xYCQkAICIFsBApLSJk6Gj/8kb7whS90QQLCwA8trzyC7w7pNdIiACF+VHOizGgokNwsMyfmDLRUoS9hnjHZNZCHv/iLv3Df/va3S76oEOO884PQQpSSfGErGUc7X4sJi0MDRKsa4bBCTW3M4JUKz9RXv/pVnxwarWcoaGjD3IhpbWMu/OY3v+nzKpYT1ho/N/I/xhpyDkOxT3HcFs8a5LWamuOV4qLrhYAQEAJCoLMQKKzJ3pYRkyha0mqSHGNGx3yKn2dWzXi0nPxQ501bAYkgGT8m9rz3pD2aBCPhQ5qnjrO1QZ8QdiI9CQDrZAGLb3zjG10qtVSCB0Tvn/7pnzJ9htPaxAeVSHncPCqNNEXLjyY3zZ0k7pMgAdac6yt57tCc4u5S79releCsa4WAEBACQqC4CBRaQ2rLNn/+fLd48WKfsoZqFyQGj1Pj2LWQUKumQRQ0Ju+8AiklShqNLBrKpBKL+PmhUUMrimbVBIf28Pq0gCjGg/nXxAJSIJVE2uMjyjwxz6NhiwXCgxmY6FJSD+UVUquQcsSk0ujHZt1P6dMQH8abdZjgmo0bN/qctTwf+ABjssZEnseHlPuplkIuRe4n2Aj3DDTx5kNKcvpyAjkkIImKJmhFCcijKk1SXls0lTwvHCh4riuNNgaPf/zHf/RR/qTNIbguqfoSvs24qeB2QsEI83Pm4BOmGVN1r7zfIl0nBISAEBACaQjs82vt4ceYC00gMXHZzKLBB0nABw/SYb6ckC3IHgQP7WWtQh+YRSEmRE/z4w6JQ9NUj/azxkf/FAPAFIvrAPPDLM8YKtGMZfWjzxuHAISWZxSyyDMEkST/4ssvv1zXZ4hnBf9pKoZxUCNIC4sCvsX1CLZrHEJqWQgIASEgBCpBAB4AD6mV85F+LVSGEB8TB4KXGxecBOWfCS5vHaEhjUGBkLEojfSbpA+0lj1lDqd/gmF4SdoTAcggG0e4eTRiJjwrHMTypH9qRP9qUwgIASEgBIRA4X1ItcRCQAgIASEgBISAEBACrY2ACGlrr49GJwSEgBAQAkJACAiBwiMgQlr4JdYEhYAQEAJCQAgIASHQ2giIkLb2+mh0QkAICAEhIASEgBAoPAIipIVfYk1QCAgBISAEhIAQEAKtjYAIaWuvj0YnBISAEBACQkAICIHCIyBCWvgl1gSFgBAQAkJACAgBIdDaCIiQtvb6aHRCQAgIASEgBISAECg8Ah2ZGL/wq6oJCgEh0JIIUJ2EAgRppYFbctAalBAQAnVFgJLURx55pK/AJ/k/BERI9TQIASEgBJqAABWxtm7d2qXcXhO6VRdCQAi0IAJvvvmmO+OMMxwloiW/QaCphHT79u3CXQgIASHgEejTp09FtY/bHTbqPoe1n9t9Phq/EBAC1SPAARWLiQhpD2lIX3/99epXT3cKASFQKAQOOeSQjiKk/ABJhIAQEAKGgPaErs9CUzWk8WM4ZcqUjvpB0tdQCHQyAsuXL3e7d+/uZAi6zf3KK690++23nzARAkKgAxB4+OGH3TvvvNMBM61uij1KSCdMmOCOPvro6kauu4SAEGgrBDZv3ixCGq3Y1KlT3Sc+8Ym2WkcNVggIgeoQ4FAuQpqOndI+Vfdc6S4hIASEgBAQAkJACAiBOiCA+4IIaR2AVBNCQAgIASEgBISAEBAC1SFAKjwR0uqw011CQAgIASEgBISAEBACVSCQlHFEhLQKIHWLEBACQkAICAEhIASEQHUIUBwgln3feOON6lrTXUJACAgBISAEhIAQEAJCoEIEkrKL7Hv44YdX2IwuFwJCQAgIASEgBISAEBAC9UGAbCMy2dcHS7UiBISAEBACQkAICAEhUCUCIqRVAqfbhIAQEAJCQAgIASEgBOqDgAhpfXBUK0JACAgBISAEhIAQEAJVIiBCWiVwuk0ICAEhIASEgBAQAkKgPgiIkNYHR7UiBISAEBACQkAICAEhUCUCIqRVAqfbhIAQEAJCQAgIASEgBOqDgAhpfXBUK0JACAgBISAEhIAQEAJVIiBCWiVwuk0ICAEhIASEgBAQAkKgPgiIkNYHR7UiBISAEBACQkAICAEhUCUCIqRVAqfbhIAQEAJCQAgIASEgBOqDgAhpfXBUK0JACAiBQiFw2GGHuYMOOqjsnPbZZx9H+WnK/iH8y9+830iJ+21kX3nb7tu3rzv11FPdoEGD3FFHHdVwDBjXIYcc4g499NC8Q2zYdccff7w744wz3IEHHtiwPtRw8REQIS3+GmuGQkAICIGKEZg2bZobPnx42fsgrLNmzXIDBgzw10FM+NsIasWd5rwh7jfnbQ25DEI4Y8YMd9VVV7nx48e7CRMmuOnTp7uZM2e63r17d+nztNNO82S1XnLuuee6yZMn16u5UjsHHHCAX/tPfepTmW1zHWPo1auX23dfUYpMwHRBKgL7CxshIASEgBAQAvVA4M0333QbNmxwH330UT2aa/k20NReeumlbr/99nNz5851e/bs8WPu37+/u/DCC93FF1/s7rrrLvfBBx/498855xy3detW99Of/rSl5wbhHzNmjHv99dfd22+/XXasJ554otuyZYtbsWJFS89Jg2t9BHScaf010giFgBAQAhUjgLaqnhorSFeWQMiWL19eImDh9YylGlN+nn7Dfugj655aP7f++vTp44444gi3bt26Ehnls927d3sc0DAee+yxWbBV9Pn+++fTI2XNkU7r8YygDf/lL39Z0Rx0sRBIQiDfky3shIAQEAJCoKURwHSMmf2pp55yAwcO9GZ0yNmrr77qVq1aVdLK4eOJVm/hwoXuZz/7WWlOp59+uhs6dKjX6JlAfs477zzfHv9HW7Z27Vq3adOmRCww2WO2njNnjvvVr37lr+G90aNHe/M1mlP6fOKJJ8pqCTEZo6E75ZRTvPn/F7/4hdfCrVmzxn344YeJfZ9wwgluxIgRvh+I1rvvvuvH+uMf/9hfD0GjTfw8aZ/x7dixwy1btqw0VuZ/5plner9MxoomE2K5d+/exD6NYCf52u7atcs98sgjXstouODzCc7Ma9GiRZ7I5VkL5oN2lXvpCzyee+65RILPNWeddZafA3MEN/BGS2tr/9hjj/lrIMvM4eWXX3a89/Of/9yNGjXK+8EiF1xwgb/vtttua+lnX4MrBgIipMVYR81CCAiBDkcA0oJGDh/G7du3u3nz5nkyB8G4/PLLPUnEpA4x47pYgwZJiwNkhgwZ4skYxApyA9mBoEIKMT3HQn+0bUQNIobZ+qWXXiqZdCF8l112mTdxv/HGG93aMDM4xBIi/dprrzkChiCTBM08/vjj3e7p16+fmzp1qidfK1eudB9//LEPsgELSCWkcOzYsZ6MGsGkfd6jv0cffdSdfPLJnkw//fTT7sUXX3QHH3ywxw7CePvttye6IaARhvCPHDnSa0rB/ZVXXnHvvfeeJ3L8jTAeDgr0h/b0hRde8OQegppnLSD0+GpCsHfu3Ok++clPOvxHGSP4mDBn3qcv5s0cmQMkFgJsaw/R3LZtm3vmmWd8W+AEvuBA+xBl2mGNwU4iBJqBgAhpM1BWH0JACAiBJiEAIVq8eHGpN4jJZz/7Wa89hHBUIpCq+++/v6RBpC1IISQHQpMlEDUIzUMPPeRJGQKBu/rqq73WMImQ8j4+mJBgI3TcA5lCg5lkioaQcs2SJUtKQ0KLCMmE8DEGyBkkENKKoKmFWB955JH+bwtAWr9+vddAImhZIXkQOrSHsTCnBx980Gsv0Sqi+USYF9pXtJiQU/rlBW6MxcYAIc0SSCfzZlxoiE0Y/+zZs0t/sy7gzTW4ECCsF+O+6KKLPJk1YWyrV68u/Q3hBytbH+YPIUVzyitNOARxiDG8suaiz4VAOQRESPV8CAEhIAQKhECsuUSziUYOk3alAnEx07vdC5kiYAeiF38Wtg9ZwccSgmRklM8huXfccUfqUCCXXEPfoUDueCUJZnlekFU0lZim0YYipq2lPbSAn/70p93zzz/vyRr/GrFGi4v2lmh5MITYcw2m7HLy/vvve60s2lzmC5k+7rjjvEYTjTKa6lCLWekaQBaZV3wAeOedd9xPfvIT70qBHH300d4Vgb/RbJuYHzGfWzAVcw0FQllpyiZzq6CdeK0qnaOuFwIgIEKq50AICAEhUCAE0MjFwnt5tHHxfUlaQWsfU2+ShtPaoD/IYFIb5eBG40YfIYnNWh40mJjbifhGq4lrAiQQYmiC1pDxosnEf9K0nmgKIdmY0nEjQBuJpvPss8/2xHjjxo2ebCaNBwwggPTH55jweZFpACKJqwTm8B/96EdZU0j9HA0pkoQj75EvFoEgIoMHD+421rfeeqtLgFu5g0TegXIgoS80t5BjiRCoFQER0loR1P1CQAgIgRZCAJIUCyQPolZOkgJzkpKu23tZJMRIZRIRxjyMVg4NXyyMExIGmQ1JoEWsJ7kK4NeK6f3uu+8ukWT6hXiGgm8oLwTCiAn9/PPP92QUUom/LEFOCDgOGzbMazp5PymQC40qpOwHP/hBNx9TiCnzqybvaLgWhjO4x5iH68P4Edwj0vw+0eDWSyD88+fPd1dccYU368da13r1o3Y6BwGlfeqctdZMhYAQ6AAESL4epnvCFIvmENKFmL9fSFy5Ht/NWE466aQumlVIIhpGNHNZhBT/TPwcMZ2H44EoElSDaT1JMCujdTR/TLsGcoiPZJJ2D6KFiT3U2Mbplq699lofVGQCYSSoB0HLSHJ3zPkmEGO0p0Tbk/Q9SSCcBHJBTGPhfUhvOS1ynrUAQ9wC0NyGglsCZngTCCLtmauCvQ82119/fZdr834NstJ0MX+0r7hZSIRArQhIQ5qCIF9qTpw4ypcTNk02ZjZ7NlHu47SYlUy41oUL+621rVrv5zTPvPmB4YeHDQoTWNYPVq392oaMSa0nhaCHY445xvuwlQsA6Mkxqu/OQQDyRBQ7Gj2+j2j4+JfIawSihcaPoBVIE1pIfA6TTNKQyiuvvNITN0gR33OedYKj8pjUMXWjQcN0zfeD/iCWjCEpSp/xoWnjNWnSJO+nyj6MlhFCRoR8kkAu8ZGlbcgyBMmCdEh/BcmlP4gjBJN9HRM3bTIW9m/mQ0Q90fr43CIQciTNR5L3uRZNK2MkQh3NMJpLDgb0gX+pCYSRwwFjYH3YI7PWAgKOHy6mfwgi/aFBJpCKNTHBvYD0TuDG5+xF9I+WmPlB2PNqSK1d8ETzbM9OEvaMr575bjvnm6qZxgiIkKY8E6TZYAPLIqRErrJ58oVns504caJ7+OGHG05Iw3578rFmsyetC5shGLBh8sPAZkmkL0EDJvwwoh3hR6oewg8AeLOx5/lxzNsnY8QE+OSTT3ZJdp10Pz9Y/LAvXbrU/3BKhEBPI4DJme8GJIlgGPYwCGSoqSOCfdy4cf4aUvxwgETDFmrh+D6TS5ODNu9Dcjhssr8ZQYNYoSUzTR9kjL+tUhNE8N577/V5SNFOQl54j+9WuWTqmJ3x4bScoRzw2U/MXB/3C1GlffYY9gL6IDsA/fIdxacTUmcaRLS8jAWSRponxgKBo1/aIPiJdjB9P/DAAyXtctLakk6JbAAEMLEvo5GGFOMaQBBWuC9ATjnAsj7cAyHNsxaQebCFXEJMaZ9xQzjNx5Sxbd682V8HdvjPMl/2YIuwZ86sT4w94wirR0FIwRSteaiF7elnW/0XGwER0jquL19yNpcsElvHLnu0KQg42gTmS+oTS1jN+5BUTups+OaMz+k8zfTVoxOJOucHmI0YZ/0sQXvAD7mlccm6Xp8LgUYjwD5EGcdypRwhpxCtWMy/kvdJnG+SFt0OcYH4mUB2Yr9QtJdJfZXDAcKJVi5NMxf3yx4DMYwlnAOflYvU5/PQxzTvOkFcIX3h4Tvt3iR88qwF7UFgLQ1WubGVmwMHinC9rB2IfuybC4nnlUeyTPt52tA1QqBQPqT4RHFi5MsBUeCEGDvlW960PEmheTzKtRU/PlaFJD59YtLGn4lTcSWpNfBrYg6Yn/KYROiH0yz3WORlPEZIIZ/j25S0iVjgAGPNKlFHW+ANGQurp5iJifutWgzrAFE1/C0ilPft/zZWuyaeM+sLjqRVKYcHczDc4vnbOMJ1DX3pWB/7G01pUlBH2Cbj6JS63douhYAQEAIxAmhXLYer0BECtSBQKA3pjBkzvEYOsoUmjpMrhIGTH9U9IE34OZKU+b777utiosDcgpnjpptuKuEJGfnMZz6T2lYMPIQQx/nQpIU5Fz8cE8gL5ipLXJy0eJAiHOwhVYwZ8oyfE/nwMKElSdwP8+bEbr5ezOWSSy7xGwfmdcgiGwmaC07o9EGgAX5X9jnEEtzMnyru18y6bzwqAAAgAElEQVR0jBOMQ2KGue/mm2/2ZjHDxe4HI9N+zJw50z377LNdkjazfqwlKVjQrjAXUrrgk0UfkElMeLFfF3MiYpY5cB33WVJu8+mlPzSf+HFZUAXPCeYpfFExYfIsILSF3HDDDbV8x3SvEBACQqCwCOA6QOJ9AqcoOyvXpcIudcMnVihCClrUXMbfBjIDmcNZHzIDIQmrXORBtta28EXCiR5HczN5QXrxT7KUIEnjgAihBcQMjn8qhI73+NLfcsst3fx/8JGin9DHir/xn8Lkgm8Q/mJoIm+99VZPRNGgQlDxlYScQ/YgcphzMCtxLZ/RL2NIimyFyELiuJfx4tBPX2amN8LKv/TLGCDGEPZy/mMxJviv0Qe+p5BJCCnzI+I2FHBFM07OPwgxhBNiD248D+ZnamtiaVyYI/fiM8wzApGnJjgHgKS0NGGfeTTXeZ41XSMEakUAc+yNN94ojX2tQOr+ihAgCwC/Syg1QktZRY3oYiHwawQKZbJnRSFJOPWj5YOAQJggHjiSZ5mg4yei1rboE38eNIBo7MwvijGFjuhhv5ibCQri1Gl53SB0aPDQCPJ5LGwCXA+hYs68zBfM8tmZWdw2DH680J6aj1D8ufmhgWU5/yCCeQgEgGATgEAFl89//vM+MteSUjMeSDCkFgz4fyWEFALJfNAqc7/NN8x7By5GWi29DdGraHhxLSAy2ASSCbHlGeFl0b+0gW+a5WvMk9oGd4pGZ1TQTiUE8iLAd6OeAX55+9V1QkBkVM9ArQgUTkOalJwXMoMZNs2vMg3ErLbSkg/THv6SaAOTTPOQuDQxM3KcPsiiTJPuY35cj/8oBIl0SHFOQdK2TJkyxde0hpChxeQ+c8THDxRCOX369FKKENwD8gTroBnlhTB+iChaTVKoQHrz1LxOwwP3BXw5k9IpsT5GetHQQpzRaoclEo1MQ0rN3YETfSiQUiSpRna5L5iVT4T0SoSAEBACQkAICIHqESichtTIRQiJndzi4Jks2Gppy4KXKtEEMh67r5LSbvhczp492/uAQkbx4YlJL4Tuzjvv9GZv8EDriH8s5mpIG1pLqpxAILmfPKfkD6Suc1IFF8ZKwBLpU0JBKwkJnzNnjm+H9E+VSqiRNa12Eh5J7zG38MUaoiFHI2xSr5M8wU9oVOvVXqU46XohIASEgBAQAkVBoHAa0qRoP9M6QkrSyFVSNHVWW+UeAsy+mJchiLGQLy+tFJ2Zf7kvNAVDVMk/h6nZTNLWLu9DjMj3Z+QoNu3jWwnpxDzNC99HfDDJa8ffRpzD9CVoGknfhB+uVTQJ5wIhxU8WV4KYeEMW0SCjuSwnmBdjl4Aw6h0cIZVJaxG+B55IEj5kDGiEo/28efN8gBx+wdKSFmVL1DyEgBAQAkKgJxAonIY0TuQLkcN8jI8jPoGWEzMsdQYBisvUsRhZbWURLYgaZC4kuxBDou7TNKeYkyGOEMXQhEw7BB0l+SsyR+4JNXUWKW5jJLgH4moCWbZEyGghIZZUU8HVwASzPtel+d4SfQ+xRcsaXwNZtAop1p5lPQhxYz3Q8JowZ3xvQ8HkT73okNyTRYH3TCC/vCCHYaARmOGGUEm6LfPBywpYsgTclbqC9MQXXX0KASEgBISAEGhlBAqnISVJOb6LprWDVGKqt6TJBAjhO0maJCNC+CFCviBQoWS1lbWwRNdD8qiPzHgge6Qbov+0VEqQSszt+HtyH+OyfKS0Z4Q67Bv/TQgl0eR8DumlHcgk5I55UJOZNkmnZGXzGAv+pBBT7iNaHzM+vpmQLXCh6odFo8fzheRTeQQsSeWEjybXWy5TgsJC1wHINCZ+Ap4I7MI/lRf3U+oQUo0frGk7rT/SZKFpZewkhmZsjBWNt60h79EXGl3mAG6sO3NEa1qunnQ8L+aAVpYqUPSBJjRNwFlJobO+Cfq83RCw/XH+/Pm5h85hEmsU35lyrkp52yY7Cod5giYlQkAIFB+B/X6t3fpGaG4k+ttM3PWePiQhFDRrSVHj1fZr5mOIG9o05gLhWrJkSRdCAjmESKAZtSTu+FhCysLyaWjmIE7l2mKsEDzzUYQEMk+IL5sypdwgS8yTvjCPZ6Wfoi0IK4SKMULUmFMcHGT9MkdM2wT/8KMAaYMoMgY0gxBMroW40ibXMX/mBlFlzFxr7dMn2kGuJ7o/iQTbGtEupJI5gjc/IBA6/EgZQ+iHi/YXUsrnkGTmhfsB86VPiB14cS/jA0cw40UGAcZJ+/RF5gLeY2yWmgkMmAPaWtpjTmQfiCsuscb0HYqVEbRMADwP3E+b8XMb3gdppy/GLSmPAM9wGFDGQSur8ECRMOWZjqu4cRCrNJiuGZhwAGTvSDs4J42BPY7DIN/H0Gc7vjZv2wQoslfpu9WMFVcfzUCA1IyWxYX+sCSmuRE2ajz89oWW1mo5H7/dYe5xAocrsUTCDcLfA/bBwmlIWUQmGUdSh4sLEFbbN3wfkmQSlsor11ZYWo1241J3EJwk/8ush40NnR/wNAn75aGAXPIKJS79hkaTV5rwRYHAVSo84Ggxs8QCjOLrIJa8QsmLYzwf5lCO8CetBffE/WU9QzbWJDeELBz0uRBodQSq2QfyzqmRbecdg64TAkKg9RAoJCFtPZg1oqIigN8q/rqUNOVAg/ZXIgTaHQFca9Bg20ET/3O0pWhz8N1GE8JhkM+xJHC9pVvDUoV2k8ISSRK3zTW4S5FHGI05B9ykGuqY+ulfAYTt/nRp/EIgGYFCBTWxQcamWC28EGgkAmh2cQkYMWJEZkaBRo5DbQuBeiKAH3qYzxeCSVldSCEHL8zyvEe1t0olbhuCiq89pkPcqTjUEQcQZ+jAb5xcyRIhIASKiUChNKRyfi/mQ9rKs8Jkjx+uRAgUHQF8RMllbAFLBAoSB4APNX7k+GZDGvEBTypkkYQP/t6QXPzcFyxYUKoyhR88eZBD//WFCxdWXG2v6Gui+QmBIiFQKEJapIXRXISAEBACrYQAJDGMnrfMFWg2w0CNSsZM+j3ux2c/LHmKBjYOACvn/15Jn7pWCAiB1kSgUCb71oRYoxICQkAItD8CjfCPtiwrSYUrKknV1v7oagZCQAiIkOoZEAJCQAgIgUwEQg1m5sU5LzCSm1TWuZIUMjm702VCQAi0MAIipC28OBqaEBACQqDICBAgRdo6fE9DgaAec8wxRZ665iYEhECEgAhpwiNBRSWS4TeiAg/+UnmKAZAQupOShuubKQSEQHsjYEUwSIGWl0wStEQlOEolkz6NtE4UZiF6Py4YQBEBEu9LhIAQKCYCIqQJ60q50VmzZnWp655n+cmjd9RRR5W9lPRAlPjMEiJPqT8vEQJCQAi0AwKQS3KVDh061EfI55UVK1b4Cnbjxo1z1113nSedmPJJARUKeVF79eqVt1ldJwSEQJshoCj7hAXDwZ7EzGFZrDzres455/iKQ2H50fg+ylAqV2oeNHWNEBACPYXAsmXLunT9/e9/v9tQiIK/4YYburxPaqYsidtmn4WUkmSfFFKQUZLtx0LKqZkzZ2Y1r8+FgBBoUwRESBMWLqvEJrnzwhrtlaz9888/n3p5Le1WMgZdKwSEgBBoNQRIKRWmlYrHN378eJ/vVCIEhEAxERAhTVhXTPZsfnPmzHHUop84caL78MMPHWlIMLnjB8oJnoTo+D/Z9fh94gd1yimnuEWLFnXLo0dXVDvp06ePTwKN7Lvvvg7NqvlP0S45+WL/1dGjR/t20UBQZ10iBISAEOgkBNhrtfd10oprrp2GgAhpwooT1ETgkZFCCCjl7iCLy5cv99VDzjjjDE9UMc/v3bvXPfXUU27s2LFu9+7d3o/q7bffTnyWSGWCWcoEoknt57Vr17qdO3f6z/AfpU8iUE3svtjRv9MeWM1XCAiBzkRAZLQz112z7hwEREhzrjWEcO7cuaVSdpDFk08+2ddb3rx5syegaD9ff/313GYlSCcBANRCX7NmTWkkbLyzZ8/uMrKlS5c6XhIhIASEgBAQAkJACBQNAUXZ51xRCGhYVxlTPmb8WpI39+3b16c22bZtW5dREPRE6TyJEBACQkAICAEhIAQ6AQER0pyrDAGtt6AhRUKia30kvVfv/tWeEBACQkAICAEhIARaAQER0h5cBUv/lJQAX0nxe3Bh1LUQEAJCQAgIASHQVARESJsKd9fO8BV9//33vR9pKFSJOvroo7u8Ryk9NKpE5UuEgBAQAkJACAgBIVAkBBTUVMfVJAr/xBNP9An1SVGSlQAfNwCCmSZMmOAj+onOh3SSBgqiGsqYMWPckCFD3H333Vc28X4dp6OmhIAQ6HAEBgwY4CgFisWGhPVkFdm+fbv7+OOPq0KG1HXsi2QjkQgBISAEQgRESBOeBzZegoqsUhOR8yStjyWuurRy5UqfDoryoWzaSYSUKlChlpOSefRHLWeIKb6jTz/9tDONqPVJDlSuq/aHQI+9EBACQiAvAuxRU6dOdSeccILPp/zuu+/6fY39jb/vv//+UnEQCCvvP/zww5nV7cjj/NJLL4mQ5l0IXScEOggBEdKExYaMhlHulLRLkgceeKDL2/F9SfeQ9D4WyCuvcrJu3TqfZiotv2kHPbOaqhAQAg1GgAMyZJQ97uWXXy71xnsXXXSRI38y5T4RtKcUB4mLeSQNkXs4WEuEgBAQAjECckhsk2cCMz4/DIq+b5MF0zCFQBsjgA87h9+QjDIdinfs2rXLE1CE6nQHHXRQiZha5hD+tZR4EFYKiyBYm8xyhBaWz/gXC9QxxxzjcBHAOpQk+NYfd9xxjn+t77RrjShT5ASiTP/cGxYlCfugEAqaXvq3+djn/G3v2Ri43oQ5cG/v3r0Tx01qP7TLXGP42IWMjfvj99v40dHQhUDVCEhDWjV0zb0RDekHH3zQ3E7VmxAQAh2JAP7wkKh+/fp1K9eJad4qxl1xxRUlgnjNNdd4yxLm/MmTJzvckyCfFAzZs2ePu+eeexzXY7LHvemII45wV199tVuyZImvTgd5hJyiQX3ooYdKpZchtlOmTPFkkdzP9E0xEkgmfvdUyUuSmTNn+qIj+PXTF4LLE9X2Nm7c6P+GCOOaAFmlbXOnYnzci5x33nklV6mTTjrJ/x8iuWzZMterVy83bNgw76rAvRD4Bx98sHQ9xH3SpEmecHIfLyxuzzzzTIlUX3vttZ7kz58/vyOfNU1aCBgCIqRt8iyIjLbJQmmYQqAACFDKGI3elVde6ckSLwKR8B9lL7L9CPI5aNAgb8K/44473C9/+cvS7CG0EDHIHcFQaTJy5Ej36KOP+j64HtJKe7SNXHDBBa5Pnz7+bwgvGsVLLrmkRDLLwX3mmWe6J554wgeZIueff74jQHTr1q1+DhBhSDdkmawnkGL64/0NGzaUiCWkFhL7gx/8wBNX+h8/frwfzw9/+ENPovGjpXw0xBliihYVIs19kFDI6Omnn+77JyZgx44dvi3mDWGXCIFOR0Am+05/AjR/ISAEhECEAKb1u+66yz377LPeLA+Jgpxed911/v9mjseFCG0qgjY09A/FhI0PKprGcoQLv3q0pmgZCZ56/vnnS+bvww47zLsHQOjMr59+0KrmEe6hfyPRBJFCOs3kjhZ31apVJS0wmU8giGhhuc6EcaFZJfsJbUFo0ZJCtsEAsmmk19rGzeqtt97y19Au92Hpwu1h+PDhvmmwQzMKaZYIgU5HQBrSTn8CNH8hIASEQAICEC3S0vHCVxON58CBAz2Zwt+TFHTlLDeQWkouZ0lMVmnTXALMLzMupWya2qy20XqGYuO19iGrzI1gLbSwmPb5fywQ1zDDibUTZlKJsQAvzPhoXEOBsIY+qFlz0OdCoFMQECHtlJXWPIWAEBACORBAM4gZHhK4d+9efwem+BdffNG/SHc3ceJEr7nEhzNN0CrmEczWaWJaSkvBF16XJwVeubZpa/DgwW7cuHHe3xW3Al6QaFwG6iGMOx4DZJoXGtY8c6jHONSGEGgHBERI22GVNEYhIASEQJMQgCRB0jAvJ5mSLal9uQh3hppFBvNMB5M3gqbU/s/faDJDk3qetuJrGD/EmgCppUuXlj6GjNdDIPMETcXuBRZVLzJaD5TVRpEQkA9pxmpicsGPCT8qiRAQAkKg6AhgekYTSpAOpvlYeB8xYmrEqhFljdEkEgBEXlQrTkI/BB3VKrRHW7RvgikfrSmSJ69quTFs27bNBziFZaDpjzyu5kPKGKhelYRzrfPT/UKg3RCQhjRlxTjFYrYhGb1ttDig4+TPK9zAOK1zeg8jTJOanT59ujeDpSXab7eHR+MVAkKgmAigMbz00kt9xDtmbPxB2QchV6Q6Qutn5nzTXM6YMcNHlxPEUy+B7D7++OPu4osvdrNmzfLBUWhL2YtDjWk1/eEjS3ukpaJNCCjE0PxCiZh/7LHHqmna34M7A9H5l19+uQ/awoWB9slpumjRIn8NwWEXXnihD6SK/WSr7lg3CoE2RUCENGHh2CTYRNig2JDYjHkPUw4nc07RlPdESLR81VVXdatokvQ8WIRmmz4rGrYQEAIdggBkbe7cuZ5Qkf4JKxGaU0jWli1bvM+lCT6l5CblYG5+o1yT5PdJKiW7lz7IIRqXWIYAk3bKBE3snDlzfEAVliq0t0S5f/7zn/fR62lCrs843RTjo08rMEIWAFIxMXYUChBxyCGZBExDStR/rP3lN4F2QrcEyDPvhYFUpLMivRN5TnERYNykgbLMBPRJYBX4SoRApyMgQprwBKAVRQvwox/9qEvNZTZeNpWzzz7b+1dVmhuUZM8SISAEhEA7IADBylPWmLlAuniZQLySBEJqQoqopKT2FlzEdZBClACkSmLPNSGCHSVBuSh+Sz4fjsMIqb0HMTTlQnidlUXlPQhpLGiHk8ae9B4kPi34C0INIc+yrrXD86IxCoFaERAhTUDQyrgl1VxmU+R0jUM9xNVShOATxAkejSrv9e/f35vmIa/4EXESJy8dJ2t8i3AJICE013CfleLj9E8foXaBzXfo0KE+VQjl/NAe4HfESTz8EQingp8XbeCDRXJo7rXNmDGY8D7XkvIEfya0F+QFtFQsaEcYG5s74+/bt6/PNcjftMP8MOOxsfLjZRVQrH0qm6BZBlNMbMzN2uYHBbMYm3voBlHrQ637hYAQKAYCkGLM6ey1BFjh74k2Ew0mZLTdzdyY79lT8+ZVLcaqahZCIBkBBTUl4ILJho0Q53PImDnTcynmIxIkJ5FVa4oNFFMX+ecgqpbeg/eoCoKYCwD+QxBY+mSzxZ8JomoCWcX3FEIH+UQry99DhgzxJDJN8FU67bTT3GWXXeaTOUN02chJbm11mXE3wO8LwszGzjWMb9q0aaWaz9RuhlDyHiTc2sG/DLcG2uQ98CJiFaJsAoGlUglaCK6B/NKfOfmDK21DeiVCQAgIgSQEcAfgsItPP/sXGlN8Mjnkt3ukOnsjZv1KrW16UoRAERGQhjRhVSGdixcv9qdwSsShaUSrB2nEfGMaRvykMC+hBUTzh0O/CT5BbDa33XZbyV8o6QGCLC5YsKD0Eb5KaANWr17tfVUpTwcRfeSRR0qbL5pGiGuWQFjvvffeUk1ozGif/exnPQFES3vqqad6kskYbUOkL2pAc6/5g+GmwHiocoJAXiHFEGhz+od0U5MZcgtGEFkIKTjSF4JpzEru4RMGqSe5tsxVWSupz4VA5yLA3kSgVD2DpToXTc1cCLQuAiKkKWsDicLvB3M5Gj1M8Ji+MVFjlg7z1iU1AbHED8mc19MeAXLghQLJg+AiRx55pNekYkIPNQE4wechpBBnTPYmmPtxwrcUVrSLT5eRUTSmkGEkduIPx2nRrWgpTBgfvlCWGxCyS1+4FYQO+/iCoUnlPdopV+O6db82GpkQEAJCQAgIASFQTwRESMugiWYUbaD5KaEpRGuKKRy/R4hhmkDQQl/NtOvKmf7xM0UgkqHgr5lFdLm+XNt8zvwwmWNmx1SPljMutWfXxdGkvB8nvg5JM+QWcnrNNdckTh1SXGvalnp+EdSWEBACQkAICAEh0HMIiJAmYI+fY2iOtkssLQhaRDSm5QgppDEp7UklS405H0FLGqZGwffS/EAraS++Fp8sgqVWrVrlTeuY6CGKpFOpVWgLQkzqmCTJQ6hrHYPuFwJCQAgIASEgBNoDAQU1JawTGkkCkExDGV6ClhRCmKV9rMfyE0UKqTUTvrVpZvVa+6Adgo3wDTV/UdJd1UNwFSAQCy0pbduLIKhJkybVXAWlHmNUG0JACAgBISAEhEBrICBCmrAOpFXCh5IqJUS5Q0zRSBKwQ9Q62k8L8DH/SwKF6l3+DRKHvypl89BkEr2PiZ1USfUIBKJ9/FQJYII8Eu0PWUTQlNZSChBfUQLByFQANrSPLy7+o+AHbrxH9RXrszW+EhqFEBACQkAICAEh0GwEZLJPQBzfT6K/Sb80efLkLlfgTzp//vxS/WNykhL8BGEkxdMNN9xQ1zUkMAryiXkdbSOmewKqSH1Sq0sApvqpU6e6q6++2o8ZgkpKK9qeMGFCl4CoaiZFWpbzzz/fk3gTsLKcexBeovFNO1tNH7pHCAgBISAEhIAQaH8EREhT1hDtHumYMNETEQ55wpSfZKpfuHBhl1bQsIal7+zDO++8s3Qd5vgk8krC+bDCCKmfqP6xZs0aT0jRLjImiLKVv0uaArn7kuTGG28svY1Z/dZbb/X5QRELMiK9FRpSkuSDQ+wrCwZJY4fEh4KfKBiiXeYF8QxL/fE3aalIzC8RAkJACAgBISAEOhcBEdKMtUc7aZWFmv2YEPVOgBFJoR9//PESmbPE+WHe02rHRmR8HO0OaQxrVVfbtt0HMU0KYsIXd9y4cb4Ci0QICAEhIASEgBDoXARESFt47SGLmLep+ERUv5XNQ2OLKb8Ipm6INim0JEJACAgBISAEhEDnIiBC2uJrj88lfquUMCUIiKh4TOpxbtIWn0bi8AhsEhltx5XTmIWAEBACQkAI1BcBEdL64tmQ1jB3U6ZUIgSEgBAQAkJACAiBIiKgtE9FXFXNSQgIASEgBISAEBACbYSACGkbLZaGKgSEgBAQAkJACAiBIiIgQlrEVdWchIAQEAJCQAgIASHQRgiIkLbRYmmoQkAICAEhIASEgBAoIgIipEVcVc1JCAgBISAEhIAQEAJthIAIaRstloYqBISAEBACQkAICIEiIiBCWsRV1ZyEgBAQAkJACAgBIdBGCIiQttFiaahCQAgIASEgBISAECgiAiKkRVxVzUkICAEhIASEgBAQAm2EgAhpGy2WhioEhIAQEAJCQAgIgSIiIEJaxFXVnISAEBACQkAICAEh0EYIiJC20WJpqEJACAgBISAEhIAQKCICIqRFXFXNSQgIASEgBISAEBACbYSACGkbLZaGKgSEgBAQAkJACAiBIiIgQlrEVdWchIAQEAJCoKMROOigg9xRRx3lDj744Nw47LPPPu7www93hx56aO57dKEQqBcCIqT1QlLtCAEhIASEQDcEBg4c6D7/+c+7/fbbryw65557rrv88stL10yfPt2NHDmyJkTjNvM0xjj79u3rDjjggDyX1+WaT33qU54IhjJ+/Hg3e/bszPYNX8ikCf+/+OKL3dChQ92ll17qws/SGuQa8J82bZo7/fTTM/vVBUKg3giIkNYbUbUnBISAEBACJQT2339/d8ghh2Qi8olPfMKh1TN5//333QcffJB5X7kLfvWrX7lf/vKXFbXxyU9+0l111VXuyCOPrOi+Wi6GeJ9//vldmoAQ59FuJuF72mmnOfBctGiR++ijj9zgwYMzh8d8jznmGHfvvfe61atXZ16vC4RAvRHYv94Nqj0hIASEgBAQArUi8NBDD9XahHv66adrbqPdGkDTOXz4cPfcc8/5oW/cuNGdddZZbtOmTWWnYuT33Xffbbcpa7wFQUCEtCALqWkIASEgBOqFABo2CMrLL7/shg0b5jAp//znP/ek5sUXXyx1c8YZZ3hT/LPPPtul6/POO89t377dvfTSS6X30TxClDCHo7ncsWOHJ0to8JJk9OjR7vXXX3fbtm0rfYx5+pRTTvFje+edd9yWLVu6jCduZ9CgQe6www5zTz75pP9owoQJ7oUXXvCaWLSGBx54oNuzZ4///Be/+IXj+hNOOMFfy1jp77HHHkuFFVzOPPNM16dPH6+JZT5oJpnrM888U7rvpJNO8m0z7rfeesutW7fO94sWdNy4ca5///7+/2hJwYVXkvTq1cuPy/p7/vnnu102YMAAP2f7jHWYOHGiO+6447qsR9qkPv7443o9RmpHCFSEgEz2FcGli4WAEBACxUeAYBj8CK+44ooSeYRoXXLJJQ4SaoKJ99hjj+0GyKmnnuqOOOKILu/jnwhRgmxBJiFiU6ZMSQXzxBNPdP369St9jk/l5MmTS+OBOMXjiRvDDG0Ek88gmKNGjXL4lr722mvuJz/5iX+PdioVfD4x7TN/iDfkGUJ5zjnndMGEv5knhBcyD4mdMWOGO/rooyvqsnfv3r4/CCft/OxnP/NzgaCGwnjefPNN3x8CUd67d68npBIh0MoISEPayqujsQkBISAEeggB/D4ff/xxt3nzZj8CNH4QLkgQWksjPHmH99Of/tQtXry4dDl/T5o0yZM3NLHlBGJKgA6azNAMj6Z1xIgRbsOGDS6vZg9CeOedd5Z8S9944w0/L7SaaFwZFxpNtJjlxjVmzBhPjufOnVtqa+fOnY5gLDN7Q1ohpMzbNL2MHwIMwZ4zZ47XwF5wwQUO7Wc5bSy40x8+noY987766qu7QMdhArIdCn9zeCgnaI0//PDD3DjmXXddJwTyIiANaV6kdJ0QEAJCoIMQwEQPQQtl7dq13iSdpBXNgoZ7Q4HoQtxOPvnkrFt9f5j2zS/Sbli5cqW75557ckWR2z2YsMNAJwgpkieAyNrAT4IJAzEAACAASURBVJMx4cIQtgWZRXNpgqYYksd7aIftBXFF48nfeWTffff1Gk7WIzwIsEZ2YLB2INbxYeG9997zhDtNIKNoxHft2pVnOLpGCDQEAWlIGwKrGhUCQkAItDcC+DrGWkd7Ly+RChHg3lh4D41llpgPKxrCUPg7fi+rLchZrQK5gyTiehAL7+GbinAdBP6aa65J7BItdBIu8cVcR3+Y4mOJ38MXNc5OAEaMCSKdpElGQ0wfCxYsqBUa3S8EqkZAhLRq6HSjEBACQqC4CBipCmcI2YHUlDPXQ5x4xcK98X30YRrKckhCqCB2sZDyiCTukLq04Kj4nrym/XLjISUVkoQRJNQIIRpgCDBm/STJ6/Zg1yXlRo3fY2zgEgp/M6a0uT/xxBM+byl+vQsXLizuQ62ZtTQCMtm39PJocEJACAiBnkGAoKQ4Wfvxxx/vB0MAD5JEFIkYT0rEjl9mKBBJ+rC2ys2SayB/cW5Q/EoJ9MmT+L2eKDJviDSBV6GgOQ4DsV599VXvCgCZhpzai3njP5t33JBJApNiDOk7fo8+wnyuRpwx76cJbeMza+tbT6zUlhDIi4AIaV6kqryO02u8qSc1xYbFdbZBsYnlMWWVG1bcZpVT6JHbMB/h5J8laGLALdYI8MNFsAMO/nkFzQZ+VIpGzYuYrisyAmjT0JpBMCGDkBU0aJAsfCURUhdBwPCVZM/Cr5IUQ0kJ7YlsJ6IdskTaItqG2GXlx6SfrVu3ei0oUfaMhzYgg2effbb3ocRPs15iY2cu5QKBCLAiUp5UUqSy4nqqIoVaT3xFweiiiy7yn4MR94ARc7e++BeCzjVpZTsJhmI/oz+uYb/i/zFJZ23wTw0FArx79+6yEEFY2UfzkuR64a12hIAhIJN9g58FHPbJyXfjjTeW3TTZ7C+88EL3/e9/3zvJQ6bYeO++++6qRxi3mbchchByYrYfnbz3VXsd44S4h/kG+fHiB+emm24q2ywb86xZs9z8+fNLDvm0NXXqVB+NS7qVMKI2rTHI+6c//elueQ+rnZPuEwLtjgCBOAS5kPrJyn6S3iiMBIdMQqKIEkfYu5YtW+Yj8WPhfQitae/YYx544AGf3zRLMMfff//9Phr+yiuv9JdDmCGjq1atyrq9os8ZD7lK0b6SUumGG25IvJ9rMG+PHTvWH2QhmOvXr/dEMQwgYo6M+7LLLiu1w71Lliwp/U3OUPZBrnnqqaf8KxaugTBaf3xO9Dw5YCHmJqwR42YfZD04tEOY8xD/ioDSxUKgzgiIkNYZ0Ho198orryQ6zFfSPs7upAXJ61tlbZOmBI1Eswgpia7RhoaEtJJ5xteyOWPiI0k1OftIXL1mzZqyTaJlQCt71113OfMPq2UMulcIFAEBvjdEx2OtwRcy9nmEhD344IOl4J23337bH7zD7zJEyMgQpIrvOhrBOCAIwhoKB8lQuB5SipYRja31VQ7nuE0O/LGg8Y1JZx4/SsghGlDIJQda89Ekx2joFwtmBAtBxHlhUo8DsciHesstt3QZWpgiyz6AgIMt6xFiGO5vtMXejzIE3CG6/AYwzjySFviU515dIwRqQUAm+xzooR2olxkjb1ts3GGlj3CYpq3IGjqmouXLl6fWg47N3FntpX2edzx5r8saR1rQBPcxJzS8lgqFNCloL7LmagETlda9zhqrPhcC7Y6A+S+WC8CBZEHCskznaDW5Lik6PS9OEOM8feVtr9rrsL5gVWFvgWAyN/w5OdyGFaqsffBj3JVmBYjHB8ZZGPLbwT6IDBkyxP34xz9O/R2w9u0gHvufVouP7hMClSIgDWkCYmjsKFsHmcN0jP8NJ0xOwytWrCglPcYPCCLz6KOPdmkFEzIO4qGJBE1dubbiYWDyws8qTMOBpo8qKRbFSbUOzFVpmzsnY0u+zCbIeG0zwyUATQOb5OrVq0snaa5HUwiJA4dFixZ5n7EkwaQOTvhw8qOFRpJ/ceznPhPaopYy5nXGAUkkqpONnA2dcUD4P/vZz/o8g5i9kgSzE+Yq8wtFiwzOofCDYJoL3iexNQQWbUGcU7HSL4uuFwJCQAgYAuy9VJ9i38I/k30Tf1o0mEklPZuJHBYuXA5I3s/vVx6NL/s8lqVp06b5A32aQqSZ81BfnYWACGnCekMyMYngQI9/Dn5UmJkgQ2xAVNeAoFr0ZNwE98apOLLaitvAJBX6IUH8IHWMh8TOfMZ7+BzZeOI2bB5hoBSnd0goZBtfKQguRBXzPD5d+C4xTzZYTDyYxZIEsoujvvlC0ReEm7mHiaFpn/dp15ztIducwvFF432rm43PZ1xhxPpms2ejhHw/9NBD3qwOYcbvNhSCENhUTVPDOtEmBwIR0s7a3DTb6hFgn8myKlTfejHuREt5++23+yBIDuHsNeyr4f7XUzNFW/vII4/4OIQ82lHGyZ5JFSh+I+S21FMr19n9ipCWWX9OiHZK5PSIXw7+QYMGDarYQbyWtiBvOKmjOUSzaIKZjOAdTuVZEZR2D0SXnHgWSABZQ3vIxsWpGAIKYYTUlSNwXEOf4cmbtq699trS+Ohr5MiR3n/TNJmQUvqGzOKbRh+QRUhzuf7QDqPpJHjJxk7/vIcG1gQs4jQy/J1VWYYfFMz19chR2NlbimZfBATypGIqwjxrnQMkbseOHbU205D7ObxX6hqBhQsfVIkQ6AkE5ENaBvWYIEFKORWTtqNSqaUtTPcQr9gMxHhwhM9LRhkzpDGMasWEzqaalOA5bY5oThhT7CRPu2EgFDihKeZ6/JjshbYTqQRHCDMm+jgiF9NUKOaGEL7Hab9cWUC0qhB+RaFW+lTreiEgBISAEBAC9UFAGtIyOCaVmMuqCZzWXC1tmekejWitUqtDPf2b03uSWQcto7kr2L+DBw9OLEGYVM0lbX4QyqSKLjFBJXAqzioA4calIC16FF8rRIS01qdL9wsBISAEhIAQqA4BEdIyuBGEE/tQ8h6aujRBG5gUTV5NW9aHkS40i6EJhn5wH2A8ecrvVfeIdL+L8WDaTkrgTICTjddqLOPzWasJkHkn9Rf62TJS/GNj/13IaDlzPAFYJLQmVyA+VBIhIASEgBAQAkKguQjIZF8Gb9Oc2SWYmAnasahzyE9MiJJKu3F/Vlvllp30Tfj2YPIOhcAiApLqlZIq76OHBhI/I6qzhIEPOPeHValwDwAjrgsFc//1119fkcmeaHnwJ2I0lNB/lPep5mIuAXYd2tW04CyuYT64VBDFLxECQkAICAEhIASaj4A0pGUwh0ihXYMMQTwJ0EHTZzkuib6HJFKJiWsgWpTGSzJlZ7VVbukhdUSgE1WPkOOOqH8CffDjJDq+nkJ/pHSCqGHGTnKMJ7iKCi7Tp0/3SfQhfZDuMEoeEs111GzmczBCe0m2APxeTdMMXhBN5sfckjTQBHRh+qdPsMAFgjHGwUrca/n3DBPWJSvJP64MuBAoKXQ9nyS11ekI8H3n0ExQo0WfsxeQdo7vPGneygUFsbdi/WG/IGPH448/XjafJv7gfP9JxdeoAEWCQIlExxWI/cr2FvYnAjTjNIBpzwC/J4yV9H3MSyIEOh0BaUjLPAGUfMNfktycw4YN8/nlqBRiKYUgg+TwZBPkGjRsmKchXkbiMF+jTSQ6vFxbECyuM/9HzN1h+hCi9DEtQ66oX0zKI0haWMYvnkrcJmQ6Ka1SXBVq5cqV/keAfJ9pwU5obYnWhwxDtqmdTJoR/g59OCHv5FK1tFmQVoKzwMnEfpTY5NFAI/QfkkgI4z333OM3b4g4JQhxWXj44Yc9bnYI4McN0761w/j54UtKVN3pX37NXwg0GgG+o+xVoSWJ7y6WJEhmufRCkLsTTjjB5zfmO007WX7nZMvgukYIfZP2jxR+7I0ciDmQW5lUDua8z+9BlrAnURGP/ZtUURIhIAR+XdhGIKQjACmCZKUJJ/AwnZNdFyaFh0DxQsq1BakK021A0mKByFWScDlu88knn0ycCsQ7lPi+pJvYeNGAhuXt0C5CliHkoYQYJLWFOT0uk0dKqFj48UrSJHBIMIEQo7mGJKNJRZvB4SAvIZWGVDuCEKgfAhyKb775Zu/DbcLh1Q7z5XpCiwoZ5TBK7uW4nfqNMl9LHKYhyeyXtseh5YRYchBGgUDOT/7OSp0EcUbYqyot7ZxvtLpKCLQfAtKQtt+atcSIMU8RCGR+l5YYn402TsXU7AFDRHGlwL+VHxEODVnmO9No82MpEQJCoD4IoCHF1x2/brSkBGFitcBiwv/T0rFhCeLQi1UK4V7aCTWk/B8XKSsaQptZwjiq9blH84rVJjxwc3DmYG6xA4wXDSnjLyc2hqx9KWs++lwIFAkBaUiLtJpNnAslVPEPo/QnGgwIKf8uXbq0oryojRgyLgiYA6+88kpvEsyTzgkXBK6j8AFa6Fhj24hxqk0hUHQE2CPIXoFrDVpStJ64LuGeA4HEopGUEg9TPe5Olj2E62kHTSTt0Ab+5ARRQhIhp7QdW2difCGwBELi00ogI2Qyr2BmR2MbCu5buELZQZaDLYGVENS0qnN5+9N1QqDTEBAhTVhx/B7R8pmvaKc9FHnmC/nEBYEfBvw1wYofj1YxPxFYgHamkjVcsmSJW7ZsWZ7p6xohIAQqRAAz9m233eZmzZrlXWjwVU8TMmpwSEwTzOJYY+67775S1hM0k1htyglElHbxQ8fcjol9w4YNiaQ4bAfCy6E7iTwTBBpqemk/y48U6420oxU+QLq88AiIkCYsMRtFJUSm8E9JmQmyGfNqNWENK9F+2PhbhVC3Gp4ajxBoJgIccsv5YeKSg3ncUvAxNq5HkRCnx4vHbT7yaDyp0HbNNdd4n1bIalo+Z3MVSCKRvBe6AVDAJKsKHQFRaFBFSpv5VKmvVkdAPqStvkIanxAQAkKgwxDA8hIGQoXTxw8UDWOYhcQ+T3ovDTrcBQiSvPPOO/2hGhefiy++OPFyO6gmRfnH1eFwE2L8ab6qpLLCP1apnjrsodZ0MxEQIc2ESBcIASEgBIRAMxHAupGW4snIYRLhqyZgib4gkVjF4ipvoeUEghwXQuFz3gtLGDNuNJ9p2k8i6zH/4ycrEQJC4P8QkMleT4MQEAJCQAi0FAL4aqblQEabyedoGfEBDYX38gq5TUm2j4mfYCgCr0IXgLgdTOz9+vXr8jYEluAs0lKZ8F6Sr6l9TtAk99A3GUEkQkAI/AYBaUh76EnIc5K3gKEeGmJF3fLjYbn1KrpRFwsBISAEIgQwvYdliGOAKApCGqYwCT45h3llCanqSG4/c+ZMr4W9++673cKFC8uSUdrEP5VofyuFzB5u1fPC/NCQzawIe9wFypn1s+agz4VAERGQhrTBq0olD5zoLSk9xG3q1Kn+dE/CeE7lScJmhz8TGgCrzoSvU5pfFW2Q0mTMmDHulltuaYizPJs3QQDkA8Rvih8NTviYq/gMHyyqN+HULxECQkAIVIuAFbdgX0kKNCQACeJ34YUXliol4VuKprJcpSZSPp199tk+sp6MGuX203jspIUjWOmCCy7wKabwY4VUrlq1qkv5ZrSo5D4uJwpmqvbJ0H1FRkCEtMGri29SGO1NonY2LKo5ka8uTahxjJ8Rp/LjjjvOO91nbWJskGzKjZJLLrnEb8ikxWIjR1NAvr05c+Z4ExXvn3vuublrOTdqnGpXCAiB1kCA/W/evHldCBs5fsuVDGXkO3fu9HmN2fv4PwSVdngPwd+Tspt2YGeP5RqE99L2SpQAEMtqs2kwdsgsWlbaQNkQ7uP9+/f3fqiVVNRrjZXSKIRAzyMgQtrgNQhrttMVhJENLPQ5ioeAdhRNpJUPJWdf3tKXjZoOWtFjjz3Wm7ZIkYKwMZMy5ayzzvI5BdnoyTG4evVqX65TIgSEQGcjAGmjUEUoeSLhIZgQSyrCQUg5kMft0CY+n7HfZxhgFKNfj30pqU/rh+pT7O1ZViJTUqB0qERL29lPk2ZfdATkQ9rgFcbHCFM6Jm4qjZAwGWd6/p8WZUm9ZPwx7ZRtVUrQgJpgrpo4caKvLHTZZZf5jTtLaIf8ftUIhJSN08gobbDponFAi4FAtPGdwiwmEQJCQAjUgsCzzz7rrUlZZThr6aOe97K34sP6xBNPZDYLKWc/nTBhgqLtM9HSBZ2CgAhpg1eaBMhxZGZWl2gi33zzzVLCeTY6Tt6WBoUydVdddZWDuEII2dxGjRrltarlhPQkV199tZsyZYp3zq9EIMiUyIuFRNJ8ZkFalPGDvEqEgBAQArUggHkes3y1h+ha+q7mXpQE5BbNo4XFZYEqUxzi0ZJKhIAQcE4m+yY9BebzxIkYPyM22jQh4KlclCbkk8363nvvLZFWzOeQzXKCKQk/K/xTCax6++23HVoITGJZgl9UUkUmTvkQZTTAmKEY97Bhw3zKliw/saw+9bkQEAKdjYD5hbYDCqSOqkQ44Ccd8itpQ9cKgSIhIA1pC64mmsy0cpyQP0zkW7Zs6XINflMEFWUJBBISSk1pfD4ht/iBQlIhlWmSlabKPrf8e0kJpLPGps+FgBAQAkJACAiBzkRAGtIWXHe0kWl12AmKgpRi0o8l6b206RFsAKnlhYvAuHHjfCqTH/7wh4m3oOFNIqzm18rniEXBkg5FIgSEgBAQAkJACAiBPAhIQ5oHpSZfg6k7DGAKuzfNaVKJu7Syd+WGT5AVJnYIJBrTNCGAKSnxPe+hFbU0KjZuI6ZNhk7dCQEhIASEgBAQAm2IgDSkLbhokL80DSOaU6p8kP/T0kLZFHgvj6BhJRqUIChILEmmH3nkkVStLG3u3r3bJ5yGgFrePcz0+LvymYmNu1zqlTxj1DVCQAgIASEgBIRA5yAgDWkLrjWR6kTSpwnVkSCCBEiRQgp/Tf6fFTlPNCfa0NmzZ/vUTLRzxx13+Hx/aS4CNoZt27Z5n1WqlBxxxBG+z/Hjx3uCSkCVCZ9BqLPy8LUg7BqSEBACQqBhCGA9wlc/K2sASgKukx9+w5ZCDbcoAtKQtuDCkATftJdJSZPJT8rmNnbs2FLOT6LbCVaiLF6aUCWKCiN56jbHbUBGSfJP/tTPfOYz/mPM8kuXLi1VSOE9SHE7Rca24PJrSEJACNQZAfYtqirhM99TgkKA3NGUiybDSZpgZeK6+fPn62DfU4ulfnsEARHSBsNO/flQqJ+cJWycBChhVsevEwIal6Ijoh6tJadttJuW+27NmjWpzUNYs8qPlhsbpnk0qmhFMfuzqVowE/exkVJa9P7778+aoj4XAkJACDQNAXI297QbEcoFXKPiylJNA0EdCYEWR0Am+xZdoGeeecabbcoJZJDE9HkSMdNOLWQ0HAc+pPQbklE+p1rUnj17HC4HEiEgBIRAPRHAlE2WEYT/QzLDdHRYf0iJFwZfYknCrYnruIf/ky2EA7X9PxyjXWPvcY0FauJGdfjhh/uPeB+NJ+1iFaLfLBM7gZ9WoSnsk3YILmU+SUny6YP+Dj744HrCqbaEQMshIA1pyy3Jbwa0detWh4mdSk87duxo0VH+37DYyPFPffDBB1t+rBqgEBAC7YcA++Gpp57qli9f7gt7sOd873vf80SQvyGMkD7IJiWOFy9e7MtyXnjhhX6y+M3zmjdvni/bSSERqiWFB2g+x+3ppptu8vfgb0/1JQJG2YsJAF21apWbOXOmW79+vX8Pv3mEAz9j27hxYyK4WJCuvfZab7K3PR2lA65XkGTGziEfZUQokHDuwxUKM75ECBQVARHSFl1ZNjfMO1Q8agdhQ2WjLVdhqh3moTEKASHQughAQvEHJRAT1yb2ScgoPu633nqr97kkrzIk9Nxzz3WrV6/278+YMcOTQMgeaepM05lnplaSGYIbktczzzzT1623dHmMa8yYMV6ZkBUkSr9odPEVxfUKVy5IMgSXwNFQIKmQUaxPEiFQZARksm/h1cUU3y4Ej01evlEt/DBpaEKgAAigLcQXHqJJqU5S0aGhXLRokXddgqASFPrUU0+VXJ7sfQgf/49djbJgwVROmWaIZhiMBCFGSwr55AVJxuSeFUVv/UF0IdJoYC14FdJM9pNQuAbNKORXIgSKjIA0pEVeXc1NCAgBIVAwBCCGJv379/cEE81kKJBIrDZoQmvVLGL+TyKx+IOGYlrRciWYw+txMXjllVe6tQ2hRrsrEQKdhoAIaaetuOYrBISAEGhTBCB9VLILBa1oTBjRhGJKr1QbmgRLWk7lWtsmWCrJtJ/H3N+my6dhC4GyCIiQ6gERAkJACAiBtkDAShTbYMn2QRQ6PpjhZ/iaooG0qnLx5NIyjhDNHkutxDMNWFL7JRVAKVcUpS0WSYMUAlUiIB/SKoHTbUJACAgBIdCzCGzfvt0TUgKMQhk9erSbMmVKiaRCQIm+N7GcpP369Su9R7Q+PqnNElwP+vTp06VPfFDPOuusLkNAk8q4SA0lEQJFRkAa0iKvbovNDT+v119/PbNaCmVQCRjAd0siBISAEEhDANP8ypUrfRnj448/3geB4jdKgQ4q0pkmFE0pKZYgoCtWrPDXvfjii95Xk2h3hFyi+HSSD7QZQrET0klNnjzZF0GBJJMhgAp4oZBphawBRNqzL0qEQFERECEt6soG8zrvvPN8suierqDED0aYyDoNenIHElkqQtoBD6emKARyIgBZTDK1E91O4BI5Ssn1yf8hnRx+TUjZBOnDlG8+qBBWciejpeQ90tZBBsNsIUS8J2UPIX1UXAAEX1Oi+9MqQtE2n+NmgFhqv0GDBnntJ8Rzw4YNft+DPJu7ARH4RPOHCf9zQqbLhEBbISBC2lbLVd1gifq0aiPVtVCfu0idEvuA1adltSIEhEDREYAAplWBgzSWSzsHWXzuuee6QETw0Nq1a7vBFqbai1Mw2cVx8nreN0Katg70ByGNZcuWLd2sRuF1EFk0wZYaqujrrPl1LgIipG2y9ji6c0ImTx2naV5slhA8fJ84/ZPqhFM1piA2MYgovkfch+aAkzibLa+BAwd6DUKoReAatJiYstBQYj5iE0TjQPt2gudeUp7QN+3zPtfQbzlhzGzaYboUzGskg0ZzwVhirShE2sxZ5B2UCAEhIAQ6CQH2ZdwKlixZ0knT1lw7EAER0jZZdMzYmKQgl/hiYu7hlA5pxHkfMxGnaErf4RSPeZ4T+YgRIzxRxVTO/9ESQEjx0yTBdEhIaZtqI3PnzvWElEABCC6l9OgfDQQmJe6FGEMkMT8xFq7F96rcpkmgATn2jJAyVny/SDZNxCnz470wjx9klzHhPyVC2iYPq4YpBIRA3RBgL3700Ufr1p4aEgKtioAIaauuTMK4qFICYaNePP5UEDfIGrWTcexHIJ/Tpk3zJem47rbbbvOl6Hr16uWrjVQqON1DOufMmeP27t1buh3NKHWgjVxCds855xxfTSTOE5jUJ3OhhjNRsmy2aFuZD+QajYAJGto1a9Z0qZBS6Rx0vRAQAkJACAgBIdDaCCjtU2uvT5fRYdaGeKJlRPs5ePBg7xtKGT0TSnhiyidiFHJaq5CG5JFHHvGa1DCgAPN8aHpHg4kWNimPX9IY0IZCQFetWlXyKyXf3/Lly7tcjusBfl7Ue5YIASEgBISAEBACxURAGtI2W1eInwl+peTWmz17dpdZmMmbmsoQ1FoE835SG3HCaQtWyhNFz3hwDzA3g3B8uB2kRanWMg/dKwSEgBAQAkJACLQuAiKkrbs23UaGtjAsK4dpnPcwkycJ5K4SCRNH231phDat0kne/iCwaeQ1L6nN25euEwJCQAgIASEgBFobARHS1l6fLqOLSSBmdEzqmPBDv00i1/H9LJcmBPN4GDxER0cccUQ3NGolnmnw4o+KSwFjtbx8XMvf9XA1aKNl1VCFgBAQAkJACHQ8AvIhbeNHAD9OIjAnTZrkiSnCv0TBQ0hNm4o2Ev/TUAOKyZ0UT5aflKCnuGRdI6GhbB5jJ2k/kfQIYyQYKxTeYz5nnHFGI4ejtoWAEGgAAhwwldC9AcCqSSFQQASkIW3jRYVwUm2EsnJf+MIXfIomcpKiLX3ggQdKM9u9e7cPgLr++ut9YmZeBApNnTrVfe5zn/PEkGAk3ic1UzMEVwOCpWwMjB2fVxJfhz6kEGwyC+A7S7USiRAQAu2DAPsJqemopkQAo0QICAEhkIaACGmbPBtoFEn1FAsE7q677vI5QDF14zcKecMkb7Jp0yZfAxmySs5PhOT33EeyeoR7IIKQV3KCIkT0J5nsFyxY4PsJBRP8vHnzSvcmwUr5vtC1gPnccccd/gcLLSmme96j3rT5rvLv448/7vOgSoSAEGgvBCjHSYo46rU/+eSTXXzg22smGq0QEAKNRkCEtNEI16l9CGBakBK+ouTzLCdoIOPI+KT3QtIbJs0P204q34fGM4kwh/eFaaLsfQhqXOEpLgEIad65c2edkFQzQkAINBMBDsEEKpJfuNJAy2aOU30JASHQswjIh7Rn8VfvGQjg4woB3rx5s7ASAkJACAgBISAECoqACGlBF7Yo00L7SyUqiRAQAkJACAgBIVBcBERIi7u2mpkQEAJCoMcRsGwflk2jxwekAQgBIdCSCIiQtuSyaFBCQAgIgWIgQJAkAZPDhg3rlvu4GDPULISAEKgHAiKk9UBRbQgBISAEhEAiAmT8IMMG0fbNzHWs5RACQqC9EBAhba/10miFgBAQAm2FABH2Y8eO9cGJ8gdvq6XTYIVAUxEQIW0q3OpMCAgBIdBZCFAFrnfv3m7NmjVdil50FgqarRAQAlkIKA9pFkL63CNAxaQjjzzS+4C99tpr7t133xUyQkAICIFMBCj/i1ixi8wbdIEQEAIdiYAIaYsu+yGHHOLrvFPdZM+ePT06SqokTZo0ySe2pnITr2eeecaPTSIEhIAQyINAUtW3PPfpGiEgBDoDARHSFl1nEsIff/zxPV6/nXKjlP2jChMlPKnINHz4cDdy5EivBSnz6gAAIABJREFUKc2qENWi8GpYQkAICAEhIASEQAshIB/SBi/GoYce6iCXCH5Uhx9+eKlH8vJRx/3oo48uXcOHvA8RRNCU0gaC2dz+Hw6bGva8EEzqXEMgAa+jjjrKf8a9YZv0279/f7fvvuUfgYEDB/qxLV261JvcyCn49NNPO8qKDhkypDQM2k4aW4PhVfNCQAi0OAK2N1HkQiIEhIAQSENAGtIGPxuzZ8/2msWTTjrJnXjiiW7dunVu1apV7pxzzvEvBFL4i1/8wj366KPu5ZdfdqNGjXKnn366/+z888/3/95www1u8ODBbsyYMe673/1ul1FzDeawBQsWuH79+rnp06e7e+65x11wwQWeAPP+YYcd5lOuYGqnDesXd4AHHnjA958ktEcewdhn9Cc/+YmDrJpMmzbNE9J4bA2GV80LASHQwgjgdoTLz9atW50IaQsvlIYmBFoAARHSJiwCJm6EXHykPiEfH2QUovr88887nP7HjRvnLrroInfnnXf6aFTeh+Q99thjDvJXqfBDgBZz9erVvk8IKT6gp556qrv77rvd3r17vfb08ssv9+QXrWeSoKF95513un1EomvaQyNLnkH64FqJEBACQsAQ2LJli9u8ebN79dVXBYoQEAJCoCwCIqRNeEAwWd12222euCFXXHGFz8eH1gBBOwk5HTBggDvttNM8ITWNJMQviRBmDfvtt992Cxcu7HIZmtjly5d7MopAIvmhwJUgTSCcSZoNmwtt8n+Is0QICAEhECLAHiMRAkJACORBQIQ0D0o1XvPCCy+UyChaxE996lPetI5JPZZy5LCSYaCZSJI4Yh+fUPNxTboeVwB8UWMx31NFzlayKrpWCAgBISAEhIAQSEJAhLQJz0VSzk60iqZltCHs3LnTvfXWWxWPCMIYE0M0q7F89NFHjlcl8v7773vTfCxofRk/hFYiBISAEBACQkAICIFaEBAhrQW9nPeGxBOiiAn8pZde8gFGoaAdjUlq3EWStpIId0z0oWS1k3PoPqCJLAAx6WWsfCYRAkJACAgBISAEhECtCCjtU60IVnE/vqMEEoVBQESoz5gxw/uRIqbxDNMyQWYhhn369Cn1Sq7SI444oopR5Ltlx44d3qSPb6sJ/R1zzDGOz0wYx8knn5yvUV0lBISAEBACQkAICIEAAWlIe+BxeOqpp7zWcebMmT7NE2ZvUkIRFW++n5bzc+LEid6MP2/ePK9V5f3LLrvMk0HM5kTKk7S+UUKE/7Zt29z48eM9CUW7C/FEI/vss8+WuiVLAKQaf1mJEBACQqBoCLDvUT4Z6xN7sQK2irbCmk9PIyBC2uAVIJ1SnPKEqHryhKIlJbgJrSeR9ZBRM7VDUiGhaEyJdEeokjR37lxfKQkzPSbzlStXeo2pBSYRkQ/hjX1IGUNSaieL9C8HA/lR2YBJpk+CfYjo+vXr/XhM+Pvss89uMJpqXggIgU5BYNCgQf4gfPPNN2e6MjUSE6xUl156qVciEBTKHshet3btWr9vS4SAEKgPAiKk9cExtZW0/J4Qz+eee65s7z/72c8cr1AIkIKEhhL6jxohjRuGkCblAkT7mUcgruXI6+7du90bb7yRpyldIwSEgBDIRAAiCPnraRk6dKhXDFBABIsWQulkckljqYr36J4er/oXAu2KgHxI23XlWmzcaHuXLFnSYqPScISAEOhJBHArQtOJladXr15es2jlk7HqUH1u9OjR3uoTlh7GhYnSxgjFPLDOILgN2f/DeXGN+dITcMn9dj3kEXJLv5jdsUjxL/0yHtLwlRMKmWCeNzLKtWhHsWJRgQ9hLswzaWw9ib/6FgLthIA0pO20Wi08VhL7S4SAEBACIQKQUEobQ974F+KG2Zv0c1SJQwP62muvebIIcXz44Yc98UMracGbaCKxwPD+GWec4e8JySH9UZkO8zlFPyhVCkGlOh1lkgkQJaMJZBECChnF955rIa+UVMaFKs3CA9GlkEkoWLjw+be80QceeKCf365du7qNTU+EEBAC+RAQIc2Hk64SAkJACAiBKhGAGK5atcqXRCa3MdXqcD9asGCBD5REg0mhkMmTJ7tbb73VzZ8/3w0ZMsQTzTvuuKNiH1IymGC1efDBB33Qp+VLRmMLGaYP/iXH8qxZs/y1K1as6DY7cxsgmDQWYgFoD2EOEOI4/V6VcOk2IdCRCMhk35HLrkkLASEgBJqHwPbt292Pf/xjT0YJ5MT0vnr16lJZYsghvvEQRFLI1SoHHHCAb49gzLh4B8TRCoRAKtHQhu4CYd/lKtKFVewI8MSMn9cnv9b56X4hUEQEpCEt4qpqTkJACAiBFkIgNLGbr+eUKVO6VZhjyJja6yGYz2OBRMZaTMhpmO85vMeIa9Ln+MVWWvmuHvNSG0KgqAiIkBZ1ZTUvISAEhECLIBCavDFvI+vWreuWno738e2sVOIKdmgsk8oaxyWWs/qBcDJe0uzFYqn3strQ50JACORDQIQ0H066SggIASEgBKpEICSCBAMh5FHeuXNnqUUCnoYNG+aDntIkSZtJ4FSswayUeJabFiZ93AxCwSWAfnFFkAgBIVAfBORDGuHIpkgkp6UNqQ/MakUICAEhIARAgMpzENFzzz23ZJ5Hw0k0PS/8TBEzh1vgkJHYvn37lu4j4p7k+fUkoPEqkX+ZCk1E7iOMlZRRCEFaCAR1woQJ/rdDIgSEQHUISEMa4cZmgw8TGyMpPdIS21cHt+4SAkJACAiBpUuXuqlTp7rZs2d7ggqx5PXYY4/58sgICechpddee62jhPH999/v0y+Ru/Qzn/mM9wUlh+imTZu8trJRQvtUaSILwIgRI3zqKoKvyBpg7gWMnUh9/FapWicRAkKgcgRESCPM8D0i/Qf+R+SrEyGt/KHSHUJACAgBEMA8TwlkzPOhUNr4vvvu8xWQUAAQ7Q7p5F8TyN4tt9ziyaaVKaYS3V133eUj8SGBmPepQIcWkzRSCP8n1VMsmNcxv8fyxBNPZC7W4sWL3YYNGxzaWUgyY4VIm0CiycVMDlSJEBAC1SEgQpqCG47srVC2rrpl1V1CQAgIgZ5HgH00iRwyMszscYL7eMQQvTgHKCb9uIxxWBYZ0sorFgirkdbwM/NpzUIrrfyy3Ucqq9AnNqs9fS4EhEBXBORDqidCCAgBISAEhEANCGDGp7zo5s2ba2hFtwqBzkZAhLTM+sepRDr7UdHshYAQEAJCIAkBNMFxeVEhJQSEQGUIiJCm4GVl4Uh+LBECQkAICAEhIASEgBBoHAIipCnYUnLuww8/9Kk8DjzwwMatgFoWAkJACAgBISAEhECHIyBCmvIA4Pz+3HPP+RQjhx9+eIc/Jpq+EBACQkAICAEhIAQah4AIaQq2JEIm59zDDz/sdu/e3bgVUMtCQAgIASEgBISAEOhwBERIUx6A/v37+5x4O3bs6PBHRNMXAkJACAgBISAEhEBjERAhTcGXYCZLxtzYJVDrQkAICIHWQeCoo45yF110kRs+fHjrDEojEQJCoPAIiJAWfok1QSEgBIRAfgQoyUlVo5EjR7pBgwblv1FXCgEhIARqQECEtAbwdKsQEAJCoGgIENBJJSQqE+G6JBECQkAINAMBEdIUlHv37u3QFEiEgBAQAp2IAGnvlIe5E1decxYCPYOAatlHuB988MHuc5/7nKNeMhH2EiEgBISAEBACQkAICIHGIiBCGuH73nvvuZtuusknxZcIASEgBDoZAZVP7uTV19yFQHMRkMk+AW+R0eY+hOpNCAiB1kPgnXfecX369Gm9gWlEQkAIFBIBEdJCLqsmJQSEgBCoDYH169c7XJhIASURAkJACDQaARHSRiOs9oWAEBACbYgAhUGIuD/ssMPacPQashAQAu2GgAhpu62YxisEhIAQaAICZ511ljvwwAPd3Llzm9CbuhACQqDTERAh7fQnQPMXAkJACCQg0KtXL7d792730UcfCR8hIASEQMMRECFtOMTqQAgIASHQfggQYS8y2n7rphELgXZFQIS0XVdO4xYCQkAICAEhIASEQEEQECEtyEJqGkJACAiBeiKw7777SkNaT0DVlhAQAmURECHVAyIEhIAQEAIlBA466CA3YMAA17dvX7dnzx4hIwSEgBBoCgIipE2BWZ0IASEgBNoDAZLhjxo1ym3ZssVt2rSpPQatUQoBIdD2CKh0aNsvoSYgBISAEKgfArt27XK8JEJACAiBZiIgDWkz0VZfQkAICAEhIASEgBAQAt0QECHVQyEEhIAQEAJCQAgIASHQowiIkPYo/OpcCAgBISAEhIAQEAJCQIRUz4AQEAJCQAgIASEgBIRAjyIgQtqj8KtzISAEhIAQEAJCQAgIARFSPQNCQAgIASEgBISAEBACPYqACGmPwq/OhYAQEAJCQAgIASEgBERI9QwIASEgBISAEBACQkAI9CgCIqQ9Cr86FwJCQAgIASEgBISAEBAh1TMgBISAEBACQkAICAEh0KMIiJD2KPzqXAgIASEgBISAEBACQkCEVM+AEBACQkAICAEhIASEQI8iIELao/CrcyEgBISAEBACQkAICAERUj0DQkAICAEhIASEgBAQAj2KgAhpj8KvzoWAEBACQkAICAEhIAT2FwSNReDwww93Rx99tNu0aZP7+OOPUzs77LDD3IABA9zmzZvdRx995I466ih3yCGHuBdeeKHmATKGU045xdHHBx984F5//XXfD/+vRmjrnXfecbt3767m9pa65/jjj3ef/OQn3datWxPx4PN9993X7dixo6XGPWTIEHfiiSe6l19+2a1fvz7X2I477jg3ePBg9+qrr7p169blukcXCQEhIASEgBBoBgLSkDYYZYjlxIkTPakpJ/369fPX7b//b84IAwcOdGeffXbNo6ONWbNm+fZou1evXm7s2LHu2muvdRBVE8jvJZdc4vr27ZvZ54gRI9zJJ5+ceV2rXTB8+HA3ZsyYLsMaOnSox33kyJGJwx02bJjjvlYSDhbM48knn3TnnHOOP2hkCet70UUXuTfffNO98sorWZfrcyEgBISAEBACTUVAGtKmwp2/MzSq27dvz39DwpVoZkeNGuXWrl3r1qxZU7oCAjN9+nR34YUXurvvvtu/D1lFG5hH27ZixQr33nvv1TS2nri5T58+npAnCcQTbTTaw1aX0aNH+7Hu2bPHa3Y5ICxevLjssDlo7Lfffv5ZqFYz3uq4aHxCQAgIASHQvghIQ5qwdp/4xCfcoYce6j9Bs3Tsscd6E3qs5TzooIPcwQcf3K0F7j3ggAO6vV+urfjit99+2+3du7dbG5BJTK9oVLO0rowZ2bhxY5d23nrrLU88IWiM9cADD/Rma5uvzZ05MGaE/+NSsM8++3iTPyZ7hDFwPf9Cao855hh/XdL8uR6tLOM37Sztp10bDtqwO/LII/3bjDkJe4gX7YdaQ8bMGFlXG2/YJ8SOOU2aNCkTUxtT7969fT9gDNELxfqiX8bL88N4TcCd9wzneJG5ls85UJjG3K5hnTDVb9myxb+1bds2745h69Ttgfn/b9iz8uGHH6ZdoveFgBAQAkJACPQYAtKQJkDPD/x5553nnnrqKW8SxacT0vHzn//ca6J27drl7+IaSM78+fO7tHLNNdd4jWTop3fWWWeVbSseBprN/v37lzSYkJTJkyd7EgSpYDzvvvuue+yxx0rjidt4//33/VsQmFjzydjQwnLN+PHj3emnn/7/2jv3Xz2q6g/P6YWWBlpRCJqoWKGNJlQMJmBJ06hISAXiBQkaif7iv+HtX1ASE6KYGEUoWKASlatBigUxlmJagpUg4qVaCi0i1dYGeeb7XSe7m3nnnfPeZ95nJyftOWdmX549Z97PXnuttctrP/KRj5T/3nTTTQXb2Rs2bCgeffTR4oorriiF480331xcffXVxQsvvFDs3r27OOuss4prr722+OUvf1lceumli6IPC+q99967aHGk/x//+MdLsRr9x48VwYa1D9a9Ci4GF154YemDi8g7fPhwceTIkVKE3XPPPeVtWD7pI0KR+UKAUS/zRb9xUYjC/2kv2uT6Xbt2FZ/61KdKN4m6viCkr7zyyrI9LI0IxuPHjxc///nPi4MHD5ZNfPazny327dtXcuc6+nLixInivvvuK5+BWChwLW399re/Xewbv+eLwn3//ve/i4ceeqj0FaWsX7++bDfaOnToUDmHPLO/+93vejL0FxKQgAQkIIFZJqAgrZmd97///cXOnTvL4B2sWWxxI3p+9KMflSJgKWXYuhCKCNSf/exnpRjEOsvP8Av84Q9/WIqivLCdS/DLZZddVmzcuLG8DyGDDyGiBrFDQTw/++yzxTXXXFMK3L/+9a+LVSHmaGf//v3lz3tZ2PDBRDgh1rFcIlrZWg7B+NGPfrS0yPI99cATn1UEbV3BfxMxipsAfUAAbtmypRTK0U+EG/PCeG655ZZSqGNhZL4QyQhnfg4H2kUY5rywkiLSEaS4SmAxrSqIatr5yU9+Ui5QqI+xsm2eLkwuuuiiUuQyBwhnxO4nPvGJsg3mkAJX7uNnzAeiEjH68MMPl/MBe/rMHG/fvr20SmM1RZCnhb4j9OsEaT9r+lKeZa+VgAQkIAEJjJqAW/Y1RBEyEUmOGHjggQdKQYTlcKllmLrOPPPM4rzzzistaYhKCqIIyyXR3/y+qmCVQ1BzHf9H3G3btq340pe+VForQwwirhFxFERWbMfzPWJq7969xa9//evSStcrUwBiiL5hbaQuBBXWSgrb5/inEoQTIpI2sKr2K/h2IhCxONI243jkkUcWxTT3E7DFWB588MGy71xHX7A+shDAmszPuZf+8f8qAc/1uDNg+cYSmxd+huB+/PHHS04U6kIgskBIC9ZZLNAIeNwv6A+c4Yj45Itt93An4F4EPO4ViFj6yRwjTuk346AwTvqYFgKVgnUvnrh4BJt+zP29BCQgAQlIYNIEtJDWEA/xF5cgtLCcYelbahmmrhCOsW0bbSN0+gWzIHwQc3whzPCxZCsZUY0V8e677670VU3Hh0DqV7DSpYV2w7cyxFJqeeVaAojqAmywEOIzmd/HPdwb/pVYjhF+eQQ9llr6wDZ73r+q8VAHIpmAL4RwnhoJocvCgj5hoWVe4AnH3GqJS0HOg+cnFfSptRnhz8IC4Yg1OS/BkDHlYprv63xIsTDjkoGQt0hAAhKQgARmkYAW0ppZqRJL/KxfEE6VdW3QuuheBMRgKVtKYZsesRQFAYTFFwvfnXfeWfp79rP20u8m7gl1wTK0Q8Hql5e63KxxX5NAHOrhuvQLi2BYKZtyw6UB8Y4LQlU6JdwFPv/5z5eClHkmqIivpYyrri/5GPj++eefr835Clf6UvXc0RYilmuqrMJNuXidBCQgAQlIYJwEtJDW0MUqlVrW8MPD2hbpmCLIJq2Crdsqf71+ddVNMpZQCm3H/0OoIpAIWKpKUh+BSrlllXuJ4Eeg9BPXVSJyqQ9kbDHDIN1uxsIYorOqTrbFEWT5djR8sUyGFZJ/EWP4bKb9ZWx5m036zrY6LhJs3aeCmYAymOIagEtCFDILDFsYK/OBJf3JJ588pTrGEKKcYLF8zliwsL3fS9zjI8w1+KP+6U9/Grar3i8BCUhAAhIYOQEtpDVIsZKl4hI/PgRnfKgjIhCJaWoeglmqSr+66maWSGqsfUTqpymGCFgiQX0qUtN6EE1EsXNfXrDwIVIiWjvEzDiCX9heRzTSj2BFOwQc1RX6hLsAlt40iT++sOkWNQsEBGnOHp9MfGVDpFJfk/FhiWbrHqGZRsSHpRqfzSgENeEf28s6uZS/WMaK4E3HRv0ERBG0FAuJ3GcYF4K0T1Vt4vaAxXcU/VzKmLxWArNCgHcP75F+i/BZ6a/9qCfAu5H3c54ar+4urmWBn/v8y3o2CGghrZkHtjo/85nPlFHpkf+R7Vm2UCkhIBAMCDt8S/nAj4CXtOp+ddU9DljH8P9DXH36058u+xP5SNMAm7wOtp7xSUSYcWQkfQyLI3/IBNVEjlIsb2zPc2oRVkyiyEdVEIIE55AuiVOjsDrzUsCqlwfo5G1i3cMaCmPGDUfGjiUxxDliHd9O0lchDvHnjCNbCUQLsY1wR9x+8pOfLMcduTyrxolVmd9zfRTax4pJ1DvPAH1BKCK2mXvEJJkABi0EVRFFT9oo2mc+8PfFbzn6SlAV85kW+FS5DaTXjMLSPei4vG++CRB0iH832Unq3G9YoPIsR7YKfLlZSBEMOUzhXcffTLq4ZIeInZB4l1M/75MIGuzn3jKqvg0zrkHuZTHLOFMfd9IJsvjmXRkGirRuPne4hzR+s1JYtPNZSH/xzScLS7/CZzj38F5l7kdxLHe/Nv390ggoSGt4/fSnPy19BQma4QXFH2z6EGP5I4odsYf1jJcb2+dYLrFqUhBfCA0CZLiuV12IDq6LFzZW2DRQBgHGqUpYaXmpYBFja7fuGEhECKmYiIDnQwEhh4WQtviDTF8+/JEiQhFYIfSou2obGKEbFjnEN/1OI/MZN3VzKlAUXAruuOOOsh+8TBgfgv6GG24oo8h7FYQygVfMAyKTPiG+EJ9p3xCCsOY6Vr/8n5dUmr6JbAG8vGg/rMr0odcKG5HLdTE27qUvzC8vN34OM54N8sZGYV7yF3s+n1yLGIddpN/iX3x7EbYsJFjcIMgRo/FcYA1m6x3LN88fc8oX2RYsEphFAvx99Tu4gX7jvpNarvBdH/ZUMf5OSLfG+4d0a/wNY1ljt4aFJeI3gib5m8YAwXu/ys0pZTuKvk1jrtipIzfyXXfdtdg8n13MDweD8I7OFw38Pj/8Yxp9T9vkHRj5qz/3uc+VhoA8kDTvI8YFxnbbbbf1dG+a9rjmvX0Fac0TwMsQgVl3nCYvutx/M70eYRR+qHV1sWJPE7JX+fohYLCILrUgjkMg192bX4eoqloxI0ijIBirEsmn9yKssH4g2NPIdSwWvOzyCPW0jwRdMQ8EJ0XhgwvhnPaD3yHQ6o7+zOvhnjrLIh86+diYJ4RqXtJsB7kPKNdWzSdiN6+fF2ZdPlF402eEN2PlX1j3yyIQFlIWJE2CxJb6jHm9BEZNYBQWObJlsHDl4Ip47lmkIkLZrUGgYVRYahlF35ba5jiv572CoYO8yBgrZrmwAOeAEAw0LOJZjOPG1S+NIIudPNPJLI9zHvumIJ3HWZ/wmPlAYIsef1cENStZtsbYxkOM5mmd0u7h78V1CFe2q1nJk7wekZsfiTrhYU2tOUQsW08IV6ypWO77FYQ084CFHXHcz1WiX33+vtsEeE5wScFSiKhDrLAbwsIwXVyRUgzrGbsPaSEgEGt+mu4OCyTCgW15dkUQEvwN93InYZsd8ZguGtlh4QAJ+sYOBbsHdYF6iBB2MPJFGItTXAGwFlKwnhHISKGPtMMhIfyMXS2u5b3DQhgLKgdYRN+wuCJsuYb7cBui0C8W4On4WISzyIYnC1J2kRgPxoC6XY6m9yHUGAt8+BunfRarccgGY4nDTmgv2qQvzAWWYyyP/Ra4jJP3Oe9jWPKcxFireMCAueKLHSbu5x3OYpoFfLpLxvPBc8WOGIKTE/0ikBiu3M/7LHa/6C8Hozz22GNmEmn5a8mgpooJZLWI9akuJVHL533i3ed0JF4qfMjgw4nFlA8rXu51nHlh86IJ30/8nfiAYas8dxOY+KCm1CAfHrzEOekJgVDnthFd5B78eOMDa0pdt9mWEEAAsdjhFLIQj+xMcLoaYiEKvodparn4eeTpTYd71VVXLbqX8LfLtiv+ib0K/tO4rkTBTYe//+gP7428P3ldLGIRwmzPs32fBvUhjnCJqSsspOkHuYERqtxPu2nfWCzzfuJkOAQsbbLoxo0HoRoFEYbvKWIRIYiQ43sEVl1u66b3IZLjJDnEMKIX33v80psUDl7BFYvFRF3wJ+Pi3YNY5J2O8OW9HkGqwQPmPBvh/sA9uE/wXGGEiEDXNH80gp8+h1sXjBCbaWAudaa7kohaFkUR+NlkrF4zmwS0kFbMC1vLqbP7bE5du3rFi4Wt7qrt7n4jicT+/a6bp99jjcgT9/cbf1go+l3n7yUAAUQBixgsVJRYBCFIsFqG73NTWgiH1LWF7/FbTEVLr7oQplgWsUIinKIgTtlmjpPc8vvpMxZBRDQiksUsxgYWw4wB4wOFvw36w4KNv6vUh5QtYsZKUFbdmHHxwTUgCqIOKyJb4AgmBDVC9P77719chCPmUv/zvP9N78OaiCCFb1iU4YRgp118Q7H4IqyxCvP/vGDFZL4xGCC+q1yPEORYzPldGmyGCE2DxqgbcUuKPApMv/jFL5Yi+fbbb1+0Gof7FdfAi6Banrf0EA+yp8CIOWL+EO/xTHIfP2PBjfBOLan5+LCWD+uT3PRZ97rBCGghHYybd0lAAhLoNAG26PNMFOxYICKqrKL9YKRBjlyLqMCnD9HWr9Aegin3r2aBSyBgXTozBOEPfvCDgl0a2kSYbN68uTzgAutkv4JQIkCynwBPRRJ1YgHEGkrBOotoo//pjlBdfMJS7sMijVsCW/8R6Mi/GFaw8lYd8lE1bsQ6fUTkp6n24lr6DstYFBCwhhsAIjG3qqY8EILMNZbR1IUBIRlBpQhK+ol1Nx0DFmfqJg80iyTmOhYS0S++x1WgVwlLd79gtX7Pgr8fLwEtpOPla+0SkIAEWkkA613uThM/aypw0oFX+S3zszyvbhWs8GHNM3LwfZMT7LCipT6TWAmxFmKRQ8TVBVbCIM3W0Wsyc5GUXhdiKc8ZTd/rhG7T+3BLYKFw/fXXV3YPIdfUbxzLJ9Zktu6rAr6oCwsq7hrMC+4XVX7AuTUSjlU/iw7HWEkPWFUYY+SQzeuBY+SJrroXqy9+sXUBo638I+1YpxWkHZtQhyMBCUhgFASqPuARBFio6kQU1qwqH0Tuze+jjX7pehgLgqPqVDesawgZxFaqDhUqAAAd7klEQVQuirBOXnfddeWWeZqlg/rYTuZkN9I8Yb2sE6S0PWwe3zh+mfGmvu/0vy5Je9P7sD4iiHfs2FE59f2su+lNiD0i1vEfzo+WRhQi7hDxpBREqEf+ajgOUxgDhfiAKvGcis48VR/f1x1xTV/xryVYb5hc0cOMz3v7E3DLvj8jr5CABCQwdwTIhJFv20YEeVgMq4QiW7hVW+j4Z6YFIUkbTayPXIOYy0UPgglRWdUeAg0hSf7nKoEcuVGXItYGfQgQvPQlZ9DPXaHpfWy1I8AR7Qi7+IIvfrpLPaGNrXWi7glWQoRGIXCIecBVgjbDUhnZCgblw31YMGHEM5eOgZ8REMXPmVMsrbmI5/uqA2miPxEXEs/vMP303vERUJCOj601S0ACEmgtAT742T5FYCJC+DAnMh4hEvmJEREEHOHDiCDC15Nt8KrgEaKwiRhHPOBzSN0I2tx6WQWMAyywmhFlT3+og21lUjHhq9grty5R9Fy/bdu2MgqbPiJE6Qcih/5H2qjoM2NgO3qUBYEVaZUQ0fg0EpmPL2vdqVBN70NwMZaIbGec+GQyFzCOsfEvCwHGWOdzydhJ0Uff0kVJWHdjHvkdzwRtYQEf5lhWFgYEp/GcwAYhjKDGtYJ2whobJ/3F/BD4hetAXQ5qrkWwDtO/UT4P1lVNwC37GX0y+MPB4Z6owV5n1c9o1+2WBCTQAQJsyxJQwtZtnNRDdHoaoY2YRNwgGigIGLbCqyLH+TniJaxb5JIk7VudZSswYiW75557ShHJljEFwYwYJS1cr8Lv6RNBOqSdioKAJX8llr4Qs/SDnyEY8ZG86aabRjqLBEbRF6yOWDIRd0STI8DqXAKa3gfLSK0UHWc8acL4Z599tlxYkH6JfMZVh5rEvfSV/hGpHwXLKXNOGiYWA8wBbTz66KPFli1bygVDv1RadVARwbBIU0/xHHLKVohqnsHU0smCCAs4z2pdMY3jSB/nsVS28LWvfe31b3zjG4uVsyLpt40waE/yh//rX/964xxpg7bZ1vsIGuBItCbH2LV1jPZ7vgh885vfPOV0LYQM1qt5Kfi45VHVN954Y6Vv5LSZRHogjpjEPw8LFNulvba3I6iGxXPdSWBsHbO9i7gYNI8w1j8stv3ayhliGWUctI21tUkw1CjnAY6ILb4QpLSP4YF0SAi/PEo/2l7qfQj+OJVoXGOEP/OAiA8Lb6THqrP4NuUZvsE8b/kzx7NGhgTSR+ELzCIH3cIxsHUFazTidZCTuZr2u991X/3qV0/JocqhCFXZDPrVM8zvyVudHkYzqOYjlVf6fLFLspRgR94nqT8vfxNu2Q8zswPcm/sy8f1S/XuW2mxV/Vg8Bmm3yX29zoZP+10V+EB/6hIyc/+snam81Lnwegm0jQACDmtmna8lW8sEJ/U7lhYrFdcNKkZhxwdZk7ZyzognEqrjlzkuodZrbnm33XDDDeUWOiXaj8T5vdIRDXIf8wSfcY6RxRVtpOITkT8KMQofnjnqr3rmeNbItUqAEp81uA/kJ4VVzQN9jjRcbfsbnJf+umU/5pnGysmWCysHto1iiwkfJbZqWLGxYuaFxJYWL2q2u/ChoWCp4I+TpMw457NNcuutt57Sa7ZpeNGT1Jj6iCZkFUh71EP+Pf4QOSGDLSpeiqyK+PDAr4ktr15bRrTZ5L44CpRxIRp5GZLDkPbCUR0/LvrIdg/+XPSZFwvts8rFMs8LGF8gEjynkZb0gfvwe4q62d6JbZxrrrmm9DnK2Yx5eq1eAhKQQF8CvOvYOud9zq5AHJ/M5wKfDxFhnlc06H19O9TyC8iccO2115aCFGtfk/yiuBaQZJ+ToMijWnfkbMvxtLb7CtIxTx0CClHH9iT+O/i/cFYvPjwINkQV2yuIR3y1OFEDB3VWmghWnPkjChWTdpUjOmIz/GPCwRuBRzuYxHn58eJDNCJeycWGlQDxyAqd+nsFFtBmv/t4KTAettA4hYRVLeOlbtrGUT36hY8RIpgXAn5AiEyuJUcgWy6ISk4Wof9x6gmnrMAClw+CKQgIQLTDLU4CgUEaDTrmabV6CXSaABanJjsdnYYw4sEhiBBPvPd4XyGI8HvsFyMw6H0j7v5MVYe1G3c2trubiFE6z2cRBgsC6pqkGpupAc9JZxSkE5hoTphAaIbFj/OLEaapszlCC2sqgUz4mSHqEGH8sTX9g0uHgq8UbabbNnzAYI1E/FFok0hVIiTrIl373Ydgpb+MJ/7QsXJi1cx9SmgnfIlpn/HCBetwFI6g40xoCr5KCFsc5eOoTO7jhUREKae/IKi3b98+gZm0CQnMB4EmqZjmg8RoR8l7Mj/9qkkLg97XpO62XoNRpS5/bNW4cPcY5PO0rYza1m8F6QRmjBVuiNE485et6vzYOkQW4rDfcXJNukwdVT5E+R8jf6B1J1xEW3X3EQX54x//uLyUFStfWF/jmLe0v3kkJC9a0nikBV+f8G+NdCKI4pRX+Jryez88mzwRXiMBCUhAAhKYXQIK0gnMDZGAUeK0EXwoq062GPZEkGin6qQL6q7KD9gPQb/7EI9YMXEyj6AFRGpVOpeq1Bv5z9LvI28cbg9Vxxj2C4LqNzZ/LwEJSEACEpDA9AkoSCcwB6mlEud1gonwocS3cqmlKjIeX8r8HOVxRljmfSZvH8FW9957b+n/GiW23Zc6xvT6EPPUrSV0GJLeKwEJSEACEphdAqZ9mvDcYOVj25qcXam4JOjnC1/4QnHxxRef0qP0mtjKjiPvuBAfTZy0p1kInkIQp2KUfuHHOmzBR4htfXilhTF/+ctfXsxjiyg3pcewtL1fAhKQgAQkMB0CWkinwJ2UFZw2QqoiHNyxmLLdzfZzJEdGfFI2bdpUbu0TCERCW7bPSeuEdRVhyu+rtucnOSx8QOMYPAKOSHxNQBOZAoiIHybxLy4GZCLgPGYEJ76sbOMTnU9OQZhQSOVBBoLvfOc7kxy6bUlAAhKQgAQkMAICCtIRQKyrAsGU55hj63nHjh3Fhz/84dL3EkGKuCJHZ1yLIOU4NlKEELhDIUcpOUVJeURqJNKFkMMOwRe+lohAUovkW/bUG+It7S99qTtSrcl9IY7JI0qSYurkeEGsmAhHcqMyPvqVJ04mGj8X1IyL66Mg0rHA4hZAxgIspqTQIsI+CvVoIR3zw2z1EpggAdLBkfKNd96ofOsn2H2bkoAElkhAQbpEYEu9vNdxZvhG4hdZVxB6uZ8puevqEvoiBjnzOS/PPfdcwVdesD7WlSb3IWix+vKVFgQoOU+jVPUrPRc7FaD5MXr9xh3CfKnz4/USkMBsEmDHgwX5ICfKzeaI7JUEJFBHQB9Sn49OECDh/29+85tOjMVBSKArBPCNR1giKvkix3C6k4GfObse7KKkBXck/MIp3B/39PIV55rYJeLf8LPn/2Q0oW0ynMThGfweCyynJvXL1BFnw9MXdqPoL65IVYVr2dHimjwHc1X7+N9Hoa/9+sT1VXVTB2OrOjilK8+S4+g+AS2k3Z/juRjhAw88MFBKq7mA4yAlMCUCCE0OArnzzjvLYzMRdJzAxu4Ji0jcfNiORxSyu8OuES47nFoXvufXX399eT07LFu3bi2FZb7zxDVxeAZZPwiCxOXpiiuuKIXqzTffXJ6YhwvRk08+WbpLUWgXH3hO/ak6N51raJM+shN0/vnnL/YX//90h4eDTPDpj0LduBY99NBD5b3RPrtGl1xySfmzuIaAUNrhe75wz7r77rsXXbjwy2csCOHgRX5rjljG5YtCTIJ+9FN60G12JAQUpCPBaCXTJjBIftVp99n2JTAvBBBbCE7cegh8RBASrInowl+c0944VpjT1/CvR3wSKIlwu+22297ke96PGyIUwcvRyYjZEG1YMBGrHOTx8ssvlxbbq666qgzCJBVfr0IKO9yXvv/97xf49yM8GQOuRfjmr1+/vjwnHYHIoScUvqf/uF0xZgqWXk7HY0wIb2II8I2Hxc6dO0txzP8R8fQJkY1ARYwimG+55ZZSpGJJvfzyy8vT/HBXotBGmoGlHyN/L4FZI+CW/azNiP2RgAQk0DECiC92MTi2mJPhyCrCMcYRvIg4JKiTQEhOeeNQjbBYYi3M8yz3w4Mw27t3bymAycwRgZuIOyyntBcijoDIXlvw0Q4LXo5Gpk/UxUl4/IuQpkRu6QMHDpQ/5yt8/cP1gOtwHcCqSiAn18SRzVhN48Q6+oN4jy1/AkVp58EHHywtp9zH0dNkXoEjp9hRqBdLr0UCbSWghbStM2e/JSABCbSEQHp+O36bCDOEVnp4RgQvIUrzI4YHGSbisKrkRxUjNkPU9WoHAZvuwrBtzlfch/hE+OI/ipsC7gYEZOUFMZme3Bd1IjTTkrYFLwRvuBnEdVhb8dGlrXxMg/DyHglMm4CCdNozYPsSkIAEOk6g6hhhRFZspcfwsRgOklc5j8RH0EUu5xRtCMml4s77md9PsBHuBhSEKaLzkUceKa688spTLq1LsVfXJ+7L+4CIhVe/vi11rF4vgWkRUJBOi7ztSkACEpgTAqloiu1ytr3TfMOgwKcztSDmeBBmufhkSzyPlJ903tItW7aUAviuu+5aFIijOKmO8R85cqQc865du07Jx4qfLK4Ggwj4OXnsHGbLCOhDmk0YLza2jEyy3rIn2e5KQAKtIIB/JF8E86RCkoh7gnnwMaWkfp8xMCytbFGnW+wED0270GcslqnwJihpFIVgKgRpPk4Cpji1L8Q3LgIwtEigrQS0kGYzx6qT9CSk2cCJHCd8iwQkIAEJjIYAQjO2s6+77roySp33LtHnWE2xCFLC8sexwGyD7969u8AvFKHHz4gqx3iAWKtyCRhNb5vVQtqmD3zgA+W2PX0hUh5xiljktKnDhw83q6jiKoQuY+d0PkQndSHK8VclUCyE+2WXXVamfSIdlEUCbSSgIM1mjSjKO+64o2ALhpx1CtI2Ptb2WQISmAUCiCmiwXPByFY9qZcQlyz+ee9yRGh6Ch1ClZ8RYR5HKhOBTnokcnpilUQIImLf9773FYcOHSqHzH1VvprcW5XaqVfwU/Ajl2hV8nzqCpcDovlxNcDlgDyppJsikIso+AhKqmqfI57hEyI82iSdVHrMMvURuETKKlwU+D/pnrA0R4EDVmeLBNpKQEHaY+Z4kXIihkUCEpCABAYjEIK06m5EJnk26woGgdwogAjMfU8RY1GwnEbez7RuBCFfeYm8ob36gSCtKnv27Fn8MZbQp59+uvxKS3r8M6I8b5/gKwRpXvKjk/l9r/7HvTDJhe1gs+ZdEpgOAX1Ip8PdViUgAQlIQAIjI4C1mVypFgm0lYAW0rbOnP2WgAQkIAEJ/D8BDhawSKDNBLSQ9pg9tlIi2rPNE2zfJSABCUhAAhKQwKwTUJD2mKGI/MRZ3iIBCUhAAhKQgAQkMD4CCtIebEmtgcP91q1by/QaFglIQAISkIAEJCCB8RBQkPbgyikbpNDYu3fvYjqR8UyBtUpAAhKQgAQkIIH5JmBQU4/5J+UTueywkk76GLr5fiQdvQQkIAEJSEAC80ZAC2mPGefkEM4mVozO25+E45XAfBMgUT2nC3HakEUCEpDApAgoSGtIV532MamJsR0JSEAC0yDASUMcycm58vrPT2MGbFMC80lAQTqf8+6oJSABCVQS4FhKclpyFOf69eulJAEJSGAiBBSkPTCffvrp5Za9RQISkMA8EuCcdVyXLBKQgAQmQcCgpowyyfAvv/zy4u1vf3vxq1/9ahJzYBsSkIAEZo6ALkszNyV2SAKdJqAgzaYXq8BTTz1V7N69u3j55Zc7PfkOTgISkIAEJCABCcwCAQVpNgtE1f/5z3+ehbmxDxKQgASmRgCXpTPOOGNq7duwBCQwXwT0IZ2v+Xa0EpCABBoR+MMf/lBG2W/atKnR9V4kAQlIYBgCCtJh6HmvBCQggY4SYKfoL3/5S3HppZd2dIQOSwISmCUCCtJZmg37IgEJSGBGCGAZJTn+rbfeOiM9shsSkECXCShIuzy7jk0CEpDAgATOPffc0kL66quvDliDt0lAAhJoTqAzQU2bN28uNmzYUDzzzDPF448/3pyAV0pAAhKQwJsILF++vDh27JhkJCABCUyEQGcspE888URx//33FxdddJFnME/k0bERCUhAAhKQgAQkMBoCnRGk//3vf4u//e1vBWmb3vKWt4yGjrVIQAISmFMCCwsLczpyhy0BCUyDQGcEacDzdJFpPEa2KQEJdIkA2/Xr1q0rXnnllS4Ny7FIQAIzTKAzPqQzzNiuSUACEmgNgfe+973Fxz72seKll14q9u/f35p+21EJSKDdBDonSNmyX7Gic8Nq91Nm7yUggdYQeO6554rvfe97xcmTJ1vTZzsqAQm0n0Dntuw5f/5d73pX+2fGEUhAAhKYAgHcnhSjUwBvkxKYcwKdE6S7du0qzj777HLLySIBCUhAAhKQgAQkMPsEOidIzznnnGLVqlVlQmeLBCQgAQlIQAISkMDsE+icIP3gBz9Y7Nu3r0yQb5GABCQgAQlIQAISmH0CnROka9asKY4cOTL75O2hBCQggRESIP/y2rVrR1ijVUlAAhKYHIFOhqObi3RyD5AtSUACs0HgkksuKd75zneWqZoee+yx2eiUvZCABCTQkEDnLKQNx+1lEpCABDpF4L777isefvjhYtOmTaa+69TMOhgJzAeBTgnSZcuWFXxxjKhFAhKQwLwR+Oc//1lw5Ofq1avnbeiOVwISaDmBzmzZs1V1wQUXlGL04MGDLZ8Wuy8BCUhAAhKQgATmh0BnLKSczvTqq68WO3fuLF577bX5mUFHKgEJSEACEpCABFpOoDMW0j/+8Y8FXxYJSEAC80og3JXIxcwC3SIBCUigLQQ6YyFtC3D7KQEJSGBcBI4ePVruEBHYtHz58nE1Y70SkIAERk5AQTpypFYoAQlIYDoEOIP+F7/4RXH++ecXHBJikYAEJNAWAgrStsyU/ZSABCTQhwAR9ps3by4DO59++ml5SUACEmgNAQVpa6bKjkpAAhKoJ7Bu3brirW99a/HEE08Y3OnDIgEJtIqAgrRV02VnJSABCfQmcNppp5W/PHbsmJgkIAEJtIqAgrRV02VnJSABCfQn4PHJ/Rl5hQQkMFsEFKSzNR/2RgISkIAEJCABCcwdAQXp3E25A5aABLpK4PTTTy+Hdvz48a4O0XFJQAIdJdCZxPgdnR+HJQEJSKARga1btxbnnXdeceDAAQVpI2JeJAEJzBIBBekszYZ9kYAEJDAggd///vfFM888U/zjH/8YsAZvk4AEJDA9AgrS6bG3ZQlIQAIjI0DuUYsEJCCBthLQh7StM2e/JSABCUhAAhKQQEcIKEg7MpEOQwISkIAEJCABCbSVgIK0rTNnvyUgAQlIQAISkEBHCChIOzKRDkMCEpCABCQgAQm0lYCCtK0zZ78lIAEJSEACEpBARwgoSDsykQ5DAhKQgAQkIAEJtJWAgrStM2e/JSABCUhAAhKQQEcIKEg7MpEOQwISkIAEJCABCbSVgIK0rTNnvyUgAQlIQAISkEBHCChIOzKRDkMCEpCABCQgAQm0lYCCtK0zZ78lIAEJSEACEpBARwgoSDsykQ5DAhKQgAQkIAEJtJWAgrStM2e/JSABCUhAAhKQQEcIrJjmOG6//fZi9erV0+yCbUtAAhMi8MILL0yopfY0893vfrdYtky7QHtmzJ5KYHACR48eHfzmObhzqoJ03759c4DYIUpAAhKoJrBnzx7RSEACEpDAGwQmujRfWFgQugQkIIGSwLxZBn3/+eBLQAIpAd8Jpz4PExWkZ511lk+jBCQggVKMrl27dq5InHbaacUZZ5wxV2N2sBKQQDWBlStX+j7I0Ex0y/4973lP+SF04sQJn1EJSGBOCWAVWLduXbFq1aq5I7Bhw4bi8OHDxcmTJ+du7A5YAhL4PwIsyDHQLV++XCQJgYkKUj6I3va2tzkBEpCABOaSAB9E55xzzlyO3UFLQAISqCMw0S17p0ICEpCABCQgAQlIQAI5AQWpz4QEJCABCUhAAhKQwFQJKEinit/GJSABCUhAAhKQgAQUpD4DEpCABCQgAQlIQAJTJaAgnSp+G5eABCQgAQlIQAISUJD6DEhAAhKQgAQkIAEJTJWAgnSq+G1cAhKQgAQkIAEJSEBB6jMgAQlIQAISkIAEJDBVAgrSqeK3cQlIQAISkIAEJCABBanPgAQkIAEJSEACEpDAVAkoSKeK38YlIAEJSEACEpCABBSkPgMSkIAEJCABCUhAAlMloCCdKn4bl4AEJCABCUhAAhJQkPoMSEACEpCABCQgAQlMlYCCdKr4bVwCEpCABCQgAQlIQEHqMyABCUhAAhKQgAQkMFUCCtKp4rdxCUhAAhKQgAQkIAEFqc+ABCQgAQlIQAISkMBUCShIp4rfxiUgAQlIQAISkIAEFKQ+AxKQgAQkIAEJSEACUyWgIJ0qfhuXgAQkIAEJSEACElCQ+gxIQAISkIAEJCABCUyVgIJ0qvhtXAISkIAEJCABCUhAQeozIAEJSEACEpCABCQwVQIK0qnit3EJSEACEpCABCQggRU5gv/85z/Fiy++KBkJSEACEpCABCQggQ4R+Ne//jWzo3mTIH3ttdeK559/fmY7bMckIAEJSEACEpCABLpFYNnCwkK3RuRoJCABCUhAAhKQgARaRWDZhz70oVZ12M5KQAISkIAEJCABCQxPYM2aNcNXMqIaVlx99dXFjTfeWGzfvr0YxrfgqaeeKk6cOLHYrdWrVxfLlhkzNaJ5shoJSEACEpCABCQwEgLsjq9du7Y499xzR1LfKCpZeP2NMoqK3vGOdxQHDx5crGrjxo3FmWeeOYqqrUMCEpCABCQgAQlIYEYI5EbIDRs2lAK3aTl27Fixf//+xctXrlxZaMJsSs/rJCABCUhAAhKQgATGQkBBOhasVioBCUhAAhKQgAQk0JSAgrQpKa+TgAQkIAEJSEACEhgLAQXpWLBaqQQkIAEJSEACEpBAUwIK0qakvE4CEpCABCQgAQlIYCwEFKRjwWqlEpCABCQgAQlIQAJNCShIm5LyOglIQAISkIAEJCCBsRBQkI4Fq5VKQAISkIAEJCABCTQloCBtSsrrJCABCUhAAhKQgATGQkBBOhasVioBCUhAAhKQgAQk0JSAgrQpKa+TgAQkIAEJSEACEhgLAQXpWLBaqQQkIAEJSEACEpBAUwIK0qakvE4CEpCABCQgAQlIYCwEFKRjwWqlEpCABCQgAQlIQAJNCShIm5LyOglIQAISkIAEJCCBsRBYMZZa36j073//e/HSSy+Nq3rrlYAEJCABCUhAAhKYAoGTJ0+OvNWxCdKjR4+OvLNWKAEJSEACEpCABCTQPQIj27JfsWJs2rZ71B2RBCQgAQlIQAIS6AiBhYWFoUcyMkG6bdu2oTtjBRKQgAQkIAEJSEAC7SGwcuXKYs2aNUN3eGRmzW9961vFhRdeWOzbt2+gTr344ovFjh07Trn37LPPHqgub5KABCQgAQlIQAISGC8BdsfRasuXLx+6oYXX3yhD1zKCCvbs2VNcfPHFizVh/k2/H0ETViEBCUhAAhKQgAQkMGUCx44dK/bv37/YC6ysI9uyn/LYbF4CEpCABCQgAQlIoKUEFKQtnTi7LQEJSEACEpCABLpCQEHalZl0HBKQgAQkIAEJSKClBBSkLZ04uy0BCUhAAhKQgAS6QkBB2pWZdBwSkIAEJCABCUigpQQUpC2dOLstAQlIQAISkIAEukJAQdqVmXQcEpCABCQgAQlIoKUEFKQtnTi7LQEJSEACEpCABLpCQEHalZl0HBKQgAQkIAEJSKClBBSkLZ04uy0BCUhAAhKQgAS6QkBB2pWZdBwSkIAEJCABCUigpQQUpC2dOLstAQlIQAISkIAEukJAQdqVmXQcEpCABCQgAQlIoKUEFKQtnTi7LQEJSEACEpCABLpCQEHalZl0HBKQgAQkIAEJSKClBFbMcr9feeWVWe6efZOABCQgAQlIQAISWCKB48ePv+mOmRWkr7/+enHgwIElDtHLJSABCUhAAhKQgATaRmBmtuwXFhbaxs7+SkACEpCABCQgAQmMgMDMCNJ3v/vdxapVq0YwJKuQgAQkIAEJSEACEmgLgY0bNxYLb2yNvz4rHd6+fXvxla98pTh06NCsdMl+SEACEpCABCQgAQmMicAFF1xQfPvb3y7+B8mFeEUbpganAAAAAElFTkSuQmCC;container=0;fontSize=17;" vertex="1" parent="1">
          <mxGeometry x="450" y="327.85724880382776" width="116" height="143.63" as="geometry" />
        </mxCell>
        <mxCell id="8h9eHZ5FxwuMSg7X2r9Z-20" style="edgeStyle=orthogonalEdgeStyle;rounded=0;orthogonalLoop=1;jettySize=auto;html=1;entryX=0.5;entryY=1;entryDx=0;entryDy=0;dashed=1;endArrow=blockThin;endFill=0;" parent="1" source="8h9eHZ5FxwuMSg7X2r9Z-13" target="8h9eHZ5FxwuMSg7X2r9Z-19" edge="1">
          <mxGeometry relative="1" as="geometry" />
        </mxCell>
        <mxCell id="8h9eHZ5FxwuMSg7X2r9Z-13" value="" style="shape=image;verticalLabelPosition=bottom;labelBackgroundColor=default;verticalAlign=top;aspect=fixed;imageAspect=0;image=https://cdn-icons-png.flaticon.com/512/107/107799.png;container=0;" parent="1" vertex="1">
          <mxGeometry x="373" y="387.67224880382776" width="24" height="24" as="geometry" />
        </mxCell>
        <mxCell id="otfmwMb7wzkigZNuvZXS-103" value="Github" style="shape=image;verticalLabelPosition=bottom;labelBackgroundColor=default;verticalAlign=top;aspect=fixed;imageAspect=0;image=https://upload.wikimedia.org/wikipedia/commons/9/91/Octicons-mark-github.svg;fontSize=17;" vertex="1" parent="1">
          <mxGeometry x="137.5" y="362.67500000000007" width="74" height="74" as="geometry" />
        </mxCell>
      </root>
    </mxGraphModel>
  </diagram>
</mxfile>
